RobotoSerifDisplay-HairlineCondItalic.ufo
<glyph name="numbersign" format="2">
  <advance width="423"/>
  <unicode hex="0023"/>
  <outline>
    <contour>
      <point x="57" y="0" type="line"/>
      <point x="76" y="0" type="line"/>
      <point x="231" y="750" type="line"/>
      <point x="212" y="750" type="line"/>
    </contour>
    <contour>
      <point x="25" y="258" type="line"/>
      <point x="369" y="258" type="line"/>
      <point x="369" y="285" type="line"/>
      <point x="25" y="285" type="line"/>
    </contour>
    <contour>
      <point x="69" y="484" type="line"/>
      <point x="412" y="484" type="line"/>
      <point x="412" y="511" type="line"/>
      <point x="69" y="511" type="line"/>
    </contour>
    <contour>
      <point x="196" y="0" type="line"/>
      <point x="215" y="0" type="line"/>
      <point x="369" y="750" type="line"/>
      <point x="350" y="750" type="line"/>
    </contour>
  </outline>
</glyph>
<glyph name="dollar" format="2">
  <advance width="384"/>
  <unicode hex="0024"/>
  <outline>
    <contour>
      <point x="177" y="9" type="curve" smooth="yes"/>
      <point x="268" y="9"/>
      <point x="335" y="77"/>
      <point x="335" y="198" type="curve" smooth="yes"/>
      <point x="335" y="300"/>
      <point x="274" y="343"/>
      <point x="220" y="378" type="curve" smooth="yes"/>
      <point x="156" y="420"/>
      <point x="106" y="450"/>
      <point x="106" y="539" type="curve" smooth="yes"/>
      <point x="106" y="624"/>
      <point x="151" y="680"/>
      <point x="233" y="680" type="curve" smooth="yes"/>
      <point x="276" y="680"/>
      <point x="319" y="664"/>
      <point x="340" y="637" type="curve"/>
      <point x="339" y="646"/>
      <point x="336" y="652"/>
      <point x="331" y="657" type="curve"/>
      <point x="319" y="561" type="line"/>
      <point x="357" y="561" type="line"/>
      <point x="367" y="642" type="line"/>
      <point x="343" y="670"/>
      <point x="298" y="698"/>
      <point x="236" y="698" type="curve" smooth="yes"/>
      <point x="139" y="698"/>
      <point x="78" y="633"/>
      <point x="78" y="530" type="curve" smooth="yes"/>
      <point x="78" y="429"/>
      <point x="133" y="389"/>
      <point x="187" y="353" type="curve" smooth="yes"/>
      <point x="247" y="311"/>
      <point x="304" y="281"/>
      <point x="304" y="190" type="curve" smooth="yes"/>
      <point x="304" y="86"/>
      <point x="254" y="27"/>
      <point x="180" y="27" type="curve" smooth="yes"/>
      <point x="119" y="27"/>
      <point x="65" y="50"/>
      <point x="38" y="96" type="curve"/>
      <point x="38" y="86"/>
      <point x="40" y="76"/>
      <point x="42" y="68" type="curve"/>
      <point x="57" y="179" type="line"/>
      <point x="16" y="179" type="line"/>
      <point x="6" y="98" type="line"/>
      <point x="32" y="57"/>
      <point x="91" y="9"/>
    </contour>
    <contour>
      <point x="136" y="-120" type="line"/>
      <point x="151" y="-120" type="line"/>
      <point x="167" y="13" type="line"/>
      <point x="167" y="19" type="line"/>
      <point x="247" y="687" type="line"/>
      <point x="248" y="692" type="line"/>
      <point x="260" y="787" type="line"/>
      <point x="246" y="787" type="line"/>
      <point x="234" y="691" type="line"/>
      <point x="233" y="684" type="line"/>
      <point x="153" y="21" type="line"/>
      <point x="152" y="16" type="line"/>
    </contour>
  </outline>
</glyph>
<glyph name="parenleft" format="2">
  <advance width="207"/>
  <unicode hex="0028"/>
  <outline>
    <contour>
      <point x="53" y="232" type="curve" smooth="yes"/>
      <point x="53" y="69"/>
      <point x="90" y="-46"/>
      <point x="139" y="-127" type="curve"/>
      <point x="139" y="-130" type="line"/>
      <point x="125" y="-130" type="line"/>
      <point x="69" y="-50"/>
      <point x="24" y="79"/>
      <point x="24" y="232" type="curve" smooth="yes"/>
      <point x="24" y="478"/>
      <point x="125" y="655"/>
      <point x="227" y="750" type="curve"/>
      <point x="243" y="750" type="line"/>
      <point x="243" y="747" type="line"/>
      <point x="143" y="645"/>
      <point x="53" y="469"/>
    </contour>
  </outline>
</glyph>
<glyph name="plus" format="2">
  <advance width="384"/>
  <unicode hex="002B"/>
  <outline>
    <contour>
      <point x="209" y="536" type="line"/>
      <point x="161" y="147" type="line"/>
      <point x="175" y="147" type="line"/>
      <point x="224" y="536" type="line"/>
    </contour>
    <contour>
      <point x="325" y="350" type="line"/>
      <point x="62" y="350" type="line"/>
      <point x="60" y="333" type="line"/>
      <point x="323" y="333" type="line"/>
    </contour>
  </outline>
</glyph>
<glyph name="one" format="2">
  <advance width="384"/>
  <unicode hex="0031"/>
  <outline>
    <contour>
      <point x="194" y="51" type="curve" smooth="yes"/>
      <point x="262" y="609" type="line"/>
      <point x="242" y="609" type="line"/>
      <point x="212" y="556"/>
      <point x="161" y="532"/>
      <point x="97" y="532" type="curve"/>
      <point x="92" y="499" type="line"/>
      <point x="136" y="498"/>
      <point x="207" y="531"/>
      <point x="228" y="579" type="curve"/>
      <point x="222" y="577" type="line"/>
      <point x="159" y="51" type="line" smooth="yes"/>
      <point x="156" y="23"/>
      <point x="132" y="16"/>
      <point x="66" y="16" type="curve" smooth="yes"/>
      <point x="43" y="16" type="line"/>
      <point x="40" y="0" type="line"/>
      <point x="298" y="0" type="line"/>
      <point x="300" y="16" type="line"/>
      <point x="287" y="16" type="line" smooth="yes"/>
      <point x="216" y="16"/>
      <point x="191" y="23"/>
    </contour>
  </outline>
</glyph>
<glyph name="two" format="2">
  <advance width="384"/>
  <unicode hex="0032"/>
  <outline>
    <contour>
      <point x="-3" y="0" type="line"/>
      <point x="0" y="24" type="line"/>
      <point x="169" y="169"/>
      <point x="304" y="305"/>
      <point x="304" y="458" type="curve" smooth="yes"/>
      <point x="304" y="556"/>
      <point x="265" y="600"/>
      <point x="206" y="600" type="curve" smooth="yes"/>
      <point x="164" y="600"/>
      <point x="131" y="585"/>
      <point x="90" y="539" type="curve"/>
      <point x="97" y="550"/>
      <point x="100" y="563"/>
      <point x="112" y="570" type="curve"/>
      <point x="100" y="462" type="line"/>
      <point x="61" y="462" type="line"/>
      <point x="71" y="550" type="line"/>
      <point x="98" y="579"/>
      <point x="144" y="618"/>
      <point x="206" y="618" type="curve" smooth="yes"/>
      <point x="288" y="618"/>
      <point x="341" y="566"/>
      <point x="341" y="457" type="curve" smooth="yes"/>
      <point x="341" y="308"/>
      <point x="180" y="155"/>
      <point x="29" y="27" type="curve"/>
      <point x="26" y="40" type="line"/>
      <point x="204" y="40" type="line" smooth="yes"/>
      <point x="265" y="40"/>
      <point x="290" y="50"/>
      <point x="298" y="90" type="curve" smooth="yes"/>
      <point x="316" y="173" type="line"/>
      <point x="329" y="173" type="line"/>
      <point x="309" y="0" type="line"/>
    </contour>
  </outline>
</glyph>
<glyph name="four" format="2">
  <advance width="384"/>
  <unicode hex="0034"/>
  <outline>
    <contour>
      <point x="9" y="112" type="line"/>
      <point x="354" y="112" type="line"/>
      <point x="359" y="145" type="line"/>
      <point x="28" y="145" type="line"/>
      <point x="27" y="130" type="line"/>
      <point x="308" y="599" type="line"/>
      <point x="311" y="609" type="line"/>
      <point x="296" y="609" type="line"/>
      <point x="11" y="132" type="line"/>
    </contour>
    <contour>
      <point x="244" y="-77" type="line"/>
      <point x="326" y="609" type="line"/>
      <point x="304" y="609" type="line"/>
      <point x="289" y="581" type="line"/>
      <point x="209" y="-77" type="line"/>
    </contour>
  </outline>
</glyph>
<glyph name="seven" format="2">
  <advance width="384"/>
  <unicode hex="0037"/>
  <outline>
    <contour>
      <point x="156" y="569" type="line" smooth="yes"/>
      <point x="114" y="569"/>
      <point x="97" y="561"/>
      <point x="88" y="519" type="curve" smooth="yes"/>
      <point x="70" y="428" type="line"/>
      <point x="57" y="428" type="line"/>
      <point x="78" y="609" type="line"/>
      <point x="395" y="609" type="line"/>
      <point x="391" y="581" type="line"/>
      <point x="281" y="409"/>
      <point x="192" y="236"/>
      <point x="144" y="-77" type="curve"/>
      <point x="107" y="-77" type="line"/>
      <point x="158" y="223"/>
      <point x="281" y="432"/>
      <point x="375" y="580" type="curve"/>
      <point x="376" y="569" type="line"/>
    </contour>
  </outline>
</glyph>
<glyph name="eight" format="2">
  <advance width="384"/>
  <unicode hex="0038"/>
  <outline>
    <contour>
      <point x="183" y="8" type="curve" smooth="yes"/>
      <point x="107" y="8"/>
      <point x="62" y="78"/>
      <point x="62" y="183" type="curve" smooth="yes"/>
      <point x="62" y="197"/>
      <point x="63" y="210"/>
      <point x="64" y="223" type="curve" smooth="yes"/>
      <point x="75" y="311"/>
      <point x="123" y="367"/>
      <point x="189" y="367" type="curve" smooth="yes"/>
      <point x="266" y="367"/>
      <point x="308" y="301"/>
      <point x="308" y="201" type="curve" smooth="yes"/>
      <point x="308" y="186"/>
      <point x="308" y="171"/>
      <point x="305" y="157" type="curve" smooth="yes"/>
      <point x="293" y="67"/>
      <point x="250" y="8"/>
    </contour>
    <contour>
      <point x="218" y="385" type="curve" smooth="yes"/>
      <point x="168" y="385"/>
      <point x="124" y="440"/>
      <point x="124" y="534" type="curve" smooth="yes"/>
      <point x="124" y="549"/>
      <point x="125" y="563"/>
      <point x="126" y="575" type="curve" smooth="yes"/>
      <point x="137" y="652"/>
      <point x="175" y="702"/>
      <point x="231" y="702" type="curve" smooth="yes"/>
      <point x="289" y="702"/>
      <point x="326" y="642"/>
      <point x="326" y="551" type="curve" smooth="yes"/>
      <point x="326" y="538"/>
      <point x="325" y="526"/>
      <point x="323" y="514" type="curve" smooth="yes"/>
      <point x="314" y="434"/>
      <point x="273" y="385"/>
    </contour>
    <contour>
      <point x="182" y="-10" type="curve" smooth="yes"/>
      <point x="279" y="-10"/>
      <point x="346" y="82"/>
      <point x="346" y="199" type="curve" smooth="yes"/>
      <point x="346" y="278"/>
      <point x="305" y="355"/>
      <point x="233" y="378" type="curve"/>
      <point x="236" y="370" type="line"/>
      <point x="238" y="381" type="line"/>
      <point x="232" y="373" type="line"/>
      <point x="307" y="378"/>
      <point x="361" y="455"/>
      <point x="361" y="550" type="curve" smooth="yes"/>
      <point x="361" y="648"/>
      <point x="304" y="720"/>
      <point x="231" y="720" type="curve" smooth="yes"/>
      <point x="146" y="720"/>
      <point x="88" y="638"/>
      <point x="88" y="536" type="curve" smooth="yes"/>
      <point x="88" y="466"/>
      <point x="121" y="401"/>
      <point x="179" y="380" type="curve"/>
      <point x="176" y="386" type="line"/>
      <point x="175" y="379" type="line"/>
      <point x="179" y="384" type="line"/>
      <point x="84" y="379"/>
      <point x="24" y="285"/>
      <point x="24" y="184" type="curve" smooth="yes"/>
      <point x="24" y="69"/>
      <point x="93" y="-10"/>
    </contour>
  </outline>
</glyph>
<glyph name="less" format="2">
  <advance width="384"/>
  <unicode hex="003C"/>
  <outline>
    <contour>
      <point x="301" y="146" type="line"/>
      <point x="67" y="325" type="line"/>
      <point x="69" y="342" type="line"/>
      <point x="338" y="522" type="line"/>
      <point x="336" y="500" type="line"/>
      <point x="79" y="328" type="line"/>
      <point x="80" y="336" type="line"/>
      <point x="304" y="165" type="line"/>
    </contour>
  </outline>
</glyph>
<glyph name="question" format="2">
  <advance width="334"/>
  <unicode hex="003F"/>
  <outline>
    <contour>
      <point x="148" y="355" type="curve"/>
      <point x="129" y="195" type="line"/>
      <point x="144" y="195" type="line"/>
      <point x="161" y="342" type="line"/>
      <point x="254" y="369"/>
      <point x="334" y="441"/>
      <point x="334" y="576" type="curve" smooth="yes"/>
      <point x="334" y="681"/>
      <point x="279" y="745"/>
      <point x="199" y="745" type="curve" smooth="yes"/>
      <point x="141" y="745"/>
      <point x="99" y="709"/>
      <point x="79" y="689" type="curve"/>
      <point x="67" y="599" type="line"/>
      <point x="105" y="599" type="line"/>
      <point x="118" y="706" type="line"/>
      <point x="106" y="697"/>
      <point x="97" y="687"/>
      <point x="97" y="677" type="curve"/>
      <point x="132" y="715"/>
      <point x="162" y="728"/>
      <point x="198" y="728" type="curve" smooth="yes"/>
      <point x="261" y="728"/>
      <point x="298" y="666"/>
      <point x="298" y="577" type="curve" smooth="yes"/>
      <point x="298" y="459"/>
      <point x="246" y="388"/>
    </contour>
    <component base="period" xOffset="56"/>
  </outline>
</glyph>
<glyph name="A" format="2">
  <advance width="444"/>
  <unicode hex="0041"/>
  <anchor x="240" y="721" name="top"/>
  <anchor x="429" y="0" name="right"/>
  <anchor x="240" y="0" name="bottom"/>
  <outline>
    <contour>
      <point x="109" y="289" type="line"/>
      <point x="103" y="271" type="line"/>
      <point x="310" y="271" type="line"/>
      <point x="311" y="289" type="line"/>
    </contour>
    <contour>
      <point x="251" y="681" type="line"/>
      <point x="327" y="26" type="line"/>
      <point x="326" y="19"/>
      <point x="306" y="15"/>
      <point x="279" y="15" type="curve" smooth="yes"/>
      <point x="267" y="15" type="line"/>
      <point x="265" y="0" type="line"/>
      <point x="400" y="0" type="line"/>
      <point x="402" y="15" type="line"/>
      <point x="399" y="15" type="line"/>
      <point x="377" y="15"/>
      <point x="364" y="19"/>
      <point x="361" y="44" type="curve" smooth="yes"/>
      <point x="282" y="710" type="line"/>
      <point x="252" y="710" type="line"/>
      <point x="18" y="56" type="line" smooth="yes"/>
      <point x="7" y="26"/>
      <point x="-10" y="15"/>
      <point x="-32" y="15" type="curve"/>
      <point x="-35" y="15" type="line"/>
      <point x="-38" y="0" type="line"/>
      <point x="82" y="0" type="line"/>
      <point x="84" y="15" type="line"/>
      <point x="72" y="15" type="line" smooth="yes"/>
      <point x="43" y="15"/>
      <point x="27" y="25"/>
      <point x="27" y="38" type="curve"/>
      <point x="256" y="679" type="line"/>
    </contour>
  </outline>
</glyph>
<glyph name="B" format="2">
  <advance width="415"/>
  <unicode hex="0042"/>
  <outline>
    <contour>
      <point x="203" y="364" type="line" smooth="yes"/>
      <point x="294" y="364"/>
      <point x="332" y="301"/>
      <point x="332" y="206" type="curve" smooth="yes"/>
      <point x="332" y="106"/>
      <point x="287" y="18"/>
      <point x="190" y="18" type="curve" smooth="yes"/>
      <point x="82" y="18" type="line"/>
      <point x="124" y="364" type="line"/>
    </contour>
    <contour>
      <point x="250" y="692" type="line" smooth="yes"/>
      <point x="313" y="692"/>
      <point x="345" y="643"/>
      <point x="345" y="559" type="curve" smooth="yes"/>
      <point x="345" y="461"/>
      <point x="299" y="381"/>
      <point x="209" y="381" type="curve" smooth="yes"/>
      <point x="125" y="381" type="line"/>
      <point x="163" y="692" type="line"/>
    </contour>
    <contour>
      <point x="204" y="368" type="line"/>
      <point x="324" y="368"/>
      <point x="381" y="461"/>
      <point x="381" y="559" type="curve" smooth="yes"/>
      <point x="381" y="649"/>
      <point x="334" y="710"/>
      <point x="251" y="710" type="curve" smooth="yes"/>
      <point x="71" y="710" type="line"/>
      <point x="69" y="695" type="line"/>
      <point x="76" y="695" type="line" smooth="yes"/>
      <point x="108" y="695"/>
      <point x="127" y="687"/>
      <point x="124" y="668" type="curve" smooth="yes"/>
      <point x="49" y="42" type="line" smooth="yes"/>
      <point x="47" y="21"/>
      <point x="23" y="15"/>
      <point x="-6" y="15" type="curve" smooth="yes"/>
      <point x="-12" y="15" type="line"/>
      <point x="-15" y="0" type="line"/>
      <point x="186" y="0" type="line" smooth="yes"/>
      <point x="306" y="0"/>
      <point x="371" y="92"/>
      <point x="371" y="206" type="curve" smooth="yes"/>
      <point x="371" y="310"/>
      <point x="317" y="377"/>
      <point x="206" y="379" type="curve"/>
      <point x="239" y="366" type="line"/>
      <point x="242" y="380" type="line"/>
    </contour>
  </outline>
</glyph>
<glyph name="D" format="2">
  <advance width="482"/>
  <unicode hex="0044"/>
  <anchor x="251" y="741" name="top"/>
  <anchor x="251" y="0" name="bottom"/>
  <outline>
    <contour>
      <point x="69" y="695" type="line"/>
      <point x="77" y="695" type="line" smooth="yes"/>
      <point x="105" y="695"/>
      <point x="128" y="689"/>
      <point x="125" y="667" type="curve" smooth="yes"/>
      <point x="50" y="42" type="line" smooth="yes"/>
      <point x="48" y="21"/>
      <point x="23" y="15"/>
      <point x="-5" y="15" type="curve" smooth="yes"/>
      <point x="-12" y="15" type="line"/>
      <point x="-15" y="0" type="line"/>
      <point x="162" y="0" type="line" smooth="yes"/>
      <point x="375" y="0"/>
      <point x="461" y="192"/>
      <point x="461" y="400" type="curve" smooth="yes"/>
      <point x="461" y="579"/>
      <point x="381" y="710"/>
      <point x="214" y="710" type="curve" smooth="yes"/>
      <point x="71" y="710" type="line"/>
    </contour>
    <contour>
      <point x="215" y="692" type="line" smooth="yes"/>
      <point x="357" y="692"/>
      <point x="423" y="578"/>
      <point x="423" y="402" type="curve" smooth="yes"/>
      <point x="423" y="208"/>
      <point x="354" y="18"/>
      <point x="161" y="18" type="curve" smooth="yes"/>
      <point x="82" y="18" type="line"/>
      <point x="163" y="692" type="line"/>
    </contour>
  </outline>
</glyph>
<glyph name="F" format="2">
  <advance width="381"/>
  <unicode hex="0046"/>
  <outline>
    <contour>
      <point x="-15" y="0" type="line"/>
      <point x="149" y="0" type="line"/>
      <point x="152" y="15" type="line"/>
      <point x="140" y="15" type="line" smooth="yes"/>
      <point x="114" y="15"/>
      <point x="82" y="17"/>
      <point x="84" y="41" type="curve" smooth="yes"/>
      <point x="163" y="692" type="line"/>
      <point x="288" y="692" type="line" smooth="yes"/>
      <point x="346" y="692"/>
      <point x="363" y="685"/>
      <point x="361" y="658" type="curve" smooth="yes"/>
      <point x="357" y="557" type="line"/>
      <point x="371" y="557" type="line"/>
      <point x="390" y="710" type="line"/>
      <point x="71" y="710" type="line"/>
      <point x="69" y="695" type="line"/>
      <point x="76" y="695" type="line" smooth="yes"/>
      <point x="105" y="695"/>
      <point x="128" y="689"/>
      <point x="124" y="667" type="curve" smooth="yes"/>
      <point x="49" y="42" type="line" smooth="yes"/>
      <point x="47" y="21"/>
      <point x="23" y="15"/>
      <point x="-6" y="15" type="curve" smooth="yes"/>
      <point x="-12" y="15" type="line"/>
    </contour>
    <contour>
      <point x="115" y="366" type="curve"/>
      <point x="113" y="350" type="line"/>
      <point x="205" y="348"/>
      <point x="249" y="348"/>
      <point x="291" y="340" type="curve"/>
      <point x="296" y="377" type="line"/>
      <point x="252" y="369"/>
      <point x="208" y="368"/>
    </contour>
  </outline>
</glyph>
<glyph name="H" format="2">
  <advance width="514"/>
  <unicode hex="0048"/>
  <anchor x="257" y="741" name="top"/>
  <anchor x="257" y="0" name="bottom"/>
  <outline>
    <contour>
      <point x="115" y="375" type="line"/>
      <point x="113" y="358" type="line"/>
      <point x="414" y="358" type="line"/>
      <point x="416" y="375" type="line"/>
    </contour>
    <contour>
      <point x="-15" y="0" type="line"/>
      <point x="138" y="0" type="line"/>
      <point x="141" y="15" type="line"/>
      <point x="135" y="15" type="line" smooth="yes"/>
      <point x="112" y="15"/>
      <point x="82" y="18"/>
      <point x="82" y="25" type="curve" smooth="yes"/>
      <point x="162" y="685" type="line" smooth="yes"/>
      <point x="163" y="692"/>
      <point x="193" y="695"/>
      <point x="216" y="695" type="curve" smooth="yes"/>
      <point x="222" y="695" type="line"/>
      <point x="224" y="710" type="line"/>
      <point x="71" y="710" type="line"/>
      <point x="69" y="695" type="line"/>
      <point x="76" y="695" type="line" smooth="yes"/>
      <point x="104" y="695"/>
      <point x="128" y="689"/>
      <point x="125" y="668" type="curve" smooth="yes"/>
      <point x="49" y="42" type="line" smooth="yes"/>
      <point x="47" y="20"/>
      <point x="23" y="15"/>
      <point x="-6" y="15" type="curve" smooth="yes"/>
      <point x="-12" y="15" type="line"/>
    </contour>
    <contour>
      <point x="292" y="0" type="line"/>
      <point x="445" y="0" type="line"/>
      <point x="448" y="15" type="line"/>
      <point x="440" y="15" type="line" smooth="yes"/>
      <point x="411" y="15"/>
      <point x="389" y="21"/>
      <point x="391" y="43" type="curve" smooth="yes"/>
      <point x="467" y="667" type="line" smooth="yes"/>
      <point x="469" y="689"/>
      <point x="492" y="695"/>
      <point x="522" y="695" type="curve" smooth="yes"/>
      <point x="529" y="695" type="line"/>
      <point x="532" y="710" type="line"/>
      <point x="378" y="710" type="line"/>
      <point x="376" y="695" type="line"/>
      <point x="382" y="695" type="line" smooth="yes"/>
      <point x="405" y="695"/>
      <point x="435" y="692"/>
      <point x="434" y="685" type="curve" smooth="yes"/>
      <point x="354" y="25" type="line" smooth="yes"/>
      <point x="354" y="18"/>
      <point x="324" y="15"/>
      <point x="301" y="15" type="curve" smooth="yes"/>
      <point x="294" y="15" type="line"/>
    </contour>
  </outline>
</glyph>
<glyph name="I" format="2">
  <advance width="208"/>
  <unicode hex="0049"/>
  <anchor x="104" y="741" name="top"/>
  <anchor x="151" y="0" name="right"/>
  <anchor x="104" y="0" name="bottom"/>
  <outline>
    <contour>
      <point x="49" y="42" type="line" smooth="yes"/>
      <point x="47" y="21"/>
      <point x="23" y="15"/>
      <point x="-6" y="15" type="curve" smooth="yes"/>
      <point x="-12" y="15" type="line"/>
      <point x="-15" y="0" type="line"/>
      <point x="138" y="0" type="line"/>
      <point x="140" y="15" type="line"/>
      <point x="133" y="15" type="line" smooth="yes"/>
      <point x="104" y="15"/>
      <point x="82" y="21"/>
      <point x="85" y="43" type="curve" smooth="yes"/>
      <point x="160" y="667" type="line" smooth="yes"/>
      <point x="163" y="689"/>
      <point x="186" y="695"/>
      <point x="215" y="695" type="curve" smooth="yes"/>
      <point x="222" y="695" type="line"/>
      <point x="224" y="710" type="line"/>
      <point x="71" y="710" type="line"/>
      <point x="69" y="695" type="line"/>
      <point x="76" y="695" type="line" smooth="yes"/>
      <point x="104" y="695"/>
      <point x="128" y="689"/>
      <point x="125" y="668" type="curve" smooth="yes"/>
    </contour>
  </outline>
</glyph>
<glyph name="J" format="2">
  <advance width="353"/>
  <unicode hex="004A"/>
  <anchor x="261" y="741" name="top"/>
  <outline>
    <contour>
      <point x="273" y="667" type="curve" smooth="yes"/>
      <point x="219" y="212" type="line" smooth="yes"/>
      <point x="201" y="65"/>
      <point x="168" y="8"/>
      <point x="103" y="8" type="curve" smooth="yes"/>
      <point x="70" y="8"/>
      <point x="43" y="19"/>
      <point x="21" y="54" type="curve"/>
      <point x="24" y="43"/>
      <point x="27" y="33"/>
      <point x="31" y="23" type="curve"/>
      <point x="43" y="124" type="line"/>
      <point x="5" y="124" type="line"/>
      <point x="-5" y="47" type="line"/>
      <point x="7" y="26"/>
      <point x="44" y="-10"/>
      <point x="102" y="-10" type="curve" smooth="yes"/>
      <point x="181" y="-10"/>
      <point x="234" y="46"/>
      <point x="254" y="207" type="curve" smooth="yes"/>
      <point x="309" y="667" type="line" smooth="yes"/>
      <point x="312" y="689"/>
      <point x="335" y="695"/>
      <point x="364" y="695" type="curve" smooth="yes"/>
      <point x="371" y="695" type="line"/>
      <point x="373" y="710" type="line"/>
      <point x="218" y="710" type="line"/>
      <point x="215" y="695" type="line"/>
      <point x="224" y="695" type="line" smooth="yes"/>
      <point x="254" y="695"/>
      <point x="277" y="689"/>
    </contour>
  </outline>
</glyph>
<glyph name="K" format="2">
  <advance width="463"/>
  <unicode hex="004B"/>
  <anchor x="245" y="741" name="top"/>
  <anchor x="245" y="0" name="bottom"/>
  <outline>
    <contour>
      <point x="-15" y="0" type="line"/>
      <point x="138" y="0" type="line"/>
      <point x="141" y="15" type="line"/>
      <point x="135" y="15" type="line" smooth="yes"/>
      <point x="112" y="15"/>
      <point x="82" y="18"/>
      <point x="82" y="25" type="curve" smooth="yes"/>
      <point x="162" y="685" type="line" smooth="yes"/>
      <point x="163" y="692"/>
      <point x="193" y="695"/>
      <point x="216" y="695" type="curve" smooth="yes"/>
      <point x="222" y="695" type="line"/>
      <point x="224" y="710" type="line"/>
      <point x="71" y="710" type="line"/>
      <point x="69" y="695" type="line"/>
      <point x="76" y="695" type="line" smooth="yes"/>
      <point x="104" y="695"/>
      <point x="128" y="689"/>
      <point x="125" y="668" type="curve" smooth="yes"/>
      <point x="49" y="42" type="line" smooth="yes"/>
      <point x="47" y="20"/>
      <point x="23" y="15"/>
      <point x="-6" y="15" type="curve" smooth="yes"/>
      <point x="-12" y="15" type="line"/>
    </contour>
    <contour>
      <point x="275" y="0" type="line"/>
      <point x="415" y="0" type="line"/>
      <point x="418" y="15" type="line"/>
      <point x="411" y="15" type="line" smooth="yes"/>
      <point x="384" y="15"/>
      <point x="378" y="20"/>
      <point x="366" y="43" type="curve" smooth="yes"/>
      <point x="180" y="389" type="line"/>
      <point x="172" y="367" type="line"/>
      <point x="393" y="666" type="line" smooth="yes"/>
      <point x="408" y="685"/>
      <point x="421" y="695"/>
      <point x="445" y="695" type="curve" smooth="yes"/>
      <point x="457" y="695" type="line"/>
      <point x="459" y="710" type="line"/>
      <point x="332" y="710" type="line"/>
      <point x="330" y="695" type="line"/>
      <point x="337" y="695" type="line" smooth="yes"/>
      <point x="359" y="695"/>
      <point x="384" y="688"/>
      <point x="385" y="681" type="curve"/>
      <point x="152" y="370" type="line"/>
      <point x="150" y="364" type="line"/>
      <point x="331" y="27" type="line"/>
      <point x="330" y="19"/>
      <point x="304" y="15"/>
      <point x="284" y="15" type="curve" smooth="yes"/>
      <point x="277" y="15" type="line"/>
    </contour>
  </outline>
</glyph>
<glyph name="N" format="2">
  <advance width="491"/>
  <unicode hex="004E"/>
  <anchor x="253" y="741" name="top"/>
  <anchor x="253" y="0" name="bottom"/>
  <outline>
    <contour>
      <point x="-15" y="0" type="line"/>
      <point x="126" y="0" type="line"/>
      <point x="129" y="15" type="line"/>
      <point x="117" y="15" type="line" smooth="yes"/>
      <point x="90" y="15"/>
      <point x="64" y="25"/>
      <point x="64" y="34" type="curve" smooth="yes"/>
      <point x="145" y="705" type="line"/>
      <point x="134" y="701" type="line"/>
      <point x="338" y="0" type="line"/>
      <point x="362" y="0" type="line"/>
      <point x="441" y="657" type="line" smooth="yes"/>
      <point x="444" y="683"/>
      <point x="468" y="695"/>
      <point x="497" y="695" type="curve" smooth="yes"/>
      <point x="505" y="695" type="line"/>
      <point x="507" y="710" type="line"/>
      <point x="366" y="710" type="line"/>
      <point x="364" y="695" type="line"/>
      <point x="375" y="695" type="line" smooth="yes"/>
      <point x="402" y="695"/>
      <point x="429" y="685"/>
      <point x="428" y="676" type="curve"/>
      <point x="351" y="35" type="line"/>
      <point x="359" y="49" type="line"/>
      <point x="168" y="710" type="line"/>
      <point x="71" y="710" type="line"/>
      <point x="69" y="695" type="line"/>
      <point x="76" y="695" type="line" smooth="yes"/>
      <point x="105" y="695"/>
      <point x="128" y="689"/>
      <point x="125" y="667" type="curve" smooth="yes"/>
      <point x="52" y="54" type="line" smooth="yes"/>
      <point x="48" y="27"/>
      <point x="24" y="15"/>
      <point x="-5" y="15" type="curve" smooth="yes"/>
      <point x="-12" y="15" type="line"/>
    </contour>
  </outline>
</glyph>
<glyph name="P" format="2">
  <advance width="402"/>
  <unicode hex="0050"/>
  <outline>
    <contour>
      <point x="119" y="328" type="line"/>
      <point x="163" y="692" type="line"/>
      <point x="236" y="692" type="line" smooth="yes"/>
      <point x="326" y="692"/>
      <point x="363" y="632"/>
      <point x="363" y="535" type="curve" smooth="yes"/>
      <point x="363" y="424"/>
      <point x="317" y="328"/>
      <point x="203" y="328" type="curve" smooth="yes"/>
    </contour>
    <contour>
      <point x="71" y="710" type="line"/>
      <point x="69" y="695" type="line"/>
      <point x="76" y="695" type="line" smooth="yes"/>
      <point x="104" y="695"/>
      <point x="128" y="689"/>
      <point x="125" y="668" type="curve" smooth="yes"/>
      <point x="49" y="42" type="line" smooth="yes"/>
      <point x="47" y="21"/>
      <point x="23" y="15"/>
      <point x="-6" y="15" type="curve" smooth="yes"/>
      <point x="-12" y="15" type="line"/>
      <point x="-15" y="0" type="line"/>
      <point x="150" y="0" type="line"/>
      <point x="153" y="15" type="line"/>
      <point x="136" y="15" type="line" smooth="yes"/>
      <point x="112" y="15"/>
      <point x="82" y="19"/>
      <point x="83" y="27" type="curve" smooth="yes"/>
      <point x="116" y="310" type="line"/>
      <point x="203" y="310" type="line" smooth="yes"/>
      <point x="339" y="310"/>
      <point x="400" y="417"/>
      <point x="400" y="534" type="curve" smooth="yes"/>
      <point x="400" y="641"/>
      <point x="347" y="710"/>
      <point x="236" y="710" type="curve" smooth="yes"/>
    </contour>
  </outline>
</glyph>
<glyph name="Q" format="2">
  <advance width="503"/>
  <unicode hex="0051"/>
  <outline>
    <contour>
      <point x="482" y="389" type="curve" smooth="yes"/>
      <point x="482" y="567"/>
      <point x="403" y="720"/>
      <point x="274" y="720" type="curve" smooth="yes"/>
      <point x="126" y="720"/>
      <point x="27" y="525"/>
      <point x="27" y="321" type="curve" smooth="yes"/>
      <point x="27" y="146"/>
      <point x="105" y="-10"/>
      <point x="233" y="-10" type="curve" smooth="yes"/>
      <point x="381" y="-10"/>
      <point x="482" y="185"/>
    </contour>
    <contour>
      <point x="233" y="9" type="curve" smooth="yes"/>
      <point x="121" y="9"/>
      <point x="65" y="152"/>
      <point x="65" y="317" type="curve" smooth="yes"/>
      <point x="65" y="346"/>
      <point x="66" y="375"/>
      <point x="69" y="404" type="curve" smooth="yes"/>
      <point x="89" y="564"/>
      <point x="162" y="701"/>
      <point x="274" y="701" type="curve" smooth="yes"/>
      <point x="386" y="701"/>
      <point x="444" y="560"/>
      <point x="444" y="393" type="curve" smooth="yes"/>
      <point x="444" y="363"/>
      <point x="441" y="334"/>
      <point x="438" y="304" type="curve" smooth="yes"/>
      <point x="418" y="145"/>
      <point x="346" y="9"/>
    </contour>
    <contour>
      <point x="351" y="-178" type="curve" smooth="yes"/>
      <point x="371" y="-178"/>
      <point x="392" y="-174"/>
      <point x="412" y="-166" type="curve"/>
      <point x="420" y="-118" type="line"/>
      <point x="391" y="-129"/>
      <point x="363" y="-136"/>
      <point x="338" y="-136" type="curve" smooth="yes"/>
      <point x="280" y="-136"/>
      <point x="238" y="-99"/>
      <point x="238" y="-1" type="curve" smooth="yes"/>
      <point x="238" y="0"/>
      <point x="238" y="1"/>
      <point x="238" y="2" type="curve"/>
      <point x="221" y="-3" type="line"/>
      <point x="220" y="-6"/>
      <point x="220" y="-11"/>
      <point x="220" y="-14" type="curve" smooth="yes"/>
      <point x="220" y="-125"/>
      <point x="277" y="-178"/>
    </contour>
  </outline>
</glyph>
<glyph name="R" format="2">
  <advance width="438"/>
  <unicode hex="0052"/>
  <anchor x="270" y="741" name="top"/>
  <anchor x="270" y="0" name="bottom"/>
  <outline>
    <contour>
      <point x="-15" y="0" type="line"/>
      <point x="140" y="0" type="line"/>
      <point x="142" y="15" type="line"/>
      <point x="135" y="15" type="line" smooth="yes"/>
      <point x="112" y="15"/>
      <point x="82" y="18"/>
      <point x="82" y="25" type="curve" smooth="yes"/>
      <point x="118" y="327" type="line"/>
      <point x="207" y="327" type="line" smooth="yes"/>
      <point x="221" y="327"/>
      <point x="235" y="328"/>
      <point x="249" y="331" type="curve" smooth="yes"/>
      <point x="341" y="348"/>
      <point x="390" y="430"/>
      <point x="390" y="535" type="curve" smooth="yes"/>
      <point x="390" y="638"/>
      <point x="335" y="710"/>
      <point x="230" y="710" type="curve" smooth="yes"/>
      <point x="71" y="710" type="line"/>
      <point x="69" y="695" type="line"/>
      <point x="76" y="695" type="line" smooth="yes"/>
      <point x="105" y="695"/>
      <point x="127" y="689"/>
      <point x="124" y="667" type="curve" smooth="yes"/>
      <point x="49" y="42" type="line" smooth="yes"/>
      <point x="47" y="20"/>
      <point x="23" y="15"/>
      <point x="-6" y="15" type="curve" smooth="yes"/>
      <point x="-12" y="15" type="line"/>
    </contour>
    <contour>
      <point x="228" y="692" type="line" smooth="yes"/>
      <point x="304" y="692"/>
      <point x="352" y="637"/>
      <point x="352" y="536" type="curve" smooth="yes"/>
      <point x="352" y="427"/>
      <point x="311" y="344"/>
      <point x="210" y="344" type="curve" smooth="yes"/>
      <point x="121" y="344" type="line"/>
      <point x="163" y="692" type="line"/>
    </contour>
    <contour>
      <point x="230" y="332" type="line"/>
      <point x="317" y="0" type="line"/>
      <point x="390" y="0" type="line"/>
      <point x="392" y="15" type="line"/>
      <point x="385" y="15" type="line" smooth="yes"/>
      <point x="361" y="15"/>
      <point x="349" y="23"/>
      <point x="342" y="49" type="curve" smooth="yes"/>
      <point x="261" y="344" type="line"/>
    </contour>
  </outline>
</glyph>
<glyph name="S" format="2">
  <advance width="408"/>
  <unicode hex="0053"/>
  <anchor x="239" y="741" name="top"/>
  <anchor x="239" y="0" name="bottom"/>
  <outline>
    <contour>
      <point x="210" y="-10" type="curve" smooth="yes"/>
      <point x="291" y="-10"/>
      <point x="358" y="60"/>
      <point x="358" y="182" type="curve" smooth="yes"/>
      <point x="358" y="294"/>
      <point x="292" y="341"/>
      <point x="227" y="387" type="curve" smooth="yes"/>
      <point x="163" y="431"/>
      <point x="107" y="468"/>
      <point x="107" y="559" type="curve" smooth="yes"/>
      <point x="107" y="638"/>
      <point x="140" y="701"/>
      <point x="215" y="701" type="curve" smooth="yes"/>
      <point x="292" y="701"/>
      <point x="336" y="627"/>
      <point x="346" y="542" type="curve"/>
      <point x="359" y="542" type="line"/>
      <point x="380" y="710" type="line"/>
      <point x="364" y="710" type="line"/>
      <point x="344" y="598" type="line"/>
      <point x="344" y="590"/>
      <point x="348" y="587"/>
      <point x="353" y="587" type="curve"/>
      <point x="337" y="661"/>
      <point x="287" y="720"/>
      <point x="215" y="720" type="curve" smooth="yes"/>
      <point x="128" y="720"/>
      <point x="78" y="647"/>
      <point x="78" y="553" type="curve" smooth="yes"/>
      <point x="78" y="439"/>
      <point x="141" y="396"/>
      <point x="205" y="351" type="curve" smooth="yes"/>
      <point x="266" y="308"/>
      <point x="327" y="266"/>
      <point x="327" y="173" type="curve" smooth="yes"/>
      <point x="327" y="69"/>
      <point x="278" y="9"/>
      <point x="210" y="9" type="curve" smooth="yes"/>
      <point x="127" y="9"/>
      <point x="59" y="78"/>
      <point x="42" y="203" type="curve"/>
      <point x="29" y="203" type="line"/>
      <point x="4" y="0" type="line"/>
      <point x="21" y="0" type="line"/>
      <point x="45" y="143" type="line"/>
      <point x="44" y="155"/>
      <point x="40" y="161"/>
      <point x="34" y="164" type="curve"/>
      <point x="58" y="50"/>
      <point x="128" y="-10"/>
    </contour>
  </outline>
</glyph>
<glyph name="T" format="2">
  <advance width="425"/>
  <unicode hex="0054"/>
  <anchor x="201" y="741" name="top"/>
  <anchor x="201" y="0" name="bottom"/>
  <outline>
    <contour>
      <point x="157" y="43" type="line" smooth="yes"/>
      <point x="154" y="21"/>
      <point x="129" y="15"/>
      <point x="99" y="15" type="curve" smooth="yes"/>
      <point x="88" y="15" type="line"/>
      <point x="85" y="0" type="line"/>
      <point x="252" y="0" type="line"/>
      <point x="255" y="15" type="line"/>
      <point x="244" y="15" type="line" smooth="yes"/>
      <point x="213" y="15"/>
      <point x="190" y="21"/>
      <point x="192" y="43" type="curve" smooth="yes"/>
      <point x="271" y="692" type="line"/>
      <point x="350" y="692" type="line" smooth="yes"/>
      <point x="398" y="692"/>
      <point x="416" y="686"/>
      <point x="415" y="659" type="curve" smooth="yes"/>
      <point x="409" y="557" type="line"/>
      <point x="422" y="557" type="line"/>
      <point x="441" y="710" type="line"/>
      <point x="69" y="710" type="line"/>
      <point x="49" y="557" type="line"/>
      <point x="63" y="557" type="line"/>
      <point x="83" y="658" type="line" smooth="yes"/>
      <point x="90" y="686"/>
      <point x="108" y="692"/>
      <point x="155" y="692" type="curve" smooth="yes"/>
      <point x="235" y="692" type="line"/>
    </contour>
  </outline>
</glyph>
<glyph name="U" format="2">
  <advance width="509"/>
  <unicode hex="0055"/>
  <anchor x="239" y="741" name="top"/>
  <anchor x="290" y="0" name="right"/>
  <anchor x="239" y="0" name="bottom"/>
  <outline>
    <contour>
      <point x="120" y="362" type="curve" smooth="yes"/>
      <point x="159" y="685" type="line" smooth="yes"/>
      <point x="160" y="692"/>
      <point x="190" y="695"/>
      <point x="213" y="695" type="curve" smooth="yes"/>
      <point x="220" y="695" type="line"/>
      <point x="221" y="710" type="line"/>
      <point x="68" y="710" type="line"/>
      <point x="66" y="695" type="line"/>
      <point x="73" y="695" type="line" smooth="yes"/>
      <point x="102" y="695"/>
      <point x="125" y="689"/>
      <point x="122" y="668" type="curve" smooth="yes"/>
      <point x="85" y="363" type="line" smooth="yes"/>
      <point x="77" y="304"/>
      <point x="72" y="256"/>
      <point x="72" y="213" type="curve" smooth="yes"/>
      <point x="72" y="59"/>
      <point x="140" y="-10"/>
      <point x="233" y="-10" type="curve" smooth="yes"/>
      <point x="323" y="-10"/>
      <point x="391" y="69"/>
      <point x="412" y="244" type="curve" smooth="yes"/>
      <point x="462" y="655" type="line" smooth="yes"/>
      <point x="465" y="685"/>
      <point x="490" y="695"/>
      <point x="518" y="695" type="curve" smooth="yes"/>
      <point x="526" y="695" type="line"/>
      <point x="527" y="710" type="line"/>
      <point x="392" y="710" type="line"/>
      <point x="390" y="695" type="line"/>
      <point x="397" y="695" type="line" smooth="yes"/>
      <point x="420" y="695"/>
      <point x="450" y="688"/>
      <point x="448" y="675" type="curve" smooth="yes"/>
      <point x="396" y="245" type="line" smooth="yes"/>
      <point x="378" y="88"/>
      <point x="320" y="14"/>
      <point x="238" y="14" type="curve" smooth="yes"/>
      <point x="164" y="14"/>
      <point x="107" y="71"/>
      <point x="107" y="212" type="curve" smooth="yes"/>
      <point x="107" y="255"/>
      <point x="112" y="303"/>
    </contour>
  </outline>
</glyph>
<glyph name="Y" format="2">
  <advance width="430"/>
  <unicode hex="0059"/>
  <anchor x="199" y="741" name="top"/>
  <anchor x="199" y="0" name="bottom"/>
  <outline>
    <contour>
      <point x="91" y="0" type="line"/>
      <point x="258" y="0" type="line"/>
      <point x="261" y="15" type="line"/>
      <point x="250" y="15" type="line" smooth="yes"/>
      <point x="219" y="15"/>
      <point x="195" y="21"/>
      <point x="198" y="43" type="curve" smooth="yes"/>
      <point x="232" y="323" type="line"/>
      <point x="221" y="290" type="line"/>
      <point x="410" y="659" type="line" smooth="yes"/>
      <point x="426" y="688"/>
      <point x="443" y="695"/>
      <point x="463" y="695" type="curve" smooth="yes"/>
      <point x="467" y="695" type="line"/>
      <point x="469" y="710" type="line"/>
      <point x="345" y="710" type="line"/>
      <point x="343" y="695" type="line"/>
      <point x="355" y="695" type="line" smooth="yes"/>
      <point x="383" y="695"/>
      <point x="401" y="686"/>
      <point x="400" y="674" type="curve"/>
      <point x="215" y="311" type="line"/>
      <point x="226" y="320" type="line"/>
      <point x="125" y="684" type="line"/>
      <point x="126" y="691"/>
      <point x="156" y="695"/>
      <point x="179" y="695" type="curve" smooth="yes"/>
      <point x="191" y="695" type="line"/>
      <point x="193" y="710" type="line"/>
      <point x="51" y="710" type="line"/>
      <point x="48" y="695" type="line"/>
      <point x="51" y="695" type="line" smooth="yes"/>
      <point x="72" y="695"/>
      <point x="86" y="693"/>
      <point x="92" y="673" type="curve" smooth="yes"/>
      <point x="200" y="290" type="line"/>
      <point x="197" y="323" type="line"/>
      <point x="162" y="43" type="line" smooth="yes"/>
      <point x="160" y="21"/>
      <point x="136" y="15"/>
      <point x="105" y="15" type="curve" smooth="yes"/>
      <point x="94" y="15" type="line"/>
    </contour>
  </outline>
</glyph>
<glyph name="backslash" format="2">
  <advance width="261"/>
  <unicode hex="005C"/>
  <outline>
    <contour>
      <point x="49" y="750" type="line"/>
      <point x="34" y="750" type="line"/>
      <point x="210" y="-130" type="line"/>
      <point x="225" y="-130" type="line"/>
    </contour>
  </outline>
</glyph>
<glyph name="asciicircum" format="2">
  <advance width="343"/>
  <unicode hex="005E"/>
  <outline>
    <contour>
      <point x="71" y="364" type="line"/>
      <point x="218" y="699" type="line"/>
      <point x="218" y="710" type="line"/>
      <point x="206" y="710" type="line"/>
      <point x="52" y="364" type="line"/>
    </contour>
    <contour>
      <point x="277" y="364" type="line"/>
      <point x="293" y="364" type="line"/>
      <point x="224" y="710" type="line"/>
      <point x="211" y="710" type="line"/>
      <point x="210" y="699" type="line"/>
    </contour>
  </outline>
</glyph>
<glyph name="grave" format="2">
  <advance width="343"/>
  <unicode hex="0060"/>
  <anchor x="151" y="531" name="_top"/>
  <outline>
    <contour>
      <point x="139" y="718" type="curve" smooth="yes"/>
      <point x="187" y="592" type="line"/>
      <point x="187" y="585" type="line"/>
      <point x="178" y="585" type="line"/>
      <point x="109" y="688" type="line" smooth="yes"/>
      <point x="98" y="704"/>
      <point x="88" y="721"/>
      <point x="88" y="739" type="curve" smooth="yes"/>
      <point x="88" y="753"/>
      <point x="96" y="765"/>
      <point x="107" y="765" type="curve" smooth="yes"/>
      <point x="122" y="765"/>
      <point x="128" y="748"/>
    </contour>
  </outline>
</glyph>
<glyph name="b" format="2">
  <advance width="379"/>
  <unicode hex="0062"/>
  <outline>
    <contour>
      <point x="169" y="-10" type="curve" smooth="yes"/>
      <point x="286" y="-10"/>
      <point x="358" y="153"/>
      <point x="358" y="327" type="curve" smooth="yes"/>
      <point x="358" y="441"/>
      <point x="323" y="528"/>
      <point x="253" y="528" type="curve" smooth="yes"/>
      <point x="184" y="528"/>
      <point x="136" y="447"/>
      <point x="91" y="308" type="curve"/>
      <point x="96" y="290" type="line"/>
      <point x="140" y="422"/>
      <point x="186" y="510"/>
      <point x="248" y="510" type="curve" smooth="yes"/>
      <point x="299" y="510"/>
      <point x="321" y="433"/>
      <point x="321" y="329" type="curve" smooth="yes"/>
      <point x="321" y="163"/>
      <point x="266" y="7"/>
      <point x="170" y="7" type="curve" smooth="yes"/>
      <point x="121" y="7"/>
      <point x="77" y="43"/>
      <point x="59" y="87" type="curve"/>
      <point x="58" y="70"/>
      <point x="67" y="52"/>
      <point x="75" y="37" type="curve"/>
      <point x="161" y="750" type="line"/>
      <point x="72" y="750" type="line"/>
      <point x="70" y="735" type="line"/>
      <point x="87" y="733" type="line" smooth="yes"/>
      <point x="113" y="728"/>
      <point x="122" y="723"/>
      <point x="119" y="703" type="curve" smooth="yes"/>
      <point x="42" y="61" type="line"/>
      <point x="66" y="26"/>
      <point x="113" y="-10"/>
    </contour>
  </outline>
</glyph>
<glyph name="d" format="2">
  <advance width="385"/>
  <unicode hex="0064"/>
  <anchor x="440" y="735" name="right"/>
  <anchor x="170" y="0" name="bottom"/>
  <outline>
    <contour>
      <point x="133" y="-10" type="curve" smooth="yes"/>
      <point x="202" y="-10"/>
      <point x="248" y="76"/>
      <point x="292" y="211" type="curve"/>
      <point x="286" y="228" type="line"/>
      <point x="243" y="103"/>
      <point x="199" y="9"/>
      <point x="136" y="9" type="curve" smooth="yes"/>
      <point x="84" y="9"/>
      <point x="62" y="88"/>
      <point x="62" y="186" type="curve" smooth="yes"/>
      <point x="62" y="345"/>
      <point x="117" y="510"/>
      <point x="214" y="510" type="curve" smooth="yes"/>
      <point x="266" y="510"/>
      <point x="306" y="464"/>
      <point x="319" y="380" type="curve"/>
      <point x="329" y="399" type="line"/>
      <point x="315" y="480"/>
      <point x="270" y="528"/>
      <point x="214" y="528" type="curve" smooth="yes"/>
      <point x="97" y="528"/>
      <point x="25" y="356"/>
      <point x="25" y="188" type="curve" smooth="yes"/>
      <point x="25" y="76"/>
      <point x="60" y="-10"/>
    </contour>
    <contour>
      <point x="315" y="-7" type="curve" smooth="yes"/>
      <point x="333" y="-7"/>
      <point x="351" y="2"/>
      <point x="359" y="11" type="curve"/>
      <point x="361" y="27" type="line"/>
      <point x="355" y="23"/>
      <point x="338" y="13"/>
      <point x="323" y="13" type="curve" smooth="yes"/>
      <point x="303" y="13"/>
      <point x="295" y="25"/>
      <point x="295" y="57" type="curve" smooth="yes"/>
      <point x="295" y="83"/>
      <point x="301" y="130"/>
      <point x="307" y="174" type="curve" smooth="yes"/>
      <point x="378" y="750" type="line"/>
      <point x="288" y="750" type="line"/>
      <point x="286" y="735" type="line"/>
      <point x="304" y="732" type="line" smooth="yes"/>
      <point x="329" y="728"/>
      <point x="338" y="723"/>
      <point x="336" y="703" type="curve"/>
      <point x="271" y="171" type="line"/>
      <point x="272" y="168" type="line"/>
      <point x="267" y="123"/>
      <point x="263" y="88"/>
      <point x="263" y="62" type="curve" smooth="yes"/>
      <point x="263" y="13"/>
      <point x="283" y="-7"/>
    </contour>
  </outline>
</glyph>
<glyph name="e" format="2">
  <advance width="316"/>
  <unicode hex="0065"/>
  <anchor x="158" y="518" name="top"/>
  <anchor x="288" y="1" name="right"/>
  <anchor x="176" y="0" name="bottom"/>
  <outline>
    <contour>
      <point x="162" y="-10" type="curve" smooth="yes"/>
      <point x="225" y="-10"/>
      <point x="268" y="41"/>
      <point x="294" y="111" type="curve"/>
      <point x="283" y="121" type="line"/>
      <point x="256" y="49"/>
      <point x="218" y="8"/>
      <point x="164" y="8" type="curve" smooth="yes"/>
      <point x="104" y="8"/>
      <point x="63" y="82"/>
      <point x="63" y="212" type="curve" smooth="yes"/>
      <point x="63" y="379"/>
      <point x="127" y="511"/>
      <point x="215" y="511" type="curve" smooth="yes"/>
      <point x="255" y="511"/>
      <point x="276" y="474"/>
      <point x="276" y="430" type="curve" smooth="yes"/>
      <point x="276" y="340"/>
      <point x="194" y="290"/>
      <point x="51" y="235" type="curve"/>
      <point x="48" y="219" type="line"/>
      <point x="216" y="280"/>
      <point x="309" y="342"/>
      <point x="309" y="434" type="curve" smooth="yes"/>
      <point x="309" y="483"/>
      <point x="275" y="528"/>
      <point x="215" y="528" type="curve" smooth="yes"/>
      <point x="100" y="528"/>
      <point x="26" y="373"/>
      <point x="26" y="214" type="curve" smooth="yes"/>
      <point x="26" y="73"/>
      <point x="85" y="-10"/>
    </contour>
  </outline>
</glyph>
<glyph name="f" format="2">
  <advance width="203"/>
  <unicode hex="0066"/>
  <outline>
    <contour>
      <point x="41" y="518" type="line"/>
      <point x="39" y="501" type="line"/>
      <point x="212" y="501" type="line"/>
      <point x="215" y="518" type="line"/>
    </contour>
    <contour>
      <point x="221" y="741" type="curve" smooth="yes"/>
      <point x="245" y="741"/>
      <point x="262" y="728"/>
      <point x="271" y="719" type="curve"/>
      <point x="274" y="741" type="line"/>
      <point x="259" y="752"/>
      <point x="242" y="758"/>
      <point x="221" y="758" type="curve" smooth="yes"/>
      <point x="160" y="758"/>
      <point x="114" y="704"/>
      <point x="105" y="611" type="curve" smooth="yes"/>
      <point x="25" y="-223" type="line"/>
      <point x="54" y="-223" type="line"/>
      <point x="139" y="608" type="line" smooth="yes"/>
      <point x="148" y="697"/>
      <point x="175" y="741"/>
    </contour>
  </outline>
</glyph>
<glyph name="g" format="2">
  <advance width="368"/>
  <unicode hex="0067"/>
  <anchor x="178" y="518" name="top"/>
  <outline>
    <contour>
      <point x="133" y="-10" type="curve" smooth="yes"/>
      <point x="203" y="-10"/>
      <point x="248" y="77"/>
      <point x="293" y="212" type="curve"/>
      <point x="286" y="230" type="line"/>
      <point x="244" y="104"/>
      <point x="199" y="9"/>
      <point x="137" y="9" type="curve" smooth="yes"/>
      <point x="84" y="9"/>
      <point x="62" y="87"/>
      <point x="62" y="184" type="curve" smooth="yes"/>
      <point x="62" y="343"/>
      <point x="117" y="510"/>
      <point x="215" y="510" type="curve" smooth="yes"/>
      <point x="266" y="510"/>
      <point x="305" y="464"/>
      <point x="320" y="380" type="curve"/>
      <point x="328" y="399" type="line"/>
      <point x="314" y="481"/>
      <point x="271" y="528"/>
      <point x="215" y="528" type="curve" smooth="yes"/>
      <point x="97" y="528"/>
      <point x="25" y="355"/>
      <point x="25" y="185" type="curve" smooth="yes"/>
      <point x="25" y="75"/>
      <point x="60" y="-10"/>
    </contour>
    <contour>
      <point x="250" y="-10" type="line" smooth="yes"/>
      <point x="234" y="-148"/>
      <point x="194" y="-215"/>
      <point x="118" y="-215" type="curve" smooth="yes"/>
      <point x="66" y="-215"/>
      <point x="22" y="-182"/>
      <point x="14" y="-142" type="curve"/>
      <point x="10" y="-168"/>
      <point x="17" y="-176"/>
      <point x="27" y="-177" type="curve"/>
      <point x="36" y="-98" type="line"/>
      <point x="-1" y="-98" type="line"/>
      <point x="-9" y="-159" type="line"/>
      <point x="10" y="-194"/>
      <point x="57" y="-232"/>
      <point x="118" y="-232" type="curve" smooth="yes"/>
      <point x="214" y="-232"/>
      <point x="267" y="-153"/>
      <point x="285" y="-12" type="curve" smooth="yes"/>
      <point x="348" y="521" type="line"/>
      <point x="335" y="521" type="line"/>
      <point x="310" y="445" type="line"/>
      <point x="305" y="440" type="line"/>
    </contour>
  </outline>
</glyph>
<glyph name="l" format="2">
  <advance width="166"/>
  <unicode hex="006C"/>
  <anchor x="80" y="746" name="top"/>
  <anchor x="164" y="735" name="right"/>
  <anchor x="208" y="391" name="mid"/>
  <anchor x="82" y="0" name="bottom"/>
  <outline>
    <contour>
      <point x="90" y="174" type="curve" smooth="yes"/>
      <point x="161" y="750" type="line"/>
      <point x="72" y="750" type="line"/>
      <point x="70" y="735" type="line"/>
      <point x="86" y="733" type="line" smooth="yes"/>
      <point x="112" y="728"/>
      <point x="122" y="723"/>
      <point x="119" y="703" type="curve" smooth="yes"/>
      <point x="57" y="193" type="line" smooth="yes"/>
      <point x="51" y="135"/>
      <point x="45" y="91"/>
      <point x="45" y="62" type="curve" smooth="yes"/>
      <point x="45" y="13"/>
      <point x="67" y="-7"/>
      <point x="98" y="-7" type="curve" smooth="yes"/>
      <point x="116" y="-7"/>
      <point x="134" y="2"/>
      <point x="141" y="11" type="curve"/>
      <point x="144" y="27" type="line"/>
      <point x="138" y="23"/>
      <point x="121" y="13"/>
      <point x="106" y="13" type="curve" smooth="yes"/>
      <point x="86" y="13"/>
      <point x="79" y="25"/>
      <point x="79" y="57" type="curve" smooth="yes"/>
      <point x="79" y="83"/>
      <point x="85" y="130"/>
    </contour>
  </outline>
</glyph>
<glyph name="m" format="2">
  <advance width="577"/>
  <unicode hex="006D"/>
  <anchor x="290" y="-10" name="bottom"/>
  <outline>
    <contour>
      <point x="37" y="0" type="line"/>
      <point x="94" y="471" type="line" smooth="yes"/>
      <point x="97" y="491"/>
      <point x="87" y="496"/>
      <point x="61" y="501" type="curve" smooth="yes"/>
      <point x="44" y="503" type="line"/>
      <point x="47" y="518" type="line"/>
      <point x="134" y="518" type="line"/>
      <point x="115" y="360" type="line"/>
      <point x="115" y="353" type="line"/>
      <point x="72" y="0" type="line"/>
    </contour>
    <contour>
      <point x="500" y="175" type="line" smooth="yes"/>
      <point x="494" y="131"/>
      <point x="488" y="83"/>
      <point x="488" y="57" type="curve" smooth="yes"/>
      <point x="488" y="25"/>
      <point x="496" y="13"/>
      <point x="516" y="13" type="curve" smooth="yes"/>
      <point x="531" y="13"/>
      <point x="548" y="23"/>
      <point x="554" y="27" type="curve"/>
      <point x="551" y="11" type="line"/>
      <point x="544" y="2"/>
      <point x="526" y="-7"/>
      <point x="507" y="-7" type="curve" smooth="yes"/>
      <point x="477" y="-7"/>
      <point x="455" y="13"/>
      <point x="455" y="62" type="curve" smooth="yes"/>
      <point x="455" y="91"/>
      <point x="460" y="136"/>
      <point x="467" y="194" type="curve" smooth="yes"/>
      <point x="487" y="329" type="line" smooth="yes"/>
      <point x="491" y="364"/>
      <point x="496" y="395"/>
      <point x="496" y="429" type="curve" smooth="yes"/>
      <point x="496" y="482"/>
      <point x="482" y="507"/>
      <point x="451" y="507" type="curve" smooth="yes"/>
      <point x="399" y="507"/>
      <point x="354" y="424"/>
      <point x="305" y="302" type="curve"/>
      <point x="298" y="316" type="line"/>
      <point x="347" y="445"/>
      <point x="395" y="528"/>
      <point x="458" y="528" type="curve" smooth="yes"/>
      <point x="504" y="528"/>
      <point x="530" y="486"/>
      <point x="530" y="426" type="curve" smooth="yes"/>
      <point x="530" y="394"/>
      <point x="525" y="360"/>
      <point x="522" y="326" type="curve" smooth="yes"/>
    </contour>
    <contour>
      <point x="241" y="0" type="line"/>
      <point x="283" y="329" type="line" smooth="yes"/>
      <point x="288" y="364"/>
      <point x="291" y="395"/>
      <point x="291" y="429" type="curve" smooth="yes"/>
      <point x="291" y="482"/>
      <point x="277" y="507"/>
      <point x="247" y="507" type="curve" smooth="yes"/>
      <point x="195" y="507"/>
      <point x="150" y="424"/>
      <point x="101" y="302" type="curve"/>
      <point x="95" y="316" type="line"/>
      <point x="143" y="445"/>
      <point x="192" y="528"/>
      <point x="254" y="528" type="curve" smooth="yes"/>
      <point x="300" y="528"/>
      <point x="326" y="486"/>
      <point x="326" y="426" type="curve" smooth="yes"/>
      <point x="326" y="394"/>
      <point x="321" y="360"/>
      <point x="318" y="326" type="curve" smooth="yes"/>
      <point x="275" y="0" type="line"/>
    </contour>
  </outline>
</glyph>
<glyph name="q" format="2">
  <advance width="368"/>
  <unicode hex="0071"/>
  <outline>
    <contour>
      <point x="158" y="-223" type="line"/>
      <point x="314" y="-223" type="line"/>
      <point x="316" y="-208" type="line"/>
      <point x="315" y="-208" type="line"/>
      <point x="282" y="-208"/>
      <point x="262" y="-203"/>
      <point x="265" y="-183" type="curve" smooth="yes"/>
      <point x="348" y="521" type="line"/>
      <point x="335" y="521" type="line"/>
      <point x="308" y="443" type="line"/>
      <point x="304" y="438" type="line"/>
      <point x="227" y="-197" type="line" smooth="yes"/>
      <point x="227" y="-204"/>
      <point x="196" y="-208"/>
      <point x="178" y="-208" type="curve" smooth="yes"/>
      <point x="160" y="-208" type="line"/>
    </contour>
    <contour>
      <point x="25" y="188" type="curve" smooth="yes"/>
      <point x="25" y="76"/>
      <point x="60" y="-10"/>
      <point x="133" y="-10" type="curve" smooth="yes"/>
      <point x="202" y="-10"/>
      <point x="248" y="76"/>
      <point x="292" y="211" type="curve"/>
      <point x="286" y="228" type="line"/>
      <point x="243" y="103"/>
      <point x="199" y="9"/>
      <point x="136" y="9" type="curve" smooth="yes"/>
      <point x="84" y="9"/>
      <point x="62" y="88"/>
      <point x="62" y="186" type="curve" smooth="yes"/>
      <point x="62" y="345"/>
      <point x="117" y="510"/>
      <point x="214" y="510" type="curve" smooth="yes"/>
      <point x="267" y="510"/>
      <point x="306" y="464"/>
      <point x="320" y="379" type="curve"/>
      <point x="328" y="398" type="line"/>
      <point x="315" y="480"/>
      <point x="271" y="528"/>
      <point x="214" y="528" type="curve" smooth="yes"/>
      <point x="97" y="528"/>
      <point x="25" y="356"/>
    </contour>
  </outline>
</glyph>
<glyph name="v" format="2">
  <advance width="327"/>
  <unicode hex="0076"/>
  <outline>
    <contour>
      <point x="99" y="518" type="line"/>
      <point x="136" y="14" type="line"/>
      <point x="126" y="17" type="line"/>
      <point x="207" y="131"/>
      <point x="287" y="325"/>
      <point x="290" y="518" type="curve"/>
      <point x="326" y="518" type="line"/>
      <point x="326" y="518" type="line"/>
      <point x="304" y="313"/>
      <point x="217" y="115"/>
      <point x="132" y="0" type="curve"/>
      <point x="105" y="0" type="line"/>
      <point x="70" y="460" type="line" smooth="yes"/>
      <point x="68" y="487"/>
      <point x="62" y="496"/>
      <point x="29" y="501" type="curve" smooth="yes"/>
      <point x="17" y="503" type="line"/>
      <point x="19" y="518" type="line"/>
    </contour>
  </outline>
</glyph>
<glyph name="w" format="2">
  <advance width="504"/>
  <unicode hex="0077"/>
  <anchor x="253" y="518" name="top"/>
  <outline>
    <contour>
      <point x="267" y="518" type="line"/>
      <point x="248" y="322"/>
      <point x="181" y="136"/>
      <point x="124" y="17" type="curve"/>
      <point x="135" y="23" type="line"/>
      <point x="99" y="518" type="line"/>
      <point x="19" y="518" type="line"/>
      <point x="17" y="503" type="line"/>
      <point x="29" y="501" type="line" smooth="yes"/>
      <point x="62" y="496"/>
      <point x="68" y="487"/>
      <point x="70" y="460" type="curve" smooth="yes"/>
      <point x="104" y="0" type="line"/>
      <point x="130" y="0" type="line"/>
      <point x="184" y="105"/>
      <point x="246" y="276"/>
      <point x="277" y="462" type="curve"/>
      <point x="271" y="456" type="line"/>
      <point x="303" y="0" type="line"/>
      <point x="329" y="0" type="line"/>
      <point x="405" y="114"/>
      <point x="482" y="312"/>
      <point x="504" y="518" type="curve"/>
      <point x="504" y="518" type="line"/>
      <point x="468" y="518" type="line"/>
      <point x="464" y="324"/>
      <point x="395" y="128"/>
      <point x="323" y="17" type="curve"/>
      <point x="333" y="18" type="line"/>
      <point x="299" y="518" type="line"/>
    </contour>
  </outline>
</glyph>
<glyph name="braceleft" format="2">
  <advance width="209"/>
  <unicode hex="007B"/>
  <outline>
    <contour>
      <point x="149" y="245" type="curve" smooth="yes"/>
      <point x="149" y="264"/>
      <point x="133" y="272"/>
      <point x="67" y="310" type="curve"/>
      <point x="67" y="312" type="line"/>
      <point x="150" y="339"/>
      <point x="163" y="345"/>
      <point x="163" y="369" type="curve" smooth="yes"/>
      <point x="163" y="403"/>
      <point x="119" y="518"/>
      <point x="119" y="602" type="curve" smooth="yes"/>
      <point x="119" y="690"/>
      <point x="157" y="736"/>
      <point x="226" y="737" type="curve" smooth="yes"/>
      <point x="231" y="737"/>
      <point x="238" y="736"/>
      <point x="245" y="735" type="curve"/>
      <point x="243" y="750" type="line"/>
      <point x="237" y="751"/>
      <point x="230" y="752"/>
      <point x="223" y="752" type="curve" smooth="yes"/>
      <point x="146" y="752"/>
      <point x="90" y="705"/>
      <point x="90" y="604" type="curve" smooth="yes"/>
      <point x="90" y="531"/>
      <point x="120" y="451"/>
      <point x="147" y="352" type="curve"/>
      <point x="151" y="364" type="line"/>
      <point x="42" y="320" type="line"/>
      <point x="41" y="307" type="line"/>
      <point x="136" y="246" type="line"/>
      <point x="137" y="257" type="line"/>
      <point x="77" y="149"/>
      <point x="17" y="67"/>
      <point x="17" y="-18" type="curve" smooth="yes"/>
      <point x="17" y="-98"/>
      <point x="63" y="-143"/>
      <point x="147" y="-144" type="curve"/>
      <point x="147" y="-144" type="line"/>
      <point x="151" y="-129" type="line"/>
      <point x="151" y="-129" type="line"/>
      <point x="72" y="-125"/>
      <point x="46" y="-85"/>
      <point x="46" y="-16" type="curve" smooth="yes"/>
      <point x="46" y="82"/>
      <point x="149" y="216"/>
    </contour>
  </outline>
</glyph>
<glyph name="asciitilde" format="2">
  <advance width="367"/>
  <unicode hex="007E"/>
  <outline>
    <contour>
      <point x="127" y="390" type="curve" smooth="yes"/>
      <point x="83" y="390"/>
      <point x="59" y="336"/>
      <point x="50" y="281" type="curve"/>
      <point x="61" y="276" type="line"/>
      <point x="69" y="318"/>
      <point x="84" y="358"/>
      <point x="117" y="358" type="curve" smooth="yes"/>
      <point x="161" y="358"/>
      <point x="190" y="269"/>
      <point x="241" y="269" type="curve" smooth="yes"/>
      <point x="284" y="269"/>
      <point x="303" y="325"/>
      <point x="317" y="381" type="curve"/>
      <point x="307" y="387" type="line"/>
      <point x="295" y="349"/>
      <point x="282" y="302"/>
      <point x="249" y="302" type="curve" smooth="yes"/>
      <point x="208" y="302"/>
      <point x="181" y="390"/>
    </contour>
  </outline>
</glyph>
<glyph name="yen" format="2">
  <advance width="384"/>
  <unicode hex="00A5"/>
  <outline>
    <contour>
      <point x="37" y="208" type="line"/>
      <point x="35" y="191" type="line"/>
      <point x="314" y="191" type="line"/>
      <point x="316" y="208" type="line"/>
    </contour>
    <contour>
      <point x="54" y="344" type="line"/>
      <point x="51" y="327" type="line"/>
      <point x="330" y="327" type="line"/>
      <point x="333" y="344" type="line"/>
    </contour>
    <contour>
      <point x="177" y="351" type="line"/>
      <point x="140" y="43" type="line" smooth="yes"/>
      <point x="137" y="21"/>
      <point x="112" y="15"/>
      <point x="81" y="15" type="curve" smooth="yes"/>
      <point x="71" y="15" type="line"/>
      <point x="69" y="0" type="line"/>
      <point x="235" y="0" type="line"/>
      <point x="238" y="15" type="line"/>
      <point x="226" y="15" type="line" smooth="yes"/>
      <point x="195" y="15"/>
      <point x="173" y="21"/>
      <point x="176" y="43" type="curve" smooth="yes"/>
      <point x="212" y="351" type="line"/>
    </contour>
    <contour>
      <point x="200" y="315" type="line"/>
      <point x="362" y="659" type="line" smooth="yes"/>
      <point x="378" y="690"/>
      <point x="396" y="695"/>
      <point x="416" y="695" type="curve" smooth="yes"/>
      <point x="419" y="695" type="line"/>
      <point x="421" y="710" type="line"/>
      <point x="297" y="710" type="line"/>
      <point x="295" y="695" type="line"/>
      <point x="307" y="695" type="line" smooth="yes"/>
      <point x="336" y="695"/>
      <point x="353" y="686"/>
      <point x="353" y="673" type="curve"/>
      <point x="194" y="336" type="line"/>
      <point x="207" y="347" type="line"/>
      <point x="127" y="684" type="line"/>
      <point x="128" y="691"/>
      <point x="159" y="695"/>
      <point x="182" y="695" type="curve" smooth="yes"/>
      <point x="193" y="695" type="line"/>
      <point x="195" y="710" type="line"/>
      <point x="51" y="710" type="line"/>
      <point x="50" y="695" type="line"/>
      <point x="53" y="695" type="line" smooth="yes"/>
      <point x="73" y="695"/>
      <point x="88" y="693"/>
      <point x="93" y="673" type="curve" smooth="yes"/>
      <point x="180" y="314" type="line"/>
    </contour>
  </outline>
</glyph>
<glyph name="brokenbar" format="2">
  <advance width="178"/>
  <unicode hex="00A6"/>
  <outline>
    <contour>
      <point x="82" y="746" type="line"/>
      <point x="82" y="376" type="line"/>
      <point x="96" y="376" type="line"/>
      <point x="96" y="746" type="line"/>
    </contour>
    <contour>
      <point x="82" y="240" type="line"/>
      <point x="82" y="-130" type="line"/>
      <point x="96" y="-130" type="line"/>
      <point x="96" y="240" type="line"/>
    </contour>
  </outline>
</glyph>
<glyph name="copyright" format="2">
  <advance width="576"/>
  <unicode hex="00A9"/>
  <outline>
    <contour>
      <point x="300" y="546" type="curve" smooth="yes"/>
      <point x="349" y="546"/>
      <point x="379" y="505"/>
      <point x="394" y="445" type="curve"/>
      <point x="406" y="445" type="line"/>
      <point x="406" y="552" type="line"/>
      <point x="395" y="552" type="line"/>
      <point x="389" y="481" type="line"/>
      <point x="396" y="470" type="line"/>
      <point x="383" y="528"/>
      <point x="344" y="563"/>
      <point x="299" y="563" type="curve" smooth="yes"/>
      <point x="216" y="563"/>
      <point x="160" y="476"/>
      <point x="160" y="354" type="curve" smooth="yes"/>
      <point x="160" y="231"/>
      <point x="219" y="147"/>
      <point x="298" y="147" type="curve" smooth="yes"/>
      <point x="359" y="147"/>
      <point x="404" y="204"/>
      <point x="415" y="274" type="curve"/>
      <point x="404" y="281" type="line"/>
      <point x="391" y="212"/>
      <point x="355" y="164"/>
      <point x="301" y="164" type="curve" smooth="yes"/>
      <point x="233" y="164"/>
      <point x="195" y="238"/>
      <point x="195" y="354" type="curve" smooth="yes"/>
      <point x="195" y="473"/>
      <point x="232" y="546"/>
    </contour>
    <contour>
      <point x="47" y="355" type="curve" smooth="yes"/>
      <point x="47" y="562"/>
      <point x="150" y="720"/>
      <point x="291" y="720" type="curve" smooth="yes"/>
      <point x="433" y="720"/>
      <point x="535" y="562"/>
      <point x="535" y="355" type="curve" smooth="yes"/>
      <point x="535" y="148"/>
      <point x="433" y="-10"/>
      <point x="291" y="-10" type="curve" smooth="yes"/>
      <point x="150" y="-10"/>
      <point x="47" y="148"/>
    </contour>
    <contour>
      <point x="31" y="355" type="curve" smooth="yes"/>
      <point x="31" y="138"/>
      <point x="144" y="-28"/>
      <point x="291" y="-28" type="curve" smooth="yes"/>
      <point x="439" y="-28"/>
      <point x="551" y="138"/>
      <point x="551" y="355" type="curve" smooth="yes"/>
      <point x="551" y="572"/>
      <point x="439" y="738"/>
      <point x="291" y="738" type="curve" smooth="yes"/>
      <point x="144" y="738"/>
      <point x="31" y="572"/>
    </contour>
  </outline>
</glyph>
<glyph name="ordfeminine" format="2">
  <advance width="318"/>
  <unicode hex="00AA"/>
  <outline>
    <contour>
      <point x="267" y="322" type="curve" smooth="yes"/>
      <point x="282" y="322"/>
      <point x="297" y="330"/>
      <point x="303" y="338" type="curve"/>
      <point x="305" y="352" type="line"/>
      <point x="300" y="348"/>
      <point x="289" y="339"/>
      <point x="276" y="339" type="curve" smooth="yes"/>
      <point x="263" y="339"/>
      <point x="256" y="348"/>
      <point x="256" y="367" type="curve" smooth="yes"/>
      <point x="256" y="385"/>
      <point x="258" y="407"/>
      <point x="261" y="430" type="curve" smooth="yes"/>
      <point x="296" y="714" type="line"/>
      <point x="282" y="714" type="line"/>
      <point x="259" y="653" type="line"/>
      <point x="255" y="648" type="line"/>
      <point x="232" y="455" type="line"/>
      <point x="232" y="453" type="line"/>
      <point x="228" y="429"/>
      <point x="224" y="392"/>
      <point x="224" y="373" type="curve" smooth="yes"/>
      <point x="224" y="337"/>
      <point x="241" y="322"/>
    </contour>
    <contour>
      <point x="131" y="319" type="curve" smooth="yes"/>
      <point x="184" y="319"/>
      <point x="215" y="387"/>
      <point x="250" y="490" type="curve"/>
      <point x="244" y="504" type="line"/>
      <point x="213" y="409"/>
      <point x="180" y="335"/>
      <point x="136" y="335" type="curve" smooth="yes"/>
      <point x="105" y="335"/>
      <point x="89" y="381"/>
      <point x="89" y="459" type="curve" smooth="yes"/>
      <point x="89" y="573"/>
      <point x="128" y="705"/>
      <point x="195" y="705" type="curve" smooth="yes"/>
      <point x="229" y="705"/>
      <point x="255" y="669"/>
      <point x="264" y="603" type="curve"/>
      <point x="272" y="617" type="line"/>
      <point x="263" y="683"/>
      <point x="233" y="720"/>
      <point x="194" y="720" type="curve" smooth="yes"/>
      <point x="108" y="720"/>
      <point x="54" y="583"/>
      <point x="54" y="460" type="curve" smooth="yes"/>
      <point x="54" y="373"/>
      <point x="83" y="319"/>
    </contour>
  </outline>
</glyph>
<glyph name="degree" format="2">
  <advance width="282"/>
  <unicode hex="00B0"/>
  <outline>
    <contour>
      <point x="143" y="472" type="curve" smooth="yes"/>
      <point x="96" y="472"/>
      <point x="60" y="519"/>
      <point x="60" y="591" type="curve" smooth="yes"/>
      <point x="60" y="663"/>
      <point x="96" y="711"/>
      <point x="143" y="711" type="curve" smooth="yes"/>
      <point x="190" y="711"/>
      <point x="227" y="663"/>
      <point x="227" y="591" type="curve" smooth="yes"/>
      <point x="227" y="519"/>
      <point x="190" y="472"/>
    </contour>
    <contour>
      <point x="143" y="453" type="curve" smooth="yes"/>
      <point x="200" y="453"/>
      <point x="244" y="509"/>
      <point x="244" y="591" type="curve" smooth="yes"/>
      <point x="244" y="673"/>
      <point x="200" y="729"/>
      <point x="143" y="729" type="curve" smooth="yes"/>
      <point x="87" y="729"/>
      <point x="43" y="673"/>
      <point x="43" y="591" type="curve" smooth="yes"/>
      <point x="43" y="509"/>
      <point x="87" y="453"/>
    </contour>
  </outline>
</glyph>
<glyph name="ordmasculine" format="2">
  <advance width="322"/>
  <unicode hex="00BA"/>
  <outline>
    <contour>
      <point x="168" y="319" type="curve" smooth="yes"/>
      <point x="249" y="319"/>
      <point x="307" y="416"/>
      <point x="307" y="544" type="curve" smooth="yes"/>
      <point x="307" y="651"/>
      <point x="259" y="720"/>
      <point x="193" y="720" type="curve" smooth="yes"/>
      <point x="111" y="720"/>
      <point x="54" y="622"/>
      <point x="54" y="494" type="curve" smooth="yes"/>
      <point x="54" y="388"/>
      <point x="101" y="319"/>
    </contour>
    <contour>
      <point x="193" y="705" type="curve" smooth="yes"/>
      <point x="241" y="705"/>
      <point x="272" y="651"/>
      <point x="272" y="547" type="curve" smooth="yes"/>
      <point x="272" y="515"/>
      <point x="269" y="485"/>
      <point x="263" y="458" type="curve" smooth="yes"/>
      <point x="249" y="386"/>
      <point x="216" y="334"/>
      <point x="168" y="334" type="curve" smooth="yes"/>
      <point x="119" y="334"/>
      <point x="89" y="389"/>
      <point x="89" y="491" type="curve" smooth="yes"/>
      <point x="89" y="523"/>
      <point x="92" y="553"/>
      <point x="98" y="580" type="curve" smooth="yes"/>
      <point x="112" y="653"/>
      <point x="145" y="705"/>
    </contour>
  </outline>
</glyph>
<glyph name="AE" format="2">
  <advance width="645"/>
  <unicode hex="00C6"/>
  <anchor x="444" y="741" name="top"/>
  <outline>
    <contour>
      <point x="151" y="289" type="line"/>
      <point x="142" y="271" type="line"/>
      <point x="332" y="271" type="line"/>
      <point x="336" y="289" type="line"/>
    </contour>
    <contour>
      <point x="360" y="372" type="curve"/>
      <point x="358" y="356" type="line"/>
      <point x="450" y="354"/>
      <point x="494" y="353"/>
      <point x="535" y="346" type="curve"/>
      <point x="539" y="383" type="line"/>
      <point x="496" y="375"/>
      <point x="453" y="374"/>
    </contour>
    <contour>
      <point x="-40" y="0" type="line"/>
      <point x="79" y="0" type="line"/>
      <point x="82" y="15" type="line"/>
      <point x="72" y="15" type="line" smooth="yes"/>
      <point x="40" y="15"/>
      <point x="24" y="21"/>
      <point x="25" y="38" type="curve"/>
      <point x="375" y="689" type="line"/>
      <point x="375" y="689" type="line"/>
      <point x="297" y="42" type="line" smooth="yes"/>
      <point x="295" y="21"/>
      <point x="271" y="15"/>
      <point x="242" y="15" type="curve" smooth="yes"/>
      <point x="236" y="15" type="line"/>
      <point x="233" y="0" type="line"/>
      <point x="568" y="0" type="line"/>
      <point x="590" y="178" type="line"/>
      <point x="577" y="178" type="line"/>
      <point x="553" y="55" type="line" smooth="yes"/>
      <point x="545" y="24"/>
      <point x="525" y="18"/>
      <point x="463" y="18" type="curve" smooth="yes"/>
      <point x="330" y="18" type="line"/>
      <point x="410" y="692" type="line"/>
      <point x="536" y="692" type="line" smooth="yes"/>
      <point x="589" y="692"/>
      <point x="605" y="686"/>
      <point x="604" y="658" type="curve"/>
      <point x="600" y="557" type="line"/>
      <point x="613" y="557" type="line"/>
      <point x="632" y="710" type="line"/>
      <point x="285" y="710" type="line"/>
      <point x="282" y="695" type="line"/>
      <point x="291" y="695" type="line" smooth="yes"/>
      <point x="326" y="695"/>
      <point x="351" y="689"/>
      <point x="350" y="676" type="curve"/>
      <point x="24" y="73" type="line"/>
      <point x="-1" y="29"/>
      <point x="-13" y="15"/>
      <point x="-35" y="15" type="curve" smooth="yes"/>
      <point x="-38" y="15" type="line"/>
    </contour>
  </outline>
</glyph>
<glyph name="Oslash" format="2">
  <advance width="502"/>
  <unicode hex="00D8"/>
  <anchor x="254" y="731" name="top"/>
  <outline>
    <contour>
      <point x="-11" y="-10" type="line"/>
      <point x="10" y="-10" type="line"/>
      <point x="500" y="720" type="line"/>
      <point x="479" y="720" type="line"/>
    </contour>
    <contour>
      <point x="233" y="-10" type="curve" smooth="yes"/>
      <point x="381" y="-10"/>
      <point x="482" y="185"/>
      <point x="482" y="389" type="curve" smooth="yes"/>
      <point x="482" y="567"/>
      <point x="403" y="720"/>
      <point x="274" y="720" type="curve" smooth="yes"/>
      <point x="126" y="720"/>
      <point x="27" y="525"/>
      <point x="27" y="321" type="curve" smooth="yes"/>
      <point x="27" y="146"/>
      <point x="105" y="-10"/>
    </contour>
    <contour>
      <point x="233" y="9" type="curve" smooth="yes"/>
      <point x="121" y="9"/>
      <point x="65" y="152"/>
      <point x="65" y="317" type="curve" smooth="yes"/>
      <point x="65" y="346"/>
      <point x="66" y="375"/>
      <point x="69" y="404" type="curve" smooth="yes"/>
      <point x="89" y="564"/>
      <point x="162" y="701"/>
      <point x="274" y="701" type="curve" smooth="yes"/>
      <point x="386" y="701"/>
      <point x="444" y="560"/>
      <point x="444" y="393" type="curve" smooth="yes"/>
      <point x="444" y="363"/>
      <point x="441" y="334"/>
      <point x="438" y="304" type="curve" smooth="yes"/>
      <point x="418" y="145"/>
      <point x="346" y="9"/>
    </contour>
  </outline>
</glyph>
<glyph name="germandbls" format="2">
  <advance width="361"/>
  <unicode hex="00DF"/>
  <outline>
    <contour>
      <point x="41" y="518" type="line"/>
      <point x="39" y="501" type="line"/>
      <point x="117" y="501" type="line"/>
      <point x="119" y="518" type="line"/>
    </contour>
    <contour>
      <point x="25" y="-223" type="line"/>
      <point x="54" y="-223" type="line"/>
      <point x="139" y="600" type="line" smooth="yes"/>
      <point x="150" y="702"/>
      <point x="182" y="741"/>
      <point x="230" y="741" type="curve" smooth="yes"/>
      <point x="280" y="741"/>
      <point x="305" y="686"/>
      <point x="305" y="618" type="curve" smooth="yes"/>
      <point x="305" y="515"/>
      <point x="256" y="444"/>
      <point x="166" y="431" type="curve"/>
      <point x="164" y="415" type="line"/>
      <point x="250" y="396"/>
      <point x="294" y="305"/>
      <point x="294" y="199" type="curve" smooth="yes"/>
      <point x="294" y="72"/>
      <point x="253" y="7"/>
      <point x="191" y="7" type="curve" smooth="yes"/>
      <point x="153" y="7"/>
      <point x="129" y="28"/>
      <point x="121" y="34" type="curve"/>
      <point x="117" y="14" type="line"/>
      <point x="130" y="4"/>
      <point x="157" y="-10"/>
      <point x="191" y="-10" type="curve" smooth="yes"/>
      <point x="276" y="-10"/>
      <point x="331" y="75"/>
      <point x="331" y="198" type="curve" smooth="yes"/>
      <point x="331" y="311"/>
      <point x="279" y="402"/>
      <point x="188" y="426" type="curve"/>
      <point x="194" y="416" type="line"/>
      <point x="196" y="429" type="line"/>
      <point x="178" y="419" type="line"/>
      <point x="263" y="428"/>
      <point x="338" y="502"/>
      <point x="338" y="616" type="curve" smooth="yes"/>
      <point x="338" y="692"/>
      <point x="303" y="758"/>
      <point x="231" y="758" type="curve" smooth="yes"/>
      <point x="167" y="758"/>
      <point x="116" y="711"/>
      <point x="105" y="602" type="curve" smooth="yes"/>
    </contour>
  </outline>
</glyph>
<glyph name="ae" format="2">
  <advance width="531"/>
  <unicode hex="00E6"/>
  <anchor x="269" y="518" name="top"/>
  <outline>
    <contour>
      <point x="378" y="-10" type="curve" smooth="yes"/>
      <point x="440" y="-10"/>
      <point x="483" y="41"/>
      <point x="509" y="111" type="curve"/>
      <point x="498" y="121" type="line"/>
      <point x="471" y="49"/>
      <point x="433" y="8"/>
      <point x="379" y="8" type="curve" smooth="yes"/>
      <point x="319" y="8"/>
      <point x="278" y="82"/>
      <point x="278" y="212" type="curve" smooth="yes"/>
      <point x="278" y="379"/>
      <point x="342" y="511"/>
      <point x="430" y="511" type="curve" smooth="yes"/>
      <point x="471" y="511"/>
      <point x="491" y="474"/>
      <point x="491" y="430" type="curve" smooth="yes"/>
      <point x="491" y="340"/>
      <point x="409" y="290"/>
      <point x="266" y="235" type="curve"/>
      <point x="263" y="219" type="line"/>
      <point x="431" y="280"/>
      <point x="524" y="342"/>
      <point x="524" y="434" type="curve" smooth="yes"/>
      <point x="524" y="483"/>
      <point x="491" y="528"/>
      <point x="430" y="528" type="curve" smooth="yes"/>
      <point x="355" y="528"/>
      <point x="292" y="447"/>
      <point x="272" y="364" type="curve"/>
      <point x="254" y="299"/>
      <point x="241" y="270"/>
      <point x="241" y="204" type="curve" smooth="yes"/>
      <point x="241" y="73"/>
      <point x="300" y="-10"/>
    </contour>
    <contour>
      <point x="244" y="244" type="line"/>
      <point x="288" y="350" type="line"/>
      <point x="288" y="391" type="line" smooth="yes"/>
      <point x="291" y="475"/>
      <point x="257" y="528"/>
      <point x="182" y="528" type="curve" smooth="yes"/>
      <point x="134" y="528"/>
      <point x="93" y="501"/>
      <point x="73" y="480" type="curve"/>
      <point x="64" y="409" type="line"/>
      <point x="101" y="409" type="line"/>
      <point x="112" y="493" type="line"/>
      <point x="95" y="493"/>
      <point x="84" y="474"/>
      <point x="82" y="455" type="curve"/>
      <point x="103" y="487"/>
      <point x="135" y="511"/>
      <point x="181" y="511" type="curve" smooth="yes"/>
      <point x="232" y="511"/>
      <point x="258" y="471"/>
      <point x="258" y="395" type="curve" smooth="yes"/>
      <point x="258" y="382"/>
      <point x="257" y="369"/>
      <point x="255" y="352" type="curve"/>
    </contour>
    <contour>
      <point x="123" y="-10" type="curve" smooth="yes"/>
      <point x="179" y="-10"/>
      <point x="230" y="42"/>
      <point x="262" y="136" type="curve"/>
      <point x="255" y="153" type="line"/>
      <point x="225" y="59"/>
      <point x="178" y="8"/>
      <point x="127" y="8" type="curve" smooth="yes"/>
      <point x="83" y="8"/>
      <point x="56" y="44"/>
      <point x="56" y="117" type="curve" smooth="yes"/>
      <point x="56" y="227"/>
      <point x="124" y="260"/>
      <point x="262" y="281" type="curve"/>
      <point x="265" y="298" type="line"/>
      <point x="111" y="273"/>
      <point x="20" y="238"/>
      <point x="20" y="112" type="curve" smooth="yes"/>
      <point x="20" y="37"/>
      <point x="62" y="-10"/>
    </contour>
  </outline>
</glyph>
<glyph name="idieresis" format="2">
  <advance width="169"/>
  <unicode hex="00EF"/>
  <outline>
    <contour>
      <point x="55" y="657" type="curve" smooth="yes"/>
      <point x="70" y="657"/>
      <point x="80" y="670"/>
      <point x="80" y="692" type="curve" smooth="yes"/>
      <point x="80" y="714"/>
      <point x="70" y="728"/>
      <point x="55" y="728" type="curve" smooth="yes"/>
      <point x="40" y="728"/>
      <point x="29" y="714"/>
      <point x="29" y="692" type="curve" smooth="yes"/>
      <point x="29" y="670"/>
      <point x="40" y="657"/>
    </contour>
    <contour>
      <point x="167" y="657" type="curve" smooth="yes"/>
      <point x="182" y="657"/>
      <point x="192" y="670"/>
      <point x="192" y="692" type="curve" smooth="yes"/>
      <point x="192" y="714"/>
      <point x="182" y="728"/>
      <point x="167" y="728" type="curve" smooth="yes"/>
      <point x="152" y="728"/>
      <point x="141" y="714"/>
      <point x="141" y="692" type="curve" smooth="yes"/>
      <point x="141" y="670"/>
      <point x="152" y="657"/>
    </contour>
    <component base="dotlessi"/>
  </outline>
</glyph>
<glyph name="divide" format="2">
  <advance width="384"/>
  <unicode hex="00F7"/>
  <outline>
    <contour>
      <point x="239" y="501" type="curve" smooth="yes"/>
      <point x="239" y="524"/>
      <point x="228" y="540"/>
      <point x="211" y="540" type="curve" smooth="yes"/>
      <point x="196" y="540"/>
      <point x="184" y="524"/>
      <point x="184" y="501" type="curve" smooth="yes"/>
      <point x="184" y="477"/>
      <point x="196" y="461"/>
      <point x="211" y="461" type="curve" smooth="yes"/>
      <point x="228" y="461"/>
      <point x="239" y="477"/>
    </contour>
    <contour>
      <point x="202" y="183" type="curve" smooth="yes"/>
      <point x="202" y="207"/>
      <point x="191" y="222"/>
      <point x="174" y="222" type="curve" smooth="yes"/>
      <point x="158" y="222"/>
      <point x="147" y="207"/>
      <point x="147" y="183" type="curve" smooth="yes"/>
      <point x="147" y="159"/>
      <point x="158" y="144"/>
      <point x="174" y="144" type="curve" smooth="yes"/>
      <point x="191" y="144"/>
      <point x="202" y="159"/>
    </contour>
    <component base="minus" xOffset="1"/>
  </outline>
</glyph>
<glyph name="Aogonek" format="2">
  <advance width="444"/>
  <unicode hex="0104"/>
  <outline>
    <contour>
      <point x="273" y="-233" type="curve" smooth="yes"/>
      <point x="231" y="-233"/>
      <point x="207" y="-202"/>
      <point x="207" y="-154" type="curve" smooth="yes"/>
      <point x="207" y="-85"/>
      <point x="261" y="-32"/>
      <point x="344" y="20" type="curve"/>
      <point x="349" y="10" type="line"/>
      <point x="269" y="-47"/>
      <point x="242" y="-94"/>
      <point x="242" y="-154" type="curve" smooth="yes"/>
      <point x="242" y="-193"/>
      <point x="259" y="-216"/>
      <point x="281" y="-216" type="curve" smooth="yes"/>
      <point x="299" y="-216"/>
      <point x="316" y="-202"/>
      <point x="331" y="-178" type="curve"/>
      <point x="337" y="-190" type="line"/>
      <point x="321" y="-218"/>
      <point x="299" y="-233"/>
    </contour>
    <contour>
      <point x="103" y="271" type="line"/>
      <point x="109" y="289" type="line"/>
      <point x="311" y="289" type="line"/>
      <point x="310" y="271" type="line"/>
    </contour>
    <contour>
      <point x="257" y="680" type="line"/>
      <point x="27" y="38" type="line"/>
      <point x="27" y="25"/>
      <point x="43" y="15"/>
      <point x="72" y="15" type="curve" smooth="yes"/>
      <point x="84" y="15" type="line"/>
      <point x="82" y="0" type="line"/>
      <point x="-38" y="0" type="line"/>
      <point x="-35" y="15" type="line"/>
      <point x="-32" y="15" type="line"/>
      <point x="-10" y="15"/>
      <point x="7" y="26"/>
      <point x="18" y="56" type="curve" smooth="yes"/>
      <point x="252" y="710" type="line"/>
      <point x="282" y="710" type="line"/>
      <point x="361" y="44" type="line" smooth="yes"/>
      <point x="364" y="19"/>
      <point x="377" y="15"/>
      <point x="399" y="15" type="curve"/>
      <point x="402" y="15" type="line"/>
      <point x="400" y="0" type="line"/>
      <point x="330" y="0" type="line"/>
      <point x="250" y="683" type="line"/>
    </contour>
  </outline>
</glyph>
<glyph name="eogonek" format="2">
  <advance width="316"/>
  <unicode hex="0119"/>
  <outline>
    <contour>
      <point x="165" y="-233" type="curve" smooth="yes"/>
      <point x="191" y="-233"/>
      <point x="212" y="-217"/>
      <point x="230" y="-190" type="curve"/>
      <point x="224" y="-178" type="line"/>
      <point x="208" y="-201"/>
      <point x="193" y="-216"/>
      <point x="173" y="-216" type="curve" smooth="yes"/>
      <point x="153" y="-216"/>
      <point x="135" y="-193"/>
      <point x="135" y="-156" type="curve" smooth="yes"/>
      <point x="135" y="-93"/>
      <point x="162" y="-55"/>
      <point x="242" y="23" type="curve" smooth="yes"/>
      <point x="264" y="46"/>
      <point x="282" y="76"/>
      <point x="294" y="111" type="curve"/>
      <point x="283" y="121" type="line"/>
      <point x="256" y="49"/>
      <point x="218" y="8"/>
      <point x="164" y="8" type="curve" smooth="yes"/>
      <point x="104" y="8"/>
      <point x="63" y="82"/>
      <point x="63" y="212" type="curve" smooth="yes"/>
      <point x="63" y="379"/>
      <point x="127" y="511"/>
      <point x="215" y="511" type="curve" smooth="yes"/>
      <point x="255" y="511"/>
      <point x="276" y="474"/>
      <point x="276" y="430" type="curve" smooth="yes"/>
      <point x="276" y="340"/>
      <point x="194" y="290"/>
      <point x="51" y="235" type="curve"/>
      <point x="48" y="219" type="line"/>
      <point x="216" y="280"/>
      <point x="309" y="342"/>
      <point x="309" y="434" type="curve" smooth="yes"/>
      <point x="309" y="483"/>
      <point x="275" y="528"/>
      <point x="215" y="528" type="curve" smooth="yes"/>
      <point x="100" y="528"/>
      <point x="26" y="373"/>
      <point x="26" y="214" type="curve" smooth="yes"/>
      <point x="26" y="73"/>
      <point x="85" y="-10"/>
      <point x="162" y="-10" type="curve" smooth="yes"/>
      <point x="180" y="-10"/>
      <point x="198" y="-6"/>
      <point x="213" y="2" type="curve"/>
      <point x="212" y="12" type="line"/>
      <point x="144" y="-49"/>
      <point x="100" y="-93"/>
      <point x="100" y="-156" type="curve" smooth="yes"/>
      <point x="100" y="-203"/>
      <point x="124" y="-233"/>
    </contour>
  </outline>
</glyph>
<glyph name="Hbar" format="2">
  <advance width="514"/>
  <unicode hex="0126"/>
  <outline>
    <contour>
      <point x="115" y="375" type="line"/>
      <point x="113" y="358" type="line"/>
      <point x="414" y="358" type="line"/>
      <point x="416" y="375" type="line"/>
    </contour>
    <contour>
      <point x="46" y="520" type="line"/>
      <point x="509" y="520" type="line"/>
      <point x="512" y="538" type="line"/>
      <point x="49" y="538" type="line"/>
    </contour>
    <contour>
      <point x="-15" y="0" type="line"/>
      <point x="138" y="0" type="line"/>
      <point x="141" y="15" type="line"/>
      <point x="135" y="15" type="line" smooth="yes"/>
      <point x="112" y="15"/>
      <point x="82" y="18"/>
      <point x="82" y="25" type="curve" smooth="yes"/>
      <point x="162" y="685" type="line" smooth="yes"/>
      <point x="163" y="692"/>
      <point x="193" y="695"/>
      <point x="216" y="695" type="curve" smooth="yes"/>
      <point x="222" y="695" type="line"/>
      <point x="224" y="710" type="line"/>
      <point x="71" y="710" type="line"/>
      <point x="69" y="695" type="line"/>
      <point x="76" y="695" type="line" smooth="yes"/>
      <point x="104" y="695"/>
      <point x="128" y="689"/>
      <point x="125" y="668" type="curve" smooth="yes"/>
      <point x="49" y="42" type="line" smooth="yes"/>
      <point x="47" y="20"/>
      <point x="23" y="15"/>
      <point x="-6" y="15" type="curve" smooth="yes"/>
      <point x="-12" y="15" type="line"/>
    </contour>
    <contour>
      <point x="292" y="0" type="line"/>
      <point x="445" y="0" type="line"/>
      <point x="448" y="15" type="line"/>
      <point x="440" y="15" type="line" smooth="yes"/>
      <point x="411" y="15"/>
      <point x="389" y="21"/>
      <point x="391" y="43" type="curve" smooth="yes"/>
      <point x="467" y="667" type="line" smooth="yes"/>
      <point x="469" y="689"/>
      <point x="492" y="695"/>
      <point x="522" y="695" type="curve" smooth="yes"/>
      <point x="529" y="695" type="line"/>
      <point x="532" y="710" type="line"/>
      <point x="378" y="710" type="line"/>
      <point x="376" y="695" type="line"/>
      <point x="382" y="695" type="line" smooth="yes"/>
      <point x="405" y="695"/>
      <point x="435" y="692"/>
      <point x="434" y="685" type="curve" smooth="yes"/>
      <point x="354" y="25" type="line" smooth="yes"/>
      <point x="354" y="18"/>
      <point x="324" y="15"/>
      <point x="301" y="15" type="curve" smooth="yes"/>
      <point x="294" y="15" type="line"/>
    </contour>
  </outline>
</glyph>
<glyph name="imacron" format="2">
  <advance width="168"/>
  <unicode hex="012B"/>
  <outline>
    <contour>
      <point x="40" y="688" type="line"/>
      <point x="37" y="667" type="line"/>
      <point x="187" y="667" type="line"/>
      <point x="190" y="688" type="line"/>
    </contour>
    <component base="dotlessi"/>
  </outline>
</glyph>
<glyph name="Iogonek" format="2">
  <advance width="208"/>
  <unicode hex="012E"/>
  <outline>
    <contour>
      <point x="116" y="14" type="line"/>
      <point x="36" y="-36"/>
      <point x="-15" y="-88"/>
      <point x="-15" y="-154" type="curve" smooth="yes"/>
      <point x="-15" y="-202"/>
      <point x="8" y="-233"/>
      <point x="50" y="-233" type="curve" smooth="yes"/>
      <point x="76" y="-233"/>
      <point x="98" y="-218"/>
      <point x="114" y="-190" type="curve"/>
      <point x="108" y="-178" type="line"/>
      <point x="94" y="-202"/>
      <point x="77" y="-216"/>
      <point x="58" y="-216" type="curve" smooth="yes"/>
      <point x="37" y="-216"/>
      <point x="20" y="-193"/>
      <point x="20" y="-154" type="curve" smooth="yes"/>
      <point x="20" y="-97"/>
      <point x="45" y="-50"/>
      <point x="121" y="3" type="curve"/>
    </contour>
    <component base="I"/>
  </outline>
</glyph>
<glyph name="iogonek" format="2">
  <advance width="168"/>
  <unicode hex="012F"/>
  <outline>
    <contour>
      <point x="133" y="17" type="line"/>
      <point x="56" y="-43"/>
      <point x="6" y="-90"/>
      <point x="6" y="-154" type="curve" smooth="yes"/>
      <point x="6" y="-202"/>
      <point x="30" y="-233"/>
      <point x="71" y="-233" type="curve" smooth="yes"/>
      <point x="98" y="-233"/>
      <point x="119" y="-218"/>
      <point x="136" y="-190" type="curve"/>
      <point x="130" y="-178" type="line"/>
      <point x="115" y="-202"/>
      <point x="98" y="-216"/>
      <point x="80" y="-216" type="curve" smooth="yes"/>
      <point x="58" y="-216"/>
      <point x="42" y="-193"/>
      <point x="42" y="-154" type="curve" smooth="yes"/>
      <point x="42" y="-98"/>
      <point x="65" y="-56"/>
      <point x="141" y="9" type="curve"/>
    </contour>
    <component base="i"/>
  </outline>
</glyph>
<glyph name="dotlessi" format="2">
  <advance width="169"/>
  <unicode hex="0131"/>
  <anchor x="88" y="518" name="top"/>
  <outline>
    <contour>
      <point x="91" y="174" type="curve" smooth="yes"/>
      <point x="134" y="518" type="line"/>
      <point x="45" y="518" type="line"/>
      <point x="43" y="503" type="line"/>
      <point x="59" y="501" type="line" smooth="yes"/>
      <point x="85" y="496"/>
      <point x="96" y="491"/>
      <point x="93" y="471" type="curve"/>
      <point x="59" y="193" type="line" smooth="yes"/>
      <point x="52" y="135"/>
      <point x="47" y="91"/>
      <point x="47" y="62" type="curve" smooth="yes"/>
      <point x="47" y="13"/>
      <point x="68" y="-7"/>
      <point x="100" y="-7" type="curve" smooth="yes"/>
      <point x="117" y="-7"/>
      <point x="136" y="2"/>
      <point x="143" y="11" type="curve"/>
      <point x="146" y="27" type="line"/>
      <point x="140" y="23"/>
      <point x="123" y="13"/>
      <point x="108" y="13" type="curve" smooth="yes"/>
      <point x="88" y="13"/>
      <point x="80" y="25"/>
      <point x="80" y="57" type="curve" smooth="yes"/>
      <point x="80" y="83"/>
      <point x="86" y="130"/>
    </contour>
  </outline>
</glyph>
<glyph name="Ldot" format="2">
  <advance width="385"/>
  <unicode hex="013F"/>
  <outline>
    <contour>
      <point x="226" y="710" type="line"/>
      <point x="71" y="710" type="line"/>
      <point x="69" y="695" type="line"/>
      <point x="76" y="695" type="line" smooth="yes"/>
      <point x="104" y="695"/>
      <point x="128" y="689"/>
      <point x="125" y="668" type="curve" smooth="yes"/>
      <point x="49" y="42" type="line" smooth="yes"/>
      <point x="47" y="21"/>
      <point x="23" y="15"/>
      <point x="-6" y="15" type="curve" smooth="yes"/>
      <point x="-12" y="15" type="line"/>
      <point x="-15" y="0" type="line"/>
      <point x="313" y="0" type="line"/>
      <point x="337" y="194" type="line"/>
      <point x="323" y="194" type="line"/>
      <point x="298" y="65" type="line" smooth="yes"/>
      <point x="290" y="27"/>
      <point x="271" y="18"/>
      <point x="202" y="18" type="curve" smooth="yes"/>
      <point x="82" y="18" type="line"/>
      <point x="161" y="671" type="line" smooth="yes"/>
      <point x="163" y="690"/>
      <point x="187" y="695"/>
      <point x="217" y="695" type="curve" smooth="yes"/>
      <point x="224" y="695" type="line"/>
    </contour>
    <component base="periodcentered" xOffset="212" yOffset="57"/>
  </outline>
</glyph>
<glyph name="eng" format="2">
  <advance width="371"/>
  <unicode hex="014B"/>
  <outline>
    <contour>
      <point x="236" y="-106" type="line" smooth="yes"/>
      <point x="225" y="-191"/>
      <point x="205" y="-227"/>
      <point x="170" y="-227" type="curve" smooth="yes"/>
      <point x="147" y="-227"/>
      <point x="131" y="-219"/>
      <point x="121" y="-212" type="curve"/>
      <point x="118" y="-230" type="line"/>
      <point x="128" y="-235"/>
      <point x="147" y="-245"/>
      <point x="170" y="-245" type="curve" smooth="yes"/>
      <point x="217" y="-245"/>
      <point x="257" y="-215"/>
      <point x="271" y="-104" type="curve" smooth="yes"/>
      <point x="324" y="326" type="line" smooth="yes"/>
      <point x="328" y="360"/>
      <point x="332" y="394"/>
      <point x="332" y="426" type="curve" smooth="yes"/>
      <point x="332" y="486"/>
      <point x="305" y="528"/>
      <point x="257" y="528" type="curve" smooth="yes"/>
      <point x="194" y="528"/>
      <point x="142" y="445"/>
      <point x="94" y="316" type="curve"/>
      <point x="101" y="302" type="line"/>
      <point x="150" y="425"/>
      <point x="196" y="507"/>
      <point x="250" y="507" type="curve" smooth="yes"/>
      <point x="283" y="507"/>
      <point x="298" y="482"/>
      <point x="298" y="429" type="curve" smooth="yes"/>
      <point x="298" y="395"/>
      <point x="294" y="364"/>
      <point x="290" y="329" type="curve" smooth="yes"/>
    </contour>
    <contour>
      <point x="72" y="0" type="line"/>
      <point x="115" y="353" type="line"/>
      <point x="115" y="360" type="line"/>
      <point x="134" y="518" type="line"/>
      <point x="47" y="518" type="line"/>
      <point x="44" y="503" type="line"/>
      <point x="61" y="501" type="line" smooth="yes"/>
      <point x="87" y="496"/>
      <point x="97" y="491"/>
      <point x="94" y="471" type="curve" smooth="yes"/>
      <point x="37" y="0" type="line"/>
    </contour>
  </outline>
</glyph>
<glyph name="OE" format="2">
  <advance width="661"/>
  <unicode hex="0152"/>
  <outline>
    <contour>
      <point x="377" y="372" type="curve"/>
      <point x="374" y="356" type="line"/>
      <point x="466" y="354"/>
      <point x="510" y="353"/>
      <point x="551" y="346" type="curve"/>
      <point x="556" y="383" type="line"/>
      <point x="512" y="375"/>
      <point x="469" y="374"/>
    </contour>
    <contour>
      <point x="606" y="178" type="line"/>
      <point x="593" y="178" type="line"/>
      <point x="569" y="55" type="line" smooth="yes"/>
      <point x="562" y="24"/>
      <point x="540" y="18"/>
      <point x="479" y="18" type="curve" smooth="yes"/>
      <point x="346" y="18" type="line"/>
      <point x="427" y="692" type="line"/>
      <point x="552" y="692" type="line" smooth="yes"/>
      <point x="605" y="692"/>
      <point x="622" y="686"/>
      <point x="621" y="658" type="curve"/>
      <point x="616" y="557" type="line"/>
      <point x="629" y="557" type="line"/>
      <point x="648" y="710" type="line"/>
      <point x="329" y="710" type="line" smooth="yes"/>
      <point x="120" y="710"/>
      <point x="24" y="518"/>
      <point x="24" y="311" type="curve" smooth="yes"/>
      <point x="24" y="127"/>
      <point x="111" y="0"/>
      <point x="279" y="0" type="curve" smooth="yes"/>
      <point x="584" y="0" type="line"/>
    </contour>
    <contour>
      <point x="281" y="18" type="line" smooth="yes"/>
      <point x="128" y="18"/>
      <point x="62" y="137"/>
      <point x="62" y="310" type="curve" smooth="yes"/>
      <point x="62" y="502"/>
      <point x="136" y="692"/>
      <point x="327" y="692" type="curve" smooth="yes"/>
      <point x="392" y="692" type="line"/>
      <point x="311" y="18" type="line"/>
    </contour>
  </outline>
</glyph>
<glyph name="oe" format="2">
  <advance width="599"/>
  <unicode hex="0153"/>
  <outline>
    <contour>
      <point x="345" y="212" type="curve" smooth="yes"/>
      <point x="345" y="379"/>
      <point x="408" y="511"/>
      <point x="496" y="511" type="curve" smooth="yes"/>
      <point x="538" y="511"/>
      <point x="559" y="474"/>
      <point x="559" y="430" type="curve" smooth="yes"/>
      <point x="559" y="340"/>
      <point x="477" y="290"/>
      <point x="332" y="235" type="curve"/>
      <point x="330" y="219" type="line"/>
      <point x="499" y="281"/>
      <point x="591" y="342"/>
      <point x="591" y="434" type="curve" smooth="yes"/>
      <point x="591" y="483"/>
      <point x="558" y="528"/>
      <point x="497" y="528" type="curve" smooth="yes"/>
      <point x="385" y="528"/>
      <point x="313" y="373"/>
      <point x="313" y="214" type="curve" smooth="yes"/>
      <point x="313" y="73"/>
      <point x="370" y="-10"/>
      <point x="444" y="-10" type="curve" smooth="yes"/>
      <point x="506" y="-10"/>
      <point x="550" y="41"/>
      <point x="577" y="111" type="curve"/>
      <point x="566" y="121" type="line"/>
      <point x="538" y="49"/>
      <point x="500" y="8"/>
      <point x="446" y="8" type="curve" smooth="yes"/>
      <point x="386" y="8"/>
      <point x="345" y="82"/>
    </contour>
    <contour>
      <point x="204" y="528" type="curve" smooth="yes"/>
      <point x="99" y="528"/>
      <point x="27" y="376"/>
      <point x="27" y="222" type="curve" smooth="yes"/>
      <point x="27" y="92"/>
      <point x="84" y="-10"/>
      <point x="167" y="-10" type="curve" smooth="yes"/>
      <point x="269" y="-10"/>
      <point x="340" y="141"/>
      <point x="340" y="296" type="curve" smooth="yes"/>
      <point x="340" y="426"/>
      <point x="285" y="528"/>
    </contour>
    <contour>
      <point x="289" y="151" type="curve" smooth="yes"/>
      <point x="268" y="69"/>
      <point x="226" y="7"/>
      <point x="168" y="7" type="curve"/>
      <point x="102" y="7"/>
      <point x="64" y="94"/>
      <point x="64" y="218" type="curve" smooth="yes"/>
      <point x="64" y="269"/>
      <point x="70" y="322"/>
      <point x="82" y="367" type="curve" smooth="yes"/>
      <point x="105" y="449"/>
      <point x="146" y="511"/>
      <point x="205" y="511" type="curve"/>
      <point x="270" y="511"/>
      <point x="308" y="424"/>
      <point x="308" y="300" type="curve" smooth="yes"/>
      <point x="308" y="249"/>
      <point x="302" y="196"/>
    </contour>
  </outline>
</glyph>
<glyph name="tbar" format="2">
  <advance width="218"/>
  <unicode hex="0167"/>
  <outline>
    <contour>
      <point x="199" y="315" type="line"/>
      <point x="22" y="315" type="line"/>
      <point x="20" y="298" type="line"/>
      <point x="196" y="298" type="line"/>
    </contour>
    <component base="t"/>
  </outline>
</glyph>
<glyph name="Uogonek" format="2">
  <advance width="509"/>
  <unicode hex="0172"/>
  <outline>
    <contour>
      <point x="237" y="-233" type="curve" smooth="yes"/>
      <point x="263" y="-233"/>
      <point x="284" y="-217"/>
      <point x="301" y="-190" type="curve"/>
      <point x="294" y="-178" type="line"/>
      <point x="279" y="-201"/>
      <point x="262" y="-216"/>
      <point x="243" y="-216" type="curve" smooth="yes"/>
      <point x="220" y="-216"/>
      <point x="206" y="-195"/>
      <point x="206" y="-153" type="curve" smooth="yes"/>
      <point x="206" y="-45"/>
      <point x="291" y="-16"/>
      <point x="347" y="54" type="curve" smooth="yes"/>
      <point x="378" y="96"/>
      <point x="401" y="158"/>
      <point x="412" y="244" type="curve" smooth="yes"/>
      <point x="462" y="655" type="line" smooth="yes"/>
      <point x="465" y="685"/>
      <point x="490" y="695"/>
      <point x="518" y="695" type="curve" smooth="yes"/>
      <point x="526" y="695" type="line"/>
      <point x="527" y="710" type="line"/>
      <point x="392" y="710" type="line"/>
      <point x="390" y="695" type="line"/>
      <point x="397" y="695" type="line" smooth="yes"/>
      <point x="420" y="695"/>
      <point x="450" y="688"/>
      <point x="448" y="675" type="curve" smooth="yes"/>
      <point x="396" y="245" type="line" smooth="yes"/>
      <point x="378" y="88"/>
      <point x="320" y="14"/>
      <point x="238" y="14" type="curve" smooth="yes"/>
      <point x="164" y="14"/>
      <point x="107" y="70"/>
      <point x="107" y="212" type="curve" smooth="yes"/>
      <point x="107" y="255"/>
      <point x="112" y="303"/>
      <point x="120" y="362" type="curve" smooth="yes"/>
      <point x="159" y="685" type="line" smooth="yes"/>
      <point x="160" y="692"/>
      <point x="190" y="695"/>
      <point x="213" y="695" type="curve" smooth="yes"/>
      <point x="220" y="695" type="line"/>
      <point x="221" y="710" type="line"/>
      <point x="68" y="710" type="line"/>
      <point x="66" y="695" type="line"/>
      <point x="73" y="695" type="line" smooth="yes"/>
      <point x="102" y="695"/>
      <point x="125" y="689"/>
      <point x="122" y="668" type="curve" smooth="yes"/>
      <point x="85" y="363" type="line" smooth="yes"/>
      <point x="77" y="304"/>
      <point x="72" y="256"/>
      <point x="72" y="213" type="curve" smooth="yes"/>
      <point x="72" y="59"/>
      <point x="140" y="-10"/>
      <point x="233" y="-10" type="curve" smooth="yes"/>
      <point x="251" y="-10"/>
      <point x="268" y="-7"/>
      <point x="284" y="0" type="curve"/>
      <point x="287" y="10" type="line"/>
      <point x="221" y="-36"/>
      <point x="171" y="-86"/>
      <point x="171" y="-154" type="curve" smooth="yes"/>
      <point x="171" y="-202"/>
      <point x="195" y="-233"/>
    </contour>
  </outline>
</glyph>
<glyph name="Uhorn" format="2">
  <advance width="529"/>
  <unicode hex="01AF"/>
  <anchor x="232" y="663" name="top"/>
  <outline>
    <contour>
      <point x="233" y="-10" type="curve" smooth="yes"/>
      <point x="323" y="-10"/>
      <point x="391" y="69"/>
      <point x="412" y="244" type="curve" smooth="yes"/>
      <point x="462" y="658" type="line" smooth="yes"/>
      <point x="466" y="684"/>
      <point x="475" y="692"/>
      <point x="492" y="696" type="curve" smooth="yes"/>
      <point x="568" y="714"/>
      <point x="596" y="746"/>
      <point x="619" y="842" type="curve"/>
      <point x="587" y="842" type="line"/>
      <point x="570" y="761"/>
      <point x="548" y="710"/>
      <point x="444" y="710" type="curve" smooth="yes"/>
      <point x="392" y="710" type="line"/>
      <point x="390" y="695" type="line"/>
      <point x="397" y="695" type="line" smooth="yes"/>
      <point x="420" y="695"/>
      <point x="450" y="688"/>
      <point x="448" y="675" type="curve" smooth="yes"/>
      <point x="396" y="245" type="line" smooth="yes"/>
      <point x="378" y="88"/>
      <point x="320" y="14"/>
      <point x="238" y="14" type="curve" smooth="yes"/>
      <point x="164" y="14"/>
      <point x="107" y="70"/>
      <point x="107" y="212" type="curve" smooth="yes"/>
      <point x="107" y="255"/>
      <point x="112" y="303"/>
      <point x="120" y="362" type="curve" smooth="yes"/>
      <point x="159" y="685" type="line" smooth="yes"/>
      <point x="160" y="692"/>
      <point x="190" y="695"/>
      <point x="213" y="695" type="curve" smooth="yes"/>
      <point x="220" y="695" type="line"/>
      <point x="221" y="710" type="line"/>
      <point x="68" y="710" type="line"/>
      <point x="66" y="695" type="line"/>
      <point x="73" y="695" type="line" smooth="yes"/>
      <point x="102" y="695"/>
      <point x="125" y="689"/>
      <point x="122" y="668" type="curve" smooth="yes"/>
      <point x="85" y="363" type="line" smooth="yes"/>
      <point x="77" y="304"/>
      <point x="72" y="256"/>
      <point x="72" y="213" type="curve" smooth="yes"/>
      <point x="72" y="59"/>
      <point x="140" y="-10"/>
    </contour>
  </outline>
</glyph>
<glyph name="uhorn" format="2">
  <advance width="402"/>
  <unicode hex="01B0"/>
  <anchor x="154" y="518" name="top"/>
  <outline>
    <contour>
      <point x="46" y="518" type="line"/>
      <point x="44" y="503" type="line"/>
      <point x="60" y="501" type="line" smooth="yes"/>
      <point x="86" y="496"/>
      <point x="96" y="491"/>
      <point x="93" y="471" type="curve" smooth="yes"/>
      <point x="58" y="195" type="line" smooth="yes"/>
      <point x="54" y="158"/>
      <point x="51" y="122"/>
      <point x="51" y="96" type="curve" smooth="yes"/>
      <point x="51" y="31"/>
      <point x="78" y="-10"/>
      <point x="125" y="-10" type="curve" smooth="yes"/>
      <point x="188" y="-10"/>
      <point x="237" y="73"/>
      <point x="285" y="206" type="curve"/>
      <point x="278" y="219" type="line"/>
      <point x="230" y="92"/>
      <point x="185" y="11"/>
      <point x="133" y="11" type="curve" smooth="yes"/>
      <point x="101" y="11"/>
      <point x="86" y="42"/>
      <point x="86" y="94" type="curve" smooth="yes"/>
      <point x="86" y="123"/>
      <point x="89" y="155"/>
      <point x="93" y="192" type="curve" smooth="yes"/>
      <point x="135" y="518" type="line"/>
    </contour>
    <contour>
      <point x="341" y="512" type="line"/>
      <point x="326" y="503" type="line"/>
      <point x="409" y="506"/>
      <point x="444" y="559"/>
      <point x="462" y="660" type="curve"/>
      <point x="429" y="660" type="line"/>
      <point x="412" y="564"/>
      <point x="388" y="518"/>
      <point x="309" y="518" type="curve" smooth="yes"/>
      <point x="306" y="518" type="line"/>
      <point x="265" y="168" type="line"/>
      <point x="264" y="165" type="line"/>
      <point x="259" y="132"/>
      <point x="254" y="87"/>
      <point x="254" y="62" type="curve" smooth="yes"/>
      <point x="254" y="13"/>
      <point x="276" y="-7"/>
      <point x="307" y="-7" type="curve" smooth="yes"/>
      <point x="324" y="-7"/>
      <point x="343" y="2"/>
      <point x="351" y="11" type="curve"/>
      <point x="353" y="27" type="line"/>
      <point x="347" y="24"/>
      <point x="332" y="13"/>
      <point x="315" y="13" type="curve" smooth="yes"/>
      <point x="296" y="13"/>
      <point x="288" y="26"/>
      <point x="288" y="57" type="curve" smooth="yes"/>
      <point x="288" y="77"/>
      <point x="291" y="110"/>
      <point x="294" y="133" type="curve" smooth="yes"/>
    </contour>
  </outline>
</glyph>
<glyph name="icaron" format="2">
  <advance width="169"/>
  <unicode hex="01D0"/>
  <outline>
    <contour>
      <point x="88" y="603" type="line"/>
      <point x="37" y="744" type="line"/>
      <point x="37" y="749" type="line"/>
      <point x="48" y="749" type="line"/>
      <point x="122" y="620" type="line"/>
      <point x="94" y="621" type="line"/>
      <point x="199" y="749" type="line"/>
      <point x="212" y="749" type="line"/>
      <point x="211" y="744" type="line"/>
      <point x="125" y="603" type="line"/>
    </contour>
    <component base="dotlessi"/>
  </outline>
</glyph>
<glyph name="Oogonek" format="2">
  <advance width="502"/>
  <unicode hex="01EA"/>
  <outline>
    <contour>
      <point x="233" y="9" type="curve" smooth="yes"/>
      <point x="121" y="9"/>
      <point x="65" y="152"/>
      <point x="65" y="317" type="curve" smooth="yes"/>
      <point x="65" y="346"/>
      <point x="66" y="375"/>
      <point x="69" y="404" type="curve" smooth="yes"/>
      <point x="89" y="564"/>
      <point x="162" y="701"/>
      <point x="274" y="701" type="curve" smooth="yes"/>
      <point x="386" y="701"/>
      <point x="444" y="560"/>
      <point x="444" y="393" type="curve" smooth="yes"/>
      <point x="444" y="363"/>
      <point x="441" y="334"/>
      <point x="438" y="304" type="curve" smooth="yes"/>
      <point x="418" y="145"/>
      <point x="346" y="9"/>
    </contour>
    <contour>
      <point x="242" y="-233" type="curve" smooth="yes"/>
      <point x="269" y="-233"/>
      <point x="290" y="-217"/>
      <point x="307" y="-190" type="curve"/>
      <point x="300" y="-178" type="line"/>
      <point x="285" y="-201"/>
      <point x="268" y="-216"/>
      <point x="249" y="-216" type="curve" smooth="yes"/>
      <point x="226" y="-216"/>
      <point x="212" y="-195"/>
      <point x="212" y="-153" type="curve" smooth="yes"/>
      <point x="212" y="-89"/>
      <point x="247" y="-46"/>
      <point x="344" y="30" type="curve" smooth="yes"/>
      <point x="429" y="96"/>
      <point x="482" y="241"/>
      <point x="482" y="389" type="curve" smooth="yes"/>
      <point x="482" y="567"/>
      <point x="403" y="720"/>
      <point x="274" y="720" type="curve" smooth="yes"/>
      <point x="126" y="720"/>
      <point x="27" y="525"/>
      <point x="27" y="321" type="curve" smooth="yes"/>
      <point x="27" y="146"/>
      <point x="105" y="-10"/>
      <point x="233" y="-10" type="curve" smooth="yes"/>
      <point x="256" y="-10"/>
      <point x="277" y="-6"/>
      <point x="298" y="2" type="curve"/>
      <point x="302" y="12" type="line"/>
      <point x="226" y="-42"/>
      <point x="177" y="-90"/>
      <point x="177" y="-152" type="curve" smooth="yes"/>
      <point x="177" y="-201"/>
      <point x="201" y="-233"/>
    </contour>
  </outline>
</glyph>
<glyph name="dotlessj" format="2">
  <advance width="162"/>
  <unicode hex="0237"/>
  <anchor x="107" y="518" name="top"/>
  <outline>
    <contour>
      <point x="31" y="-94" type="line" smooth="yes"/>
      <point x="22" y="-180"/>
      <point x="1" y="-215"/>
      <point x="-35" y="-215" type="curve" smooth="yes"/>
      <point x="-58" y="-215"/>
      <point x="-74" y="-207"/>
      <point x="-84" y="-200" type="curve"/>
      <point x="-86" y="-218" type="line"/>
      <point x="-77" y="-223"/>
      <point x="-58" y="-233"/>
      <point x="-34" y="-233" type="curve" smooth="yes"/>
      <point x="12" y="-233"/>
      <point x="53" y="-204"/>
      <point x="66" y="-92" type="curve" smooth="yes"/>
      <point x="134" y="518" type="line"/>
      <point x="45" y="518" type="line"/>
      <point x="43" y="503" type="line"/>
      <point x="59" y="501" type="line" smooth="yes"/>
      <point x="85" y="496"/>
      <point x="95" y="491"/>
      <point x="92" y="471" type="curve" smooth="yes"/>
    </contour>
  </outline>
</glyph>
<glyph name="ogonek" format="2">
  <advance width="411"/>
  <unicode hex="02DB"/>
  <anchor x="244" y="9" name="_right"/>
  <outline>
    <contour>
      <point x="307" y="15" type="line"/>
      <point x="225" y="-36"/>
      <point x="171" y="-88"/>
      <point x="171" y="-154" type="curve" smooth="yes"/>
      <point x="171" y="-202"/>
      <point x="196" y="-233"/>
      <point x="237" y="-233" type="curve" smooth="yes"/>
      <point x="263" y="-233"/>
      <point x="284" y="-218"/>
      <point x="301" y="-190" type="curve"/>
      <point x="295" y="-178" type="line"/>
      <point x="281" y="-202"/>
      <point x="264" y="-216"/>
      <point x="245" y="-216" type="curve" smooth="yes"/>
      <point x="224" y="-216"/>
      <point x="207" y="-193"/>
      <point x="207" y="-154" type="curve" smooth="yes"/>
      <point x="207" y="-97"/>
      <point x="233" y="-51"/>
      <point x="312" y="4" type="curve"/>
    </contour>
  </outline>
</glyph>
<glyph name="pi" format="2">
  <advance width="471"/>
  <unicode hex="03C0"/>
  <outline>
    <contour>
      <point x="144" y="0" type="line"/>
      <point x="204" y="497" type="line"/>
      <point x="186" y="497" type="line"/>
      <point x="149" y="230"/>
      <point x="129" y="187"/>
      <point x="106" y="0" type="curve"/>
    </contour>
    <contour>
      <point x="456" y="481" type="line"/>
      <point x="461" y="518" type="line"/>
      <point x="203" y="518" type="line" smooth="yes"/>
      <point x="112" y="518"/>
      <point x="63" y="462"/>
      <point x="39" y="347" type="curve"/>
      <point x="48" y="339" type="line"/>
      <point x="71" y="440"/>
      <point x="107" y="481"/>
      <point x="181" y="481" type="curve" smooth="yes"/>
    </contour>
    <contour>
      <point x="369" y="497" type="line"/>
      <point x="351" y="497" type="line"/>
      <point x="309" y="205"/>
      <point x="282" y="134"/>
      <point x="282" y="70" type="curve" smooth="yes"/>
      <point x="282" y="17"/>
      <point x="304" y="-10"/>
      <point x="340" y="-10" type="curve" smooth="yes"/>
      <point x="379" y="-10"/>
      <point x="403" y="33"/>
      <point x="420" y="82" type="curve"/>
      <point x="412" y="90" type="line"/>
      <point x="400" y="59"/>
      <point x="379" y="8"/>
      <point x="347" y="8" type="curve" smooth="yes"/>
      <point x="332" y="8"/>
      <point x="320" y="19"/>
      <point x="320" y="64" type="curve" smooth="yes"/>
      <point x="320" y="76"/>
      <point x="320" y="91"/>
      <point x="328" y="155" type="curve" smooth="yes"/>
    </contour>
  </outline>
</glyph>
<glyph name="thai:baht" format="2">
  <advance width="384"/>
  <unicode hex="0E3F"/>
  <outline>
    <contour>
      <point x="68" y="18" type="line"/>
      <point x="109" y="364" type="line"/>
      <point x="196" y="364" type="line" smooth="yes"/>
      <point x="278" y="364"/>
      <point x="310" y="295"/>
      <point x="310" y="212" type="curve" smooth="yes"/>
      <point x="310" y="198"/>
      <point x="310" y="183"/>
      <point x="307" y="169" type="curve" smooth="yes"/>
      <point x="294" y="62"/>
      <point x="254" y="18"/>
      <point x="168" y="18" type="curve" smooth="yes"/>
    </contour>
    <contour>
      <point x="111" y="381" type="line"/>
      <point x="148" y="691" type="line"/>
      <point x="218" y="691" type="line" smooth="yes"/>
      <point x="298" y="691"/>
      <point x="328" y="636"/>
      <point x="328" y="556" type="curve" smooth="yes"/>
      <point x="328" y="545"/>
      <point x="327" y="533"/>
      <point x="326" y="522" type="curve" smooth="yes"/>
      <point x="314" y="433"/>
      <point x="279" y="381"/>
      <point x="190" y="381" type="curve" smooth="yes"/>
    </contour>
    <contour>
      <point x="135" y="-119" type="line"/>
      <point x="149" y="-119" type="line"/>
      <point x="164" y="7" type="line"/>
      <point x="165" y="17" type="line"/>
      <point x="247" y="694" type="line"/>
      <point x="247" y="702" type="line"/>
      <point x="258" y="790" type="line"/>
      <point x="244" y="790" type="line"/>
      <point x="233" y="702" type="line"/>
      <point x="233" y="693" type="line"/>
      <point x="151" y="16" type="line"/>
      <point x="150" y="6" type="line"/>
    </contour>
    <contour>
      <point x="-26" y="0" type="line"/>
      <point x="163" y="0" type="line" smooth="yes"/>
      <point x="288" y="0"/>
      <point x="348" y="80"/>
      <point x="348" y="210" type="curve" smooth="yes"/>
      <point x="348" y="303"/>
      <point x="306" y="373"/>
      <point x="205" y="377" type="curve"/>
      <point x="225" y="368" type="line"/>
      <point x="227" y="379" type="line"/>
      <point x="206" y="370" type="line"/>
      <point x="314" y="370"/>
      <point x="364" y="458"/>
      <point x="364" y="556" type="curve" smooth="yes"/>
      <point x="364" y="641"/>
      <point x="321" y="709"/>
      <point x="220" y="709" type="curve" smooth="yes"/>
      <point x="59" y="709" type="line"/>
      <point x="57" y="693" type="line"/>
      <point x="64" y="693" type="line" smooth="yes"/>
      <point x="91" y="693"/>
      <point x="113" y="688"/>
      <point x="110" y="666" type="curve" smooth="yes"/>
      <point x="35" y="42" type="line" smooth="yes"/>
      <point x="33" y="21"/>
      <point x="9" y="15"/>
      <point x="-17" y="15" type="curve" smooth="yes"/>
      <point x="-25" y="15" type="line"/>
    </contour>
  </outline>
</glyph>
<glyph name="idieresisacute" format="2">
  <advance width="169"/>
  <unicode hex="1E2F"/>
  <outline>
    <contour>
      <point x="55" y="631" type="curve" smooth="yes"/>
      <point x="40" y="631"/>
      <point x="29" y="644"/>
      <point x="29" y="666" type="curve" smooth="yes"/>
      <point x="29" y="688"/>
      <point x="40" y="702"/>
      <point x="55" y="702" type="curve" smooth="yes"/>
      <point x="70" y="702"/>
      <point x="81" y="688"/>
      <point x="81" y="666" type="curve" smooth="yes"/>
      <point x="81" y="644"/>
      <point x="70" y="631"/>
    </contour>
    <contour>
      <point x="169" y="631" type="curve" smooth="yes"/>
      <point x="154" y="631"/>
      <point x="144" y="644"/>
      <point x="144" y="666" type="curve" smooth="yes"/>
      <point x="144" y="688"/>
      <point x="154" y="702"/>
      <point x="169" y="702" type="curve" smooth="yes"/>
      <point x="184" y="702"/>
      <point x="195" y="688"/>
      <point x="195" y="666" type="curve" smooth="yes"/>
      <point x="195" y="644"/>
      <point x="184" y="631"/>
    </contour>
    <contour>
      <point x="149" y="875" type="curve" smooth="yes"/>
      <point x="98" y="748" type="line"/>
      <point x="97" y="741" type="line"/>
      <point x="106" y="741" type="line"/>
      <point x="176" y="843" type="line" smooth="yes"/>
      <point x="189" y="861"/>
      <point x="200" y="877"/>
      <point x="200" y="896" type="curve" smooth="yes"/>
      <point x="200" y="911"/>
      <point x="193" y="921"/>
      <point x="182" y="921" type="curve" smooth="yes"/>
      <point x="168" y="921"/>
      <point x="161" y="905"/>
    </contour>
    <component base="dotlessi"/>
  </outline>
</glyph>
<glyph name="Germandbls" format="2">
  <advance width="524"/>
  <unicode hex="1E9E"/>
  <outline>
    <contour>
      <point x="206" y="203" type="curve"/>
      <point x="192" y="203" type="line"/>
      <point x="168" y="0" type="line"/>
      <point x="184" y="0" type="line"/>
      <point x="210" y="156" type="line"/>
      <point x="198" y="171" type="line"/>
      <point x="210" y="79"/>
      <point x="257" y="-10"/>
      <point x="342" y="-10" type="curve" smooth="yes"/>
      <point x="429" y="-10"/>
      <point x="483" y="78"/>
      <point x="483" y="196" type="curve" smooth="yes"/>
      <point x="483" y="322"/>
      <point x="415" y="394"/>
      <point x="331" y="417" type="curve"/>
      <point x="339" y="407" type="line"/>
      <point x="471" y="688" type="line"/>
      <point x="472" y="710" type="line"/>
      <point x="282" y="710" type="line" smooth="yes"/>
      <point x="166" y="710"/>
      <point x="119" y="640"/>
      <point x="100" y="484" type="curve" smooth="yes"/>
      <point x="46" y="42" type="line" smooth="yes"/>
      <point x="44" y="22"/>
      <point x="23" y="15"/>
      <point x="-9" y="15" type="curve" smooth="yes"/>
      <point x="-15" y="15" type="line"/>
      <point x="-18" y="0" type="line"/>
      <point x="77" y="0" type="line"/>
      <point x="138" y="512" type="line" smooth="yes"/>
      <point x="153" y="628"/>
      <point x="190" y="692"/>
      <point x="280" y="692" type="curve" smooth="yes"/>
      <point x="462" y="692" type="line"/>
      <point x="439" y="700" type="line"/>
      <point x="309" y="419" type="line"/>
      <point x="307" y="403" type="line"/>
      <point x="388" y="382"/>
      <point x="448" y="315"/>
      <point x="448" y="195" type="curve" smooth="yes"/>
      <point x="448" y="81"/>
      <point x="411" y="9"/>
      <point x="342" y="9" type="curve" smooth="yes"/>
      <point x="261" y="9"/>
      <point x="221" y="97"/>
    </contour>
  </outline>
</glyph>
<glyph name="quoteright" format="2">
  <advance width="117"/>
  <unicode hex="2019"/>
  <outline>
    <contour>
      <point x="78" y="568" type="line"/>
      <point x="105" y="598"/>
      <point x="125" y="635"/>
      <point x="125" y="679" type="curve" smooth="yes"/>
      <point x="125" y="707"/>
      <point x="112" y="720"/>
      <point x="97" y="720" type="curve" smooth="yes"/>
      <point x="84" y="720"/>
      <point x="73" y="706"/>
      <point x="73" y="687" type="curve" smooth="yes"/>
      <point x="73" y="668"/>
      <point x="83" y="654"/>
      <point x="97" y="654" type="curve" smooth="yes"/>
      <point x="108" y="654"/>
      <point x="115" y="659"/>
      <point x="119" y="673" type="curve"/>
      <point x="110" y="669" type="line"/>
      <point x="108" y="641"/>
      <point x="93" y="613"/>
      <point x="63" y="588" type="curve"/>
    </contour>
  </outline>
</glyph>
<glyph name="dagger" format="2">
  <advance width="268"/>
  <unicode hex="2020"/>
  <outline>
    <contour>
      <point x="156" y="509" type="line"/>
      <point x="164" y="509" type="line"/>
      <point x="262" y="486" type="line"/>
      <point x="276" y="486" type="line"/>
      <point x="283" y="539" type="line"/>
      <point x="269" y="539" type="line"/>
      <point x="165" y="522" type="line"/>
      <point x="158" y="522" type="line"/>
      <point x="57" y="539" type="line"/>
      <point x="44" y="539" type="line"/>
      <point x="37" y="486" type="line"/>
      <point x="51" y="486" type="line"/>
    </contour>
    <contour>
      <point x="202" y="710" type="line"/>
      <point x="165" y="710" type="line"/>
      <point x="162" y="685" type="line" smooth="yes"/>
      <point x="159" y="659"/>
      <point x="164" y="596"/>
      <point x="153" y="510" type="curve" smooth="yes"/>
      <point x="145" y="440"/>
      <point x="135" y="405"/>
      <point x="123" y="377" type="curve"/>
      <point x="121" y="358" type="line" smooth="yes"/>
      <point x="116" y="317"/>
      <point x="117" y="219"/>
      <point x="93" y="0" type="curve"/>
      <point x="103" y="0" type="line"/>
      <point x="132" y="219"/>
      <point x="157" y="317"/>
      <point x="162" y="358" type="curve" smooth="yes"/>
      <point x="164" y="377" type="line"/>
      <point x="159" y="404"/>
      <point x="158" y="440"/>
      <point x="166" y="510" type="curve" smooth="yes"/>
      <point x="176" y="596"/>
      <point x="196" y="659"/>
      <point x="199" y="685" type="curve" smooth="yes"/>
    </contour>
  </outline>
</glyph>
<glyph name="fraction" format="2">
  <advance width="276"/>
  <unicode hex="2044"/>
  <outline>
    <contour>
      <point x="347" y="710" type="line"/>
      <point x="-89" y="0" type="line"/>
      <point x="-69" y="0" type="line"/>
      <point x="367" y="710" type="line"/>
    </contour>
  </outline>
</glyph>
<glyph name="colonmonetary" format="2">
  <advance width="384"/>
  <unicode hex="20A1"/>
  <outline>
    <contour>
      <point x="234" y="790" type="line"/>
      <point x="214" y="691" type="line"/>
      <point x="213" y="685" type="line"/>
      <point x="95" y="84" type="line"/>
      <point x="92" y="74" type="line"/>
      <point x="54" y="-120" type="line"/>
      <point x="69" y="-120" type="line"/>
      <point x="105" y="62" type="line"/>
      <point x="107" y="71" type="line"/>
      <point x="228" y="687" type="line"/>
      <point x="229" y="694" type="line"/>
      <point x="249" y="790" type="line"/>
    </contour>
    <contour>
      <point x="325" y="790" type="line"/>
      <point x="304" y="687" type="line"/>
      <point x="303" y="680" type="line"/>
      <point x="174" y="24" type="line"/>
      <point x="172" y="17" type="line"/>
      <point x="145" y="-120" type="line"/>
      <point x="160" y="-120" type="line"/>
      <point x="188" y="17" type="line"/>
      <point x="189" y="21" type="line"/>
      <point x="317" y="674" type="line"/>
      <point x="319" y="682" type="line"/>
      <point x="340" y="790" type="line"/>
    </contour>
    <contour>
      <point x="194" y="10" type="curve" smooth="yes"/>
      <point x="274" y="10"/>
      <point x="333" y="88"/>
      <point x="365" y="220" type="curve"/>
      <point x="354" y="230" type="line"/>
      <point x="325" y="111"/>
      <point x="272" y="27"/>
      <point x="195" y="27" type="curve" smooth="yes"/>
      <point x="110" y="27"/>
      <point x="57" y="128"/>
      <point x="57" y="307" type="curve" smooth="yes"/>
      <point x="57" y="366"/>
      <point x="61" y="422"/>
      <point x="73" y="470" type="curve" smooth="yes"/>
      <point x="103" y="602"/>
      <point x="158" y="683"/>
      <point x="248" y="683" type="curve" smooth="yes"/>
      <point x="314" y="683"/>
      <point x="365" y="644"/>
      <point x="376" y="610" type="curve"/>
      <point x="380" y="621"/>
      <point x="379" y="635"/>
      <point x="365" y="643" type="curve"/>
      <point x="353" y="546" type="line"/>
      <point x="391" y="546" type="line"/>
      <point x="399" y="621" type="line"/>
      <point x="375" y="660"/>
      <point x="326" y="700"/>
      <point x="248" y="700" type="curve" smooth="yes"/>
      <point x="103" y="700"/>
      <point x="20" y="521"/>
      <point x="20" y="308" type="curve" smooth="yes"/>
      <point x="20" y="121"/>
      <point x="98" y="10"/>
    </contour>
  </outline>
</glyph>
<glyph name="lira" format="2">
  <advance width="384"/>
  <unicode hex="20A4"/>
  <outline>
    <contour>
      <point x="-11" y="-2" type="line"/>
      <point x="112" y="11"/>
      <point x="150" y="117"/>
      <point x="150" y="233" type="curve" smooth="yes"/>
      <point x="150" y="332"/>
      <point x="134" y="418"/>
      <point x="134" y="503" type="curve" smooth="yes"/>
      <point x="134" y="643"/>
      <point x="176" y="703"/>
      <point x="252" y="703" type="curve" smooth="yes"/>
      <point x="301" y="703"/>
      <point x="336" y="677"/>
      <point x="349" y="649" type="curve"/>
      <point x="348" y="654"/>
      <point x="342" y="667"/>
      <point x="334" y="678" type="curve"/>
      <point x="323" y="594" type="line"/>
      <point x="362" y="594" type="line"/>
      <point x="372" y="665" type="line"/>
      <point x="354" y="688"/>
      <point x="314" y="720"/>
      <point x="252" y="720" type="curve" smooth="yes"/>
      <point x="147" y="720"/>
      <point x="96" y="625"/>
      <point x="96" y="506" type="curve" smooth="yes"/>
      <point x="96" y="405"/>
      <point x="122" y="310"/>
      <point x="122" y="225" type="curve" smooth="yes"/>
      <point x="122" y="128"/>
      <point x="100" y="29"/>
      <point x="-9" y="15" type="curve"/>
    </contour>
    <contour>
      <point x="255" y="-10" type="curve" smooth="yes"/>
      <point x="305" y="-10"/>
      <point x="326" y="41"/>
      <point x="350" y="142" type="curve"/>
      <point x="340" y="150" type="line"/>
      <point x="316" y="73"/>
      <point x="299" y="37"/>
      <point x="256" y="37" type="curve" smooth="yes"/>
      <point x="222" y="37"/>
      <point x="181" y="49"/>
      <point x="120" y="121" type="curve"/>
      <point x="113" y="108" type="line"/>
      <point x="172" y="34"/>
      <point x="211" y="-10"/>
    </contour>
    <contour>
      <point x="21" y="272" type="line"/>
      <point x="19" y="254" type="line"/>
      <point x="264" y="254" type="line"/>
      <point x="267" y="272" type="line"/>
    </contour>
    <contour>
      <point x="38" y="418" type="line"/>
      <point x="36" y="400" type="line"/>
      <point x="282" y="400" type="line"/>
      <point x="284" y="418" type="line"/>
    </contour>
  </outline>
</glyph>
<glyph name="peseta" format="2">
  <advance width="384"/>
  <unicode hex="20A7"/>
  <outline>
    <contour>
      <point x="-33" y="0" type="line"/>
      <point x="93" y="0" type="line"/>
      <point x="94" y="15" type="line"/>
      <point x="84" y="15" type="line" smooth="yes"/>
      <point x="67" y="15"/>
      <point x="45" y="18"/>
      <point x="46" y="25" type="curve" smooth="yes"/>
      <point x="76" y="283" type="line"/>
      <point x="94" y="283" type="line" smooth="yes"/>
      <point x="200" y="283"/>
      <point x="259" y="400"/>
      <point x="259" y="530" type="curve" smooth="yes"/>
      <point x="259" y="638"/>
      <point x="220" y="710"/>
      <point x="130" y="710" type="curve" smooth="yes"/>
      <point x="52" y="710" type="line"/>
      <point x="50" y="695" type="line"/>
      <point x="57" y="695" type="line" smooth="yes"/>
      <point x="77" y="695"/>
      <point x="91" y="690"/>
      <point x="89" y="671" type="curve" smooth="yes"/>
      <point x="13" y="39" type="line" smooth="yes"/>
      <point x="11" y="20"/>
      <point x="-5" y="15"/>
      <point x="-25" y="15" type="curve" smooth="yes"/>
      <point x="-32" y="15" type="line"/>
    </contour>
    <contour>
      <point x="131" y="693" type="line" smooth="yes"/>
      <point x="197" y="693"/>
      <point x="226" y="636"/>
      <point x="225" y="537" type="curve" smooth="yes"/>
      <point x="224" y="517"/>
      <point x="223" y="497"/>
      <point x="220" y="475" type="curve" smooth="yes"/>
      <point x="208" y="372"/>
      <point x="165" y="300"/>
      <point x="94" y="300" type="curve" smooth="yes"/>
      <point x="78" y="300" type="line"/>
      <point x="126" y="693" type="line"/>
    </contour>
    <contour>
      <point x="300" y="510" type="line"/>
      <point x="257" y="161" type="line" smooth="yes"/>
      <point x="253" y="129"/>
      <point x="252" y="103"/>
      <point x="252" y="82" type="curve"/>
      <point x="252" y="12"/>
      <point x="283" y="-10"/>
      <point x="319" y="-10" type="curve" smooth="yes"/>
      <point x="332" y="-10"/>
      <point x="344" y="-5"/>
      <point x="352" y="-1" type="curve"/>
      <point x="353" y="16" type="line"/>
      <point x="345" y="11"/>
      <point x="337" y="7"/>
      <point x="323" y="7" type="curve" smooth="yes"/>
      <point x="301" y="7"/>
      <point x="284" y="20"/>
      <point x="284" y="80" type="curve" smooth="yes"/>
      <point x="284" y="98"/>
      <point x="286" y="122"/>
      <point x="290" y="155" type="curve" smooth="yes"/>
      <point x="348" y="631" type="line"/>
      <point x="327" y="631" type="line"/>
      <point x="319" y="574" type="line" smooth="yes"/>
      <point x="311" y="524"/>
      <point x="286" y="515"/>
      <point x="252" y="515" type="curve" smooth="yes"/>
      <point x="241" y="515" type="line"/>
      <point x="239" y="501" type="line"/>
      <point x="403" y="501" type="line"/>
      <point x="406" y="518" type="line"/>
      <point x="330" y="518" type="line"/>
    </contour>
  </outline>
</glyph>
<glyph name="won" format="2">
  <advance width="384"/>
  <unicode hex="20A9"/>
  <outline>
    <contour>
      <point x="59" y="0" type="line"/>
      <point x="82" y="0" type="line"/>
      <point x="234" y="657" type="line"/>
      <point x="226" y="657" type="line"/>
      <point x="234" y="0" type="line"/>
      <point x="258" y="0" type="line"/>
      <point x="390" y="657" type="line" smooth="yes"/>
      <point x="396" y="688"/>
      <point x="410" y="695"/>
      <point x="422" y="695" type="curve" smooth="yes"/>
      <point x="425" y="695" type="line"/>
      <point x="427" y="710" type="line"/>
      <point x="349" y="710" type="line"/>
      <point x="347" y="695" type="line"/>
      <point x="353" y="695" type="line" smooth="yes"/>
      <point x="368" y="695"/>
      <point x="381" y="686"/>
      <point x="379" y="675" type="curve"/>
      <point x="260" y="76" type="line"/>
      <point x="265" y="76" type="line"/>
      <point x="256" y="710" type="line"/>
      <point x="233" y="710" type="line"/>
      <point x="85" y="77" type="line"/>
      <point x="91" y="77" type="line"/>
      <point x="105" y="685" type="line"/>
      <point x="106" y="692"/>
      <point x="124" y="695"/>
      <point x="138" y="695" type="curve" smooth="yes"/>
      <point x="145" y="695" type="line"/>
      <point x="148" y="710" type="line"/>
      <point x="50" y="710" type="line"/>
      <point x="48" y="695" type="line"/>
      <point x="50" y="695" type="line" smooth="yes"/>
      <point x="64" y="695"/>
      <point x="75" y="692"/>
      <point x="74" y="666" type="curve" smooth="yes"/>
    </contour>
    <contour>
      <point x="14" y="439" type="line"/>
      <point x="12" y="422" type="line"/>
      <point x="81" y="422" type="line"/>
      <point x="86" y="422" type="line"/>
      <point x="173" y="422" type="line"/>
      <point x="178" y="439" type="line"/>
    </contour>
    <contour>
      <point x="244" y="422" type="line"/>
      <point x="335" y="422" type="line"/>
      <point x="339" y="422" type="line"/>
      <point x="394" y="422" type="line"/>
      <point x="397" y="439" type="line"/>
      <point x="243" y="439" type="line"/>
    </contour>
    <contour>
      <point x="136" y="265" type="line"/>
      <point x="241" y="265" type="line"/>
      <point x="239" y="282" type="line"/>
      <point x="189" y="282" type="line"/>
      <point x="141" y="282" type="line"/>
    </contour>
    <contour>
      <point x="76" y="282" type="line"/>
      <point x="-5" y="282" type="line"/>
      <point x="-7" y="265" type="line"/>
      <point x="77" y="265" type="line"/>
    </contour>
    <contour>
      <point x="304" y="265" type="line"/>
      <point x="375" y="265" type="line"/>
      <point x="378" y="282" type="line"/>
      <point x="310" y="282" type="line"/>
    </contour>
  </outline>
</glyph>
<glyph name="kip" format="2">
  <advance width="384"/>
  <unicode hex="20AD"/>
  <outline>
    <contour>
      <point x="31" y="381" type="line"/>
      <point x="28" y="363" type="line"/>
      <point x="346" y="363" type="line"/>
      <point x="348" y="381" type="line"/>
    </contour>
    <contour>
      <point x="-10" y="0" type="line"/>
      <point x="138" y="0" type="line"/>
      <point x="140" y="15" type="line"/>
      <point x="134" y="15" type="line" smooth="yes"/>
      <point x="112" y="15"/>
      <point x="83" y="18"/>
      <point x="84" y="25" type="curve" smooth="yes"/>
      <point x="164" y="685" type="line" smooth="yes"/>
      <point x="164" y="692"/>
      <point x="192" y="695"/>
      <point x="215" y="695" type="curve" smooth="yes"/>
      <point x="221" y="695" type="line"/>
      <point x="224" y="710" type="line"/>
      <point x="76" y="710" type="line"/>
      <point x="74" y="695" type="line"/>
      <point x="81" y="695" type="line" smooth="yes"/>
      <point x="109" y="695"/>
      <point x="129" y="689"/>
      <point x="126" y="667" type="curve" smooth="yes"/>
      <point x="51" y="43" type="line" smooth="yes"/>
      <point x="49" y="21"/>
      <point x="27" y="15"/>
      <point x="0" y="15" type="curve" smooth="yes"/>
      <point x="-8" y="15" type="line"/>
    </contour>
    <contour>
      <point x="225" y="0" type="line"/>
      <point x="358" y="0" type="line"/>
      <point x="360" y="15" type="line"/>
      <point x="353" y="15" type="line" smooth="yes"/>
      <point x="330" y="15"/>
      <point x="322" y="18"/>
      <point x="313" y="44" type="curve" smooth="yes"/>
      <point x="196" y="370" type="line"/>
      <point x="187" y="374" type="line"/>
      <point x="361" y="668" type="line" smooth="yes"/>
      <point x="374" y="688"/>
      <point x="386" y="695"/>
      <point x="406" y="695" type="curve" smooth="yes"/>
      <point x="415" y="695" type="line"/>
      <point x="418" y="710" type="line"/>
      <point x="301" y="710" type="line"/>
      <point x="298" y="695" type="line"/>
      <point x="306" y="695" type="line" smooth="yes"/>
      <point x="331" y="695"/>
      <point x="350" y="688"/>
      <point x="351" y="682" type="curve"/>
      <point x="167" y="371" type="line"/>
      <point x="159" y="368" type="line"/>
      <point x="280" y="27" type="line"/>
      <point x="279" y="19"/>
      <point x="254" y="15"/>
      <point x="233" y="15" type="curve" smooth="yes"/>
      <point x="227" y="15" type="line"/>
    </contour>
  </outline>
</glyph>
<glyph name="peso" format="2">
  <advance width="384"/>
  <unicode hex="20B1"/>
  <outline>
    <contour>
      <point x="37" y="497" type="line"/>
      <point x="34" y="479" type="line"/>
      <point x="108" y="479" type="line"/>
      <point x="117" y="479" type="line"/>
      <point x="327" y="479" type="line"/>
      <point x="333" y="479" type="line"/>
      <point x="402" y="479" type="line"/>
      <point x="404" y="497" type="line"/>
      <point x="337" y="497" type="line"/>
      <point x="328" y="497" type="line"/>
      <point x="119" y="497" type="line"/>
      <point x="111" y="497" type="line"/>
    </contour>
    <contour>
      <point x="-18" y="0" type="line"/>
      <point x="143" y="0" type="line"/>
      <point x="146" y="15" type="line"/>
      <point x="129" y="15" type="line" smooth="yes"/>
      <point x="107" y="15"/>
      <point x="78" y="19"/>
      <point x="78" y="27" type="curve" smooth="yes"/>
      <point x="107" y="269" type="line"/>
      <point x="157" y="269" type="line" smooth="yes"/>
      <point x="292" y="269"/>
      <point x="353" y="386"/>
      <point x="353" y="514" type="curve" smooth="yes"/>
      <point x="353" y="633"/>
      <point x="300" y="710"/>
      <point x="190" y="710" type="curve" smooth="yes"/>
      <point x="68" y="710" type="line"/>
      <point x="66" y="695" type="line"/>
      <point x="72" y="695" type="line" smooth="yes"/>
      <point x="100" y="695"/>
      <point x="123" y="689"/>
      <point x="120" y="668" type="curve" smooth="yes"/>
      <point x="45" y="42" type="line" smooth="yes"/>
      <point x="42" y="21"/>
      <point x="19" y="15"/>
      <point x="-9" y="15" type="curve" smooth="yes"/>
      <point x="-16" y="15" type="line"/>
    </contour>
    <contour>
      <point x="190" y="692" type="line" smooth="yes"/>
      <point x="279" y="692"/>
      <point x="316" y="625"/>
      <point x="316" y="514" type="curve" smooth="yes"/>
      <point x="316" y="496"/>
      <point x="315" y="479"/>
      <point x="313" y="461" type="curve" smooth="yes"/>
      <point x="300" y="363"/>
      <point x="253" y="286"/>
      <point x="157" y="286" type="curve" smooth="yes"/>
      <point x="110" y="286" type="line"/>
      <point x="159" y="692" type="line"/>
    </contour>
  </outline>
</glyph>
<glyph name="manat" format="2">
  <advance width="384"/>
  <unicode hex="20BC"/>
  <outline>
    <contour>
      <point x="240" y="720" type="line"/>
      <point x="171" y="143" type="line"/>
      <point x="186" y="143" type="line"/>
      <point x="256" y="720" type="line"/>
    </contour>
    <contour>
      <point x="231" y="589" type="curve" smooth="yes"/>
      <point x="114" y="589"/>
      <point x="31" y="386"/>
      <point x="-15" y="0" type="curve"/>
      <point x="22" y="0" type="line"/>
      <point x="68" y="395"/>
      <point x="135" y="572"/>
      <point x="230" y="572" type="curve" smooth="yes"/>
      <point x="326" y="572"/>
      <point x="350" y="394"/>
      <point x="304" y="0" type="curve"/>
      <point x="341" y="0" type="line"/>
      <point x="385" y="379"/>
      <point x="346" y="589"/>
    </contour>
  </outline>
</glyph>
<glyph name="estimated" format="2">
  <advance width="575"/>
  <unicode hex="212E"/>
  <outline>
    <contour>
      <point x="128" y="107" type="line"/>
      <point x="165" y="45"/>
      <point x="224" y="8"/>
      <point x="291" y="8" type="curve" smooth="yes"/>
      <point x="399" y="8"/>
      <point x="477" y="96"/>
      <point x="517" y="236" type="curve"/>
      <point x="533" y="236" type="line"/>
      <point x="498" y="98"/>
      <point x="410" y="-10"/>
      <point x="291" y="-10" type="curve" smooth="yes"/>
      <point x="148" y="-10"/>
      <point x="37" y="150"/>
      <point x="37" y="355" type="curve" smooth="yes"/>
      <point x="37" y="560"/>
      <point x="148" y="720"/>
      <point x="291" y="720" type="curve" smooth="yes"/>
      <point x="433" y="720"/>
      <point x="544" y="560"/>
      <point x="544" y="355" type="curve"/>
      <point x="98" y="355" type="line"/>
      <point x="98" y="373" type="line"/>
      <point x="453" y="373" type="line"/>
      <point x="453" y="604" type="line"/>
      <point x="416" y="667"/>
      <point x="357" y="702"/>
      <point x="291" y="702" type="curve" smooth="yes"/>
      <point x="224" y="702"/>
      <point x="163" y="665"/>
      <point x="128" y="604" type="curve"/>
    </contour>
  </outline>
</glyph>
<glyph name="arrowleft" format="2">
  <advance width="506"/>
  <unicode hex="2190"/>
  <outline>
    <contour>
      <point x="232" y="551" type="line"/>
      <point x="41" y="358" type="line"/>
      <point x="41" y="349" type="line"/>
      <point x="232" y="155" type="line"/>
      <point x="238" y="167" type="line"/>
      <point x="94" y="344" type="line"/>
      <point x="466" y="344" type="line"/>
      <point x="466" y="362" type="line"/>
      <point x="94" y="362" type="line"/>
      <point x="238" y="540" type="line"/>
    </contour>
  </outline>
</glyph>
<glyph name="minus" format="2">
  <advance width="385"/>
  <unicode hex="2212"/>
  <outline>
    <contour>
      <point x="326" y="350" type="line"/>
      <point x="63" y="350" type="line"/>
      <point x="61" y="333" type="line"/>
      <point x="324" y="333" type="line"/>
    </contour>
  </outline>
</glyph>
<glyph name="infinity" format="2">
  <advance width="531"/>
  <unicode hex="221E"/>
  <outline>
    <contour>
      <point x="258" y="333" type="curve" smooth="yes"/>
      <point x="236" y="467"/>
      <point x="208" y="520"/>
      <point x="156" y="520" type="curve" smooth="yes"/>
      <point x="93" y="520"/>
      <point x="53" y="453"/>
      <point x="53" y="344" type="curve" smooth="yes"/>
      <point x="53" y="250"/>
      <point x="90" y="193"/>
      <point x="146" y="193" type="curve" smooth="yes"/>
      <point x="200" y="193"/>
      <point x="238" y="251"/>
      <point x="265" y="351" type="curve"/>
      <point x="273" y="348" type="line"/>
      <point x="249" y="229"/>
      <point x="202" y="154"/>
      <point x="143" y="154" type="curve" smooth="yes"/>
      <point x="83" y="154"/>
      <point x="39" y="226"/>
      <point x="39" y="342" type="curve" smooth="yes"/>
      <point x="39" y="474"/>
      <point x="94" y="556"/>
      <point x="166" y="556" type="curve" smooth="yes"/>
      <point x="243" y="556"/>
      <point x="270" y="479"/>
      <point x="288" y="379" type="curve" smooth="yes"/>
      <point x="314" y="235"/>
      <point x="340" y="190"/>
      <point x="394" y="190" type="curve" smooth="yes"/>
      <point x="454" y="190"/>
      <point x="493" y="266"/>
      <point x="493" y="370" type="curve" smooth="yes"/>
      <point x="493" y="458"/>
      <point x="458" y="517"/>
      <point x="400" y="517" type="curve" smooth="yes"/>
      <point x="345" y="517"/>
      <point x="309" y="458"/>
      <point x="281" y="359" type="curve"/>
      <point x="272" y="362" type="line"/>
      <point x="300" y="482"/>
      <point x="345" y="556"/>
      <point x="405" y="556" type="curve" smooth="yes"/>
      <point x="464" y="556"/>
      <point x="507" y="482"/>
      <point x="507" y="371" type="curve" smooth="yes"/>
      <point x="507" y="236"/>
      <point x="452" y="154"/>
      <point x="384" y="154" type="curve" smooth="yes"/>
      <point x="313" y="154"/>
      <point x="277" y="223"/>
    </contour>
  </outline>
</glyph>
<glyph name="integral" format="2">
  <advance width="363"/>
  <unicode hex="222B"/>
  <outline>
    <contour>
      <point x="238" y="597" type="line" smooth="yes"/>
      <point x="251" y="694"/>
      <point x="278" y="738"/>
      <point x="324" y="738" type="curve" smooth="yes"/>
      <point x="355" y="738"/>
      <point x="376" y="722"/>
      <point x="383" y="703" type="curve"/>
      <point x="391" y="712"/>
      <point x="382" y="734"/>
      <point x="366" y="736" type="curve"/>
      <point x="355" y="651" type="line"/>
      <point x="392" y="651" type="line"/>
      <point x="400" y="726" type="line"/>
      <point x="391" y="737"/>
      <point x="366" y="755"/>
      <point x="327" y="755" type="curve" smooth="yes"/>
      <point x="265" y="755"/>
      <point x="218" y="706"/>
      <point x="203" y="597" type="curve" smooth="yes"/>
      <point x="113" y="-69" type="line" smooth="yes"/>
      <point x="99" y="-172"/>
      <point x="74" y="-219"/>
      <point x="27" y="-219" type="curve" smooth="yes"/>
      <point x="-4" y="-219"/>
      <point x="-24" y="-203"/>
      <point x="-31" y="-184" type="curve"/>
      <point x="-39" y="-193"/>
      <point x="-34" y="-218"/>
      <point x="-16" y="-217" type="curve"/>
      <point x="-6" y="-132" type="line"/>
      <point x="-43" y="-132" type="line"/>
      <point x="-52" y="-207" type="line"/>
      <point x="-43" y="-217"/>
      <point x="-15" y="-236"/>
      <point x="24" y="-236" type="curve" smooth="yes"/>
      <point x="85" y="-236"/>
      <point x="132" y="-184"/>
      <point x="148" y="-69" type="curve" smooth="yes"/>
    </contour>
  </outline>
</glyph>
<glyph name="notequal" format="2">
  <advance width="384"/>
  <unicode hex="2260"/>
  <outline>
    <contour>
      <point x="331" y="567" type="line"/>
      <point x="42" y="88" type="line"/>
      <point x="60" y="88" type="line"/>
      <point x="349" y="567" type="line"/>
    </contour>
    <component base="equal"/>
  </outline>
</glyph>
<glyph name="Pcircle" format="2">
  <advance width="576"/>
  <unicode hex="24C5"/>
  <outline>
    <contour>
      <point x="47" y="355" type="curve" smooth="yes"/>
      <point x="47" y="562"/>
      <point x="150" y="720"/>
      <point x="291" y="720" type="curve" smooth="yes"/>
      <point x="433" y="720"/>
      <point x="535" y="562"/>
      <point x="535" y="355" type="curve" smooth="yes"/>
      <point x="535" y="148"/>
      <point x="433" y="-10"/>
      <point x="291" y="-10" type="curve" smooth="yes"/>
      <point x="150" y="-10"/>
      <point x="47" y="148"/>
    </contour>
    <contour>
      <point x="194" y="153" type="line"/>
      <point x="299" y="153" type="line"/>
      <point x="299" y="167" type="line"/>
      <point x="285" y="167" type="line" smooth="yes"/>
      <point x="274" y="167"/>
      <point x="259" y="168"/>
      <point x="259" y="172" type="curve" smooth="yes"/>
      <point x="259" y="320" type="line"/>
      <point x="311" y="320" type="line" smooth="yes"/>
      <point x="373" y="320"/>
      <point x="417" y="367"/>
      <point x="417" y="442" type="curve" smooth="yes"/>
      <point x="417" y="515"/>
      <point x="377" y="557"/>
      <point x="313" y="557" type="curve" smooth="yes"/>
      <point x="194" y="557" type="line"/>
      <point x="194" y="543" type="line"/>
      <point x="198" y="543" type="line" smooth="yes"/>
      <point x="214" y="543"/>
      <point x="227" y="540"/>
      <point x="227" y="526" type="curve" smooth="yes"/>
      <point x="227" y="184" type="line" smooth="yes"/>
      <point x="227" y="170"/>
      <point x="214" y="167"/>
      <point x="198" y="167" type="curve" smooth="yes"/>
      <point x="194" y="167" type="line"/>
    </contour>
    <contour>
      <point x="313" y="541" type="line" smooth="yes"/>
      <point x="360" y="541"/>
      <point x="382" y="512"/>
      <point x="382" y="442" type="curve" smooth="yes"/>
      <point x="382" y="372"/>
      <point x="360" y="336"/>
      <point x="311" y="336" type="curve" smooth="yes"/>
      <point x="259" y="336" type="line"/>
      <point x="259" y="541" type="line"/>
    </contour>
    <contour>
      <point x="31" y="355" type="curve" smooth="yes"/>
      <point x="31" y="138"/>
      <point x="144" y="-28"/>
      <point x="291" y="-28" type="curve" smooth="yes"/>
      <point x="439" y="-28"/>
      <point x="551" y="138"/>
      <point x="551" y="355" type="curve" smooth="yes"/>
      <point x="551" y="572"/>
      <point x="439" y="738"/>
      <point x="291" y="738" type="curve" smooth="yes"/>
      <point x="144" y="738"/>
      <point x="31" y="572"/>
    </contour>
  </outline>
</glyph>
<glyph name="uni25B5" format="2">
  <advance width="428"/>
  <unicode hex="25B5"/>
  <outline>
    <contour>
      <point x="397" y="91" type="line"/>
      <point x="31" y="91" type="line"/>
      <point x="214" y="464" type="line"/>
    </contour>
    <contour>
      <point x="339" y="141" type="line"/>
      <point x="334" y="125" type="line"/>
      <point x="211" y="380" type="line"/>
      <point x="218" y="380" type="line"/>
      <point x="94" y="125" type="line"/>
      <point x="90" y="141" type="line"/>
    </contour>
  </outline>
</glyph>
<glyph name="uni27F7" format="2">
  <advance width="890"/>
  <unicode hex="27F7"/>
  <outline>
    <contour>
      <point x="792" y="344" type="line"/>
      <point x="656" y="171" type="line"/>
      <point x="662" y="160" type="line"/>
      <point x="851" y="349" type="line"/>
      <point x="851" y="358" type="line"/>
      <point x="662" y="547" type="line"/>
      <point x="656" y="536" type="line"/>
      <point x="792" y="362" type="line"/>
      <point x="105" y="362" type="line"/>
      <point x="241" y="536" type="line"/>
      <point x="235" y="547" type="line"/>
      <point x="47" y="358" type="line"/>
      <point x="47" y="349" type="line"/>
      <point x="235" y="160" type="line"/>
      <point x="241" y="171" type="line"/>
      <point x="105" y="344" type="line"/>
    </contour>
  </outline>
</glyph>
<glyph name="one.den" format="2">
  <advance width="211"/>
  <unicode hex="E403"/>
  <outline>
    <contour>
      <point x="98" y="35" type="curve" smooth="yes"/>
      <point x="135" y="341" type="line"/>
      <point x="116" y="341" type="line"/>
      <point x="95" y="310"/>
      <point x="71" y="299"/>
      <point x="28" y="298" type="curve"/>
      <point x="24" y="263" type="line"/>
      <point x="56" y="265"/>
      <point x="93" y="287"/>
      <point x="107" y="320" type="curve"/>
      <point x="104" y="317"/>
      <point x="100" y="314"/>
      <point x="98" y="309" type="curve"/>
      <point x="66" y="35" type="line" smooth="yes"/>
      <point x="64" y="17"/>
      <point x="47" y="13"/>
      <point x="23" y="13" type="curve" smooth="yes"/>
      <point x="1" y="13" type="line"/>
      <point x="-1" y="0" type="line"/>
      <point x="154" y="0" type="line"/>
      <point x="155" y="13" type="line"/>
      <point x="138" y="13" type="line" smooth="yes"/>
      <point x="113" y="13"/>
      <point x="96" y="17"/>
    </contour>
  </outline>
</glyph>
<glyph name="two.den" format="2">
  <advance width="212"/>
  <unicode hex="E404"/>
  <outline>
    <contour>
      <point x="103" y="34" type="line" smooth="yes"/>
      <point x="134" y="34"/>
      <point x="145" y="37"/>
      <point x="149" y="55" type="curve" smooth="yes"/>
      <point x="159" y="98" type="line"/>
      <point x="169" y="98" type="line"/>
      <point x="157" y="0" type="line"/>
      <point x="-20" y="0" type="line"/>
      <point x="-17" y="18" type="line"/>
      <point x="92" y="112"/>
      <point x="137" y="164"/>
      <point x="137" y="252" type="curve" smooth="yes"/>
      <point x="137" y="300"/>
      <point x="122" y="331"/>
      <point x="91" y="331" type="curve" smooth="yes"/>
      <point x="69" y="331"/>
      <point x="47" y="319"/>
      <point x="35" y="301" type="curve"/>
      <point x="36" y="313"/>
      <point x="42" y="321"/>
      <point x="51" y="325" type="curve"/>
      <point x="44" y="254" type="line"/>
      <point x="11" y="254" type="line"/>
      <point x="17" y="310" type="line"/>
      <point x="30" y="325"/>
      <point x="57" y="346"/>
      <point x="91" y="346" type="curve" smooth="yes"/>
      <point x="145" y="346"/>
      <point x="172" y="304"/>
      <point x="172" y="252" type="curve" smooth="yes"/>
      <point x="172" y="161"/>
      <point x="92" y="93"/>
      <point x="1" y="18" type="curve"/>
      <point x="-1" y="20"/>
      <point x="6" y="30"/>
      <point x="8" y="34" type="curve"/>
    </contour>
  </outline>
</glyph>
<glyph name="four.den" format="2">
  <advance width="212"/>
  <unicode hex="E406"/>
  <outline>
    <contour>
      <point x="-19" y="88" type="line"/>
      <point x="174" y="88" type="line"/>
      <point x="178" y="120" type="line"/>
      <point x="0" y="120" type="line"/>
      <point x="-5" y="100" type="line"/>
      <point x="142" y="324" type="line"/>
      <point x="154" y="341" type="line"/>
      <point x="140" y="341" type="line"/>
      <point x="-18" y="104" type="line"/>
    </contour>
    <contour>
      <point x="121" y="0" type="line"/>
      <point x="162" y="341" type="line"/>
      <point x="146" y="341" type="line"/>
      <point x="127" y="309" type="line"/>
      <point x="89" y="0" type="line"/>
    </contour>
  </outline>
</glyph>
<glyph name="seven.den" format="2">
  <advance width="212"/>
  <unicode hex="E409"/>
  <outline>
    <contour>
      <point x="84" y="308" type="line" smooth="yes"/>
      <point x="54" y="308"/>
      <point x="42" y="304"/>
      <point x="38" y="285" type="curve" smooth="yes"/>
      <point x="29" y="236" type="line"/>
      <point x="18" y="236" type="line"/>
      <point x="31" y="341" type="line"/>
      <point x="200" y="341" type="line"/>
      <point x="198" y="324" type="line"/>
      <point x="136" y="231"/>
      <point x="102" y="149"/>
      <point x="86" y="0" type="curve"/>
      <point x="50" y="0" type="line"/>
      <point x="71" y="150"/>
      <point x="138" y="257"/>
      <point x="186" y="322" type="curve"/>
      <point x="179" y="308" type="line"/>
    </contour>
  </outline>
</glyph>
<glyph name="f_f" format="2">
  <advance width="387"/>
  <unicode hex="FB00"/>
  <outline>
    <contour>
      <point x="41" y="518" type="line"/>
      <point x="39" y="501" type="line"/>
      <point x="212" y="501" type="line"/>
      <point x="215" y="518" type="line"/>
    </contour>
    <contour>
      <point x="221" y="726" type="curve" smooth="yes"/>
      <point x="242" y="726"/>
      <point x="259" y="716"/>
      <point x="266" y="709" type="curve"/>
      <point x="268" y="730" type="line"/>
      <point x="257" y="740"/>
      <point x="240" y="744"/>
      <point x="220" y="744" type="curve" smooth="yes"/>
      <point x="158" y="744"/>
      <point x="113" y="689"/>
      <point x="103" y="594" type="curve" smooth="yes"/>
      <point x="25" y="-223" type="line"/>
      <point x="54" y="-223" type="line"/>
      <point x="138" y="595" type="line" smooth="yes"/>
      <point x="147" y="683"/>
      <point x="171" y="726"/>
    </contour>
    <contour>
      <point x="199" y="518" type="line"/>
      <point x="197" y="501" type="line"/>
      <point x="397" y="501" type="line"/>
      <point x="399" y="518" type="line"/>
    </contour>
    <contour>
      <point x="406" y="741" type="curve" smooth="yes"/>
      <point x="429" y="741"/>
      <point x="447" y="728"/>
      <point x="456" y="719" type="curve"/>
      <point x="459" y="741" type="line"/>
      <point x="444" y="752"/>
      <point x="427" y="758"/>
      <point x="406" y="758" type="curve" smooth="yes"/>
      <point x="345" y="758"/>
      <point x="299" y="704"/>
      <point x="289" y="611" type="curve" smooth="yes"/>
      <point x="212" y="-193" type="line"/>
      <point x="241" y="-193" type="line"/>
      <point x="324" y="608" type="line" smooth="yes"/>
      <point x="333" y="697"/>
      <point x="360" y="741"/>
    </contour>
  </outline>
</glyph>
<glyph name="E.alt" format="2">
  <advance width="398"/>
  <outline>
    <contour>
      <point x="344" y="178" type="line"/>
      <point x="330" y="178" type="line"/>
      <point x="306" y="55" type="line" smooth="yes"/>
      <point x="299" y="24"/>
      <point x="278" y="18"/>
      <point x="216" y="18" type="curve" smooth="yes"/>
      <point x="82" y="18" type="line"/>
      <point x="163" y="692" type="line"/>
      <point x="289" y="692" type="line" smooth="yes"/>
      <point x="343" y="692"/>
      <point x="359" y="686"/>
      <point x="357" y="658" type="curve" smooth="yes"/>
      <point x="353" y="557" type="line"/>
      <point x="366" y="557" type="line"/>
      <point x="385" y="710" type="line"/>
      <point x="71" y="710" type="line"/>
      <point x="69" y="695" type="line"/>
      <point x="76" y="695" type="line" smooth="yes"/>
      <point x="105" y="695"/>
      <point x="128" y="689"/>
      <point x="124" y="667" type="curve" smooth="yes"/>
      <point x="49" y="42" type="line" smooth="yes"/>
      <point x="47" y="21"/>
      <point x="23" y="15"/>
      <point x="-6" y="15" type="curve" smooth="yes"/>
      <point x="-12" y="15" type="line"/>
      <point x="-15" y="0" type="line"/>
      <point x="322" y="0" type="line"/>
    </contour>
    <contour>
      <point x="111" y="373" type="line"/>
      <point x="109" y="355" type="line"/>
      <point x="247" y="355" type="line" smooth="yes"/>
      <point x="269" y="355"/>
      <point x="271" y="337"/>
      <point x="267" y="292" type="curve" smooth="yes"/>
      <point x="266" y="284" type="line"/>
      <point x="279" y="284" type="line"/>
      <point x="299" y="446" type="line"/>
      <point x="286" y="446" type="line"/>
      <point x="286" y="440" type="line" smooth="yes"/>
      <point x="281" y="401"/>
      <point x="270" y="373"/>
      <point x="251" y="373" type="curve" smooth="yes"/>
    </contour>
  </outline>
</glyph>
<glyph name="F.alt" format="2">
  <advance width="381"/>
  <outline>
    <contour>
      <point x="163" y="692" type="line"/>
      <point x="288" y="692" type="line" smooth="yes"/>
      <point x="346" y="692"/>
      <point x="363" y="685"/>
      <point x="361" y="658" type="curve" smooth="yes"/>
      <point x="357" y="557" type="line"/>
      <point x="371" y="557" type="line"/>
      <point x="390" y="710" type="line"/>
      <point x="71" y="710" type="line"/>
      <point x="69" y="695" type="line"/>
      <point x="76" y="695" type="line" smooth="yes"/>
      <point x="105" y="695"/>
      <point x="128" y="689"/>
      <point x="124" y="667" type="curve" smooth="yes"/>
      <point x="49" y="42" type="line" smooth="yes"/>
      <point x="47" y="21"/>
      <point x="23" y="15"/>
      <point x="-6" y="15" type="curve" smooth="yes"/>
      <point x="-12" y="15" type="line"/>
      <point x="-15" y="0" type="line"/>
      <point x="149" y="0" type="line"/>
      <point x="152" y="15" type="line"/>
      <point x="140" y="15" type="line" smooth="yes"/>
      <point x="114" y="15"/>
      <point x="82" y="17"/>
      <point x="84" y="41" type="curve" smooth="yes"/>
    </contour>
    <contour>
      <point x="113" y="367" type="line"/>
      <point x="111" y="350" type="line"/>
      <point x="250" y="350" type="line" smooth="yes"/>
      <point x="271" y="350"/>
      <point x="273" y="331"/>
      <point x="269" y="286" type="curve" smooth="yes"/>
      <point x="268" y="278" type="line"/>
      <point x="281" y="278" type="line"/>
      <point x="301" y="440" type="line"/>
      <point x="288" y="440" type="line"/>
      <point x="288" y="434" type="line" smooth="yes"/>
      <point x="283" y="395"/>
      <point x="273" y="367"/>
      <point x="253" y="367" type="curve" smooth="yes"/>
    </contour>
  </outline>
</glyph>
<glyph name="OE.alt" format="2">
  <advance width="661"/>
  <outline>
    <contour>
      <point x="375" y="373" type="line"/>
      <point x="373" y="355" type="line"/>
      <point x="510" y="355" type="line" smooth="yes"/>
      <point x="532" y="355"/>
      <point x="534" y="337"/>
      <point x="529" y="292" type="curve" smooth="yes"/>
      <point x="529" y="284" type="line"/>
      <point x="542" y="284" type="line"/>
      <point x="562" y="446" type="line"/>
      <point x="549" y="446" type="line"/>
      <point x="548" y="440" type="line" smooth="yes"/>
      <point x="543" y="401"/>
      <point x="533" y="373"/>
      <point x="513" y="373" type="curve" smooth="yes"/>
    </contour>
    <contour>
      <point x="606" y="178" type="line"/>
      <point x="593" y="178" type="line"/>
      <point x="569" y="55" type="line" smooth="yes"/>
      <point x="562" y="24"/>
      <point x="540" y="18"/>
      <point x="479" y="18" type="curve" smooth="yes"/>
      <point x="346" y="18" type="line"/>
      <point x="427" y="692" type="line"/>
      <point x="552" y="692" type="line" smooth="yes"/>
      <point x="605" y="692"/>
      <point x="622" y="686"/>
      <point x="621" y="658" type="curve"/>
      <point x="616" y="557" type="line"/>
      <point x="629" y="557" type="line"/>
      <point x="648" y="710" type="line"/>
      <point x="329" y="710" type="line" smooth="yes"/>
      <point x="120" y="710"/>
      <point x="24" y="518"/>
      <point x="24" y="311" type="curve" smooth="yes"/>
      <point x="24" y="127"/>
      <point x="111" y="0"/>
      <point x="279" y="0" type="curve" smooth="yes"/>
      <point x="584" y="0" type="line"/>
    </contour>
    <contour>
      <point x="281" y="18" type="line" smooth="yes"/>
      <point x="128" y="18"/>
      <point x="62" y="137"/>
      <point x="62" y="310" type="curve" smooth="yes"/>
      <point x="62" y="502"/>
      <point x="136" y="692"/>
      <point x="327" y="692" type="curve" smooth="yes"/>
      <point x="392" y="692" type="line"/>
      <point x="311" y="18" type="line"/>
    </contour>
  </outline>
</glyph>
<glyph name="acute.pl" format="2">
  <advance width="343"/>
  <anchor x="138" y="489" name="_top"/>
  <outline>
    <contour>
      <point x="161" y="715" type="curve" smooth="yes"/>
      <point x="137" y="592" type="line"/>
      <point x="137" y="585" type="line"/>
      <point x="147" y="585" type="line"/>
      <point x="190" y="687" type="line" smooth="yes"/>
      <point x="200" y="706"/>
      <point x="206" y="723"/>
      <point x="206" y="741" type="curve" smooth="yes"/>
      <point x="206" y="754"/>
      <point x="199" y="765"/>
      <point x="189" y="765" type="curve" smooth="yes"/>
      <point x="173" y="765"/>
      <point x="168" y="748"/>
    </contour>
  </outline>
</glyph>
<glyph name="acute.uc" format="2">
  <advance width="343"/>
  <anchor x="123" y="727" name="_top"/>
  <outline>
    <contour>
      <point x="185" y="870" type="curve" smooth="yes"/>
      <point x="124" y="772" type="line"/>
      <point x="122" y="766" type="line"/>
      <point x="132" y="766" type="line"/>
      <point x="205" y="835" type="line" smooth="yes"/>
      <point x="227" y="854"/>
      <point x="239" y="864"/>
      <point x="239" y="882" type="curve" smooth="yes"/>
      <point x="239" y="894"/>
      <point x="233" y="907"/>
      <point x="221" y="907" type="curve" smooth="yes"/>
      <point x="208" y="907"/>
      <point x="199" y="892"/>
    </contour>
  </outline>
</glyph>
<glyph name="at.uc" format="2">
  <advance width="593"/>
  <outline>
    <contour>
      <point x="263" y="121" type="curve" smooth="yes"/>
      <point x="305" y="121"/>
      <point x="337" y="161"/>
      <point x="370" y="245" type="curve"/>
      <point x="366" y="267" type="line"/>
      <point x="333" y="180"/>
      <point x="302" y="137"/>
      <point x="266" y="137" type="curve" smooth="yes"/>
      <point x="228" y="137"/>
      <point x="209" y="183"/>
      <point x="209" y="268" type="curve" smooth="yes"/>
      <point x="209" y="400"/>
      <point x="259" y="530"/>
      <point x="331" y="530" type="curve" smooth="yes"/>
      <point x="362" y="530"/>
      <point x="395" y="507"/>
      <point x="401" y="410" type="curve"/>
      <point x="408" y="443" type="line"/>
      <point x="400" y="514"/>
      <point x="366" y="546"/>
      <point x="328" y="546" type="curve" smooth="yes"/>
      <point x="240" y="546"/>
      <point x="175" y="407"/>
      <point x="175" y="270" type="curve" smooth="yes"/>
      <point x="175" y="175"/>
      <point x="212" y="121"/>
    </contour>
    <contour>
      <point x="295" y="-72" type="curve" smooth="yes"/>
      <point x="360" y="-72"/>
      <point x="410" y="-48"/>
      <point x="447" y="-20" type="curve"/>
      <point x="444" y="-4" type="line"/>
      <point x="407" y="-32"/>
      <point x="362" y="-56"/>
      <point x="295" y="-56" type="curve" smooth="yes"/>
      <point x="174" y="-56"/>
      <point x="55" y="50"/>
      <point x="55" y="289" type="curve" smooth="yes"/>
      <point x="55" y="530"/>
      <point x="179" y="717"/>
      <point x="333" y="717" type="curve" smooth="yes"/>
      <point x="465" y="717"/>
      <point x="545" y="588"/>
      <point x="545" y="412" type="curve" smooth="yes"/>
      <point x="545" y="266"/>
      <point x="490" y="137"/>
      <point x="420" y="137" type="curve" smooth="yes"/>
      <point x="389" y="137"/>
      <point x="375" y="160"/>
      <point x="375" y="195" type="curve" smooth="yes"/>
      <point x="375" y="217"/>
      <point x="378" y="230"/>
      <point x="382" y="252" type="curve" smooth="yes"/>
      <point x="442" y="540" type="line"/>
      <point x="423" y="540" type="line"/>
      <point x="396" y="465" type="line"/>
      <point x="395" y="476" type="line"/>
      <point x="340" y="201" type="line"/>
      <point x="345" y="208" type="line"/>
      <point x="346" y="163"/>
      <point x="367" y="121"/>
      <point x="418" y="121" type="curve" smooth="yes"/>
      <point x="498" y="121"/>
      <point x="570" y="252"/>
      <point x="570" y="412" type="curve" smooth="yes"/>
      <point x="570" y="599"/>
      <point x="477" y="733"/>
      <point x="333" y="733" type="curve" smooth="yes"/>
      <point x="167" y="733"/>
      <point x="31" y="539"/>
      <point x="31" y="289" type="curve" smooth="yes"/>
      <point x="31" y="34"/>
      <point x="162" y="-72"/>
    </contour>
  </outline>
</glyph>
<glyph name="bar.uc" format="2">
  <advance width="166"/>
  <outline>
    <contour>
      <point x="79" y="741" type="line"/>
      <point x="79" y="-36" type="line"/>
      <point x="94" y="-36" type="line"/>
      <point x="94" y="741" type="line"/>
    </contour>
  </outline>
</glyph>
<glyph name="blackcircle" format="2">
  <advance width="405"/>
  <outline>
    <contour>
      <point x="202" y="80" type="curve" smooth="yes"/>
      <point x="289" y="80"/>
      <point x="357" y="177"/>
      <point x="357" y="304" type="curve" smooth="yes"/>
      <point x="357" y="431"/>
      <point x="289" y="528"/>
      <point x="202" y="528" type="curve" smooth="yes"/>
      <point x="117" y="528"/>
      <point x="48" y="431"/>
      <point x="48" y="304" type="curve" smooth="yes"/>
      <point x="48" y="177"/>
      <point x="117" y="80"/>
    </contour>
  </outline>
</glyph>
<glyph name="braceleft.uc" format="2">
  <advance width="208"/>
  <outline>
    <contour>
      <point x="20" y="60" type="curve" smooth="yes"/>
      <point x="20" y="-17"/>
      <point x="66" y="-61"/>
      <point x="154" y="-62" type="curve"/>
      <point x="154" y="-62" type="line"/>
      <point x="157" y="-47" type="line"/>
      <point x="157" y="-47" type="line"/>
      <point x="76" y="-44"/>
      <point x="49" y="-5"/>
      <point x="49" y="62" type="curve" smooth="yes"/>
      <point x="49" y="146"/>
      <point x="147" y="271"/>
      <point x="147" y="297" type="curve" smooth="yes"/>
      <point x="147" y="315"/>
      <point x="136" y="321"/>
      <point x="61" y="359" type="curve"/>
      <point x="62" y="361" type="line"/>
      <point x="149" y="390"/>
      <point x="158" y="391"/>
      <point x="158" y="414" type="curve" smooth="yes"/>
      <point x="158" y="443"/>
      <point x="111" y="554"/>
      <point x="111" y="626" type="curve" smooth="yes"/>
      <point x="111" y="712"/>
      <point x="157" y="747"/>
      <point x="238" y="745" type="curve"/>
      <point x="238" y="745" type="line"/>
      <point x="237" y="760" type="line"/>
      <point x="237" y="760" type="line"/>
      <point x="154" y="763"/>
      <point x="81" y="730"/>
      <point x="81" y="623" type="curve" smooth="yes"/>
      <point x="81" y="559"/>
      <point x="115" y="489"/>
      <point x="142" y="397" type="curve"/>
      <point x="145" y="410" type="line"/>
      <point x="37" y="368" type="line"/>
      <point x="35" y="355" type="line"/>
      <point x="132" y="298" type="line"/>
      <point x="134" y="308" type="line"/>
      <point x="77" y="209"/>
      <point x="20" y="135"/>
    </contour>
  </outline>
</glyph>
<glyph name="breve_grave.uc" format="2">
  <advance width="350"/>
  <anchor x="183" y="744" name="_top"/>
  <outline>
    <contour>
      <point x="174" y="1018" type="curve" smooth="yes"/>
      <point x="220" y="922" type="line"/>
      <point x="220" y="916" type="line"/>
      <point x="212" y="916" type="line"/>
      <point x="151" y="987" type="line" smooth="yes"/>
      <point x="133" y="1006"/>
      <point x="123" y="1017"/>
      <point x="123" y="1032" type="curve" smooth="yes"/>
      <point x="123" y="1045"/>
      <point x="130" y="1057"/>
      <point x="142" y="1057" type="curve" smooth="yes"/>
      <point x="154" y="1057"/>
      <point x="161" y="1045"/>
    </contour>
    <component base="breve.uc"/>
  </outline>
</glyph>
<glyph name="breve_hook" format="2">
  <advance width="349"/>
  <anchor x="163" y="525" name="_top"/>
  <outline>
    <contour>
      <point x="130" y="838" type="line"/>
      <point x="137" y="881"/>
      <point x="163" y="907"/>
      <point x="203" y="907" type="curve" smooth="yes"/>
      <point x="244" y="907"/>
      <point x="264" y="884"/>
      <point x="264" y="847" type="curve" smooth="yes"/>
      <point x="264" y="804"/>
      <point x="233" y="771"/>
      <point x="183" y="766" type="curve"/>
      <point x="197" y="778" type="line"/>
      <point x="191" y="735" type="line"/>
      <point x="174" y="735" type="line"/>
      <point x="179" y="781" type="line"/>
      <point x="216" y="787"/>
      <point x="233" y="813"/>
      <point x="233" y="846" type="curve" smooth="yes"/>
      <point x="233" y="873"/>
      <point x="222" y="889"/>
      <point x="201" y="889" type="curve" smooth="yes"/>
      <point x="174" y="889"/>
      <point x="163" y="869"/>
      <point x="159" y="838" type="curve"/>
    </contour>
    <contour>
      <point x="111" y="742" type="curve"/>
      <point x="125" y="742" type="line"/>
      <point x="126" y="682"/>
      <point x="137" y="644"/>
      <point x="185" y="644" type="curve" smooth="yes"/>
      <point x="220" y="644"/>
      <point x="244" y="673"/>
      <point x="255" y="742" type="curve"/>
      <point x="268" y="742" type="line"/>
      <point x="259" y="641"/>
      <point x="225" y="604"/>
      <point x="182" y="604" type="curve" smooth="yes"/>
      <point x="137" y="604"/>
      <point x="111" y="645"/>
      <point x="111" y="723" type="curve" smooth="yes"/>
      <point x="111" y="727"/>
      <point x="111" y="735"/>
    </contour>
  </outline>
</glyph>
<glyph name="breve_hook.uc" format="2">
  <advance width="343"/>
  <anchor x="162" y="724" name="_top"/>
  <outline>
    <contour>
      <point x="122" y="985" type="line"/>
      <point x="130" y="1029"/>
      <point x="157" y="1058"/>
      <point x="197" y="1058" type="curve" smooth="yes"/>
      <point x="239" y="1058"/>
      <point x="260" y="1034"/>
      <point x="260" y="996" type="curve" smooth="yes"/>
      <point x="260" y="954"/>
      <point x="227" y="924"/>
      <point x="175" y="918" type="curve"/>
      <point x="188" y="930" type="line"/>
      <point x="184" y="887" type="line"/>
      <point x="165" y="887" type="line"/>
      <point x="171" y="934" type="line"/>
      <point x="208" y="943"/>
      <point x="228" y="963"/>
      <point x="228" y="995" type="curve" smooth="yes"/>
      <point x="228" y="1023"/>
      <point x="217" y="1040"/>
      <point x="195" y="1040" type="curve" smooth="yes"/>
      <point x="168" y="1040"/>
      <point x="156" y="1017"/>
      <point x="150" y="985" type="curve"/>
    </contour>
    <contour>
      <point x="171" y="761" type="curve" smooth="yes"/>
      <point x="124" y="761"/>
      <point x="100" y="803"/>
      <point x="100" y="868" type="curve" smooth="yes"/>
      <point x="100" y="873"/>
      <point x="100" y="879"/>
      <point x="101" y="885" type="curve"/>
      <point x="114" y="885" type="line"/>
      <point x="115" y="832"/>
      <point x="128" y="801"/>
      <point x="174" y="801" type="curve" smooth="yes"/>
      <point x="209" y="801"/>
      <point x="234" y="826"/>
      <point x="244" y="885" type="curve"/>
      <point x="257" y="885" type="line"/>
      <point x="249" y="796"/>
      <point x="215" y="761"/>
    </contour>
  </outline>
</glyph>
<glyph name="brokenbar.uc" format="2">
  <advance width="166"/>
  <outline>
    <contour>
      <point x="79" y="746" type="line"/>
      <point x="79" y="425" type="line"/>
      <point x="94" y="425" type="line"/>
      <point x="94" y="746" type="line"/>
    </contour>
    <contour>
      <point x="79" y="285" type="line"/>
      <point x="79" y="-36" type="line"/>
      <point x="94" y="-36" type="line"/>
      <point x="94" y="285" type="line"/>
    </contour>
  </outline>
</glyph>
<glyph name="cent.proportional" format="2">
  <advance width="382"/>
  <outline>
    <contour>
      <point x="238" y="632" type="line"/>
      <point x="224" y="524" type="line"/>
      <point x="224" y="515" type="line"/>
      <point x="162" y="7" type="line"/>
      <point x="161" y="1" type="line"/>
      <point x="146" y="-126" type="line"/>
      <point x="161" y="-126" type="line"/>
      <point x="176" y="-2" type="line"/>
      <point x="176" y="6" type="line"/>
      <point x="238" y="514" type="line"/>
      <point x="239" y="521" type="line"/>
      <point x="252" y="632" type="line"/>
    </contour>
    <contour>
      <point x="234" y="528" type="curve" smooth="yes"/>
      <point x="114" y="528"/>
      <point x="39" y="387"/>
      <point x="39" y="217" type="curve" smooth="yes"/>
      <point x="39" y="79"/>
      <point x="98" y="-11"/>
      <point x="188" y="-11" type="curve" smooth="yes"/>
      <point x="255" y="-11"/>
      <point x="301" y="46"/>
      <point x="327" y="124" type="curve"/>
      <point x="315" y="136" type="line"/>
      <point x="296" y="74"/>
      <point x="258" y="7"/>
      <point x="190" y="7" type="curve" smooth="yes"/>
      <point x="115" y="7"/>
      <point x="76" y="86"/>
      <point x="76" y="216" type="curve" smooth="yes"/>
      <point x="76" y="377"/>
      <point x="132" y="511"/>
      <point x="233" y="511" type="curve" smooth="yes"/>
      <point x="282" y="511"/>
      <point x="315" y="483"/>
      <point x="328" y="452" type="curve"/>
      <point x="330" y="462"/>
      <point x="328" y="474"/>
      <point x="313" y="485" type="curve"/>
      <point x="302" y="397" type="line"/>
      <point x="339" y="397" type="line"/>
      <point x="349" y="470" type="line"/>
      <point x="341" y="483"/>
      <point x="304" y="528"/>
    </contour>
  </outline>
</glyph>
<glyph name="circumflex_tilde.uc" format="2">
  <advance width="343"/>
  <anchor x="160" y="694" name="_top"/>
  <outline>
    <contour>
      <point x="228" y="906" type="curve" smooth="yes"/>
      <point x="254" y="906"/>
      <point x="271" y="934"/>
      <point x="287" y="987" type="curve"/>
      <point x="275" y="995" type="line"/>
      <point x="263" y="959"/>
      <point x="254" y="944"/>
      <point x="236" y="944" type="curve" smooth="yes"/>
      <point x="210" y="944"/>
      <point x="190" y="994"/>
      <point x="157" y="994" type="curve" smooth="yes"/>
      <point x="131" y="994"/>
      <point x="113" y="966"/>
      <point x="100" y="911" type="curve"/>
      <point x="111" y="904" type="line"/>
      <point x="120" y="939"/>
      <point x="132" y="957"/>
      <point x="149" y="957" type="curve" smooth="yes"/>
      <point x="175" y="957"/>
      <point x="194" y="906"/>
    </contour>
    <contour>
      <point x="207" y="880" type="line"/>
      <point x="265" y="754" type="line"/>
      <point x="264" y="749" type="line"/>
      <point x="253" y="749" type="line"/>
      <point x="171" y="861" type="line"/>
      <point x="197" y="861" type="line"/>
      <point x="87" y="749" type="line"/>
      <point x="74" y="749" type="line"/>
      <point x="75" y="754" type="line"/>
      <point x="164" y="880" type="line"/>
    </contour>
  </outline>
</glyph>
<glyph name="currency.proportional" format="2">
  <advance width="429"/>
  <outline>
    <contour>
      <point x="214" y="181" type="curve"/>
      <point x="295" y="181"/>
      <point x="357" y="273"/>
      <point x="357" y="385" type="curve" smooth="yes"/>
      <point x="357" y="497"/>
      <point x="301" y="572"/>
      <point x="227" y="572" type="curve" smooth="yes"/>
      <point x="146" y="572"/>
      <point x="85" y="479"/>
      <point x="85" y="367" type="curve" smooth="yes"/>
      <point x="85" y="255"/>
      <point x="140" y="181"/>
    </contour>
    <contour>
      <point x="214" y="199" type="curve" smooth="yes"/>
      <point x="152" y="199"/>
      <point x="102" y="264"/>
      <point x="102" y="367" type="curve" smooth="yes"/>
      <point x="102" y="474"/>
      <point x="153" y="553"/>
      <point x="227" y="553" type="curve" smooth="yes"/>
      <point x="288" y="553"/>
      <point x="339" y="489"/>
      <point x="339" y="385" type="curve" smooth="yes"/>
      <point x="339" y="282"/>
      <point x="288" y="199"/>
    </contour>
    <contour>
      <point x="52" y="142" type="line"/>
      <point x="130" y="241" type="line"/>
      <point x="119" y="255" type="line"/>
      <point x="42" y="157" type="line"/>
    </contour>
    <contour>
      <point x="135" y="513" type="line"/>
      <point x="147" y="524" type="line"/>
      <point x="96" y="610" type="line"/>
      <point x="84" y="597" type="line"/>
    </contour>
    <contour>
      <point x="321" y="496" type="line"/>
      <point x="400" y="595" type="line"/>
      <point x="390" y="610" type="line"/>
      <point x="311" y="510" type="line"/>
    </contour>
    <contour>
      <point x="348" y="142" type="line"/>
      <point x="358" y="155" type="line"/>
      <point x="310" y="238" type="line"/>
      <point x="297" y="226" type="line"/>
    </contour>
  </outline>
</glyph>
<glyph name="dong.proportional" format="2">
  <advance width="395"/>
  <outline>
    <contour>
      <point x="133" y="-10" type="curve" smooth="yes"/>
      <point x="203" y="-10"/>
      <point x="247" y="76"/>
      <point x="292" y="211" type="curve"/>
      <point x="285" y="228" type="line"/>
      <point x="242" y="103"/>
      <point x="198" y="9"/>
      <point x="136" y="9" type="curve" smooth="yes"/>
      <point x="85" y="9"/>
      <point x="63" y="88"/>
      <point x="63" y="186" type="curve" smooth="yes"/>
      <point x="63" y="345"/>
      <point x="118" y="510"/>
      <point x="215" y="510" type="curve" smooth="yes"/>
      <point x="265" y="510"/>
      <point x="306" y="464"/>
      <point x="319" y="380" type="curve"/>
      <point x="328" y="399" type="line"/>
      <point x="315" y="480"/>
      <point x="270" y="528"/>
      <point x="215" y="528" type="curve" smooth="yes"/>
      <point x="99" y="528"/>
      <point x="26" y="356"/>
      <point x="26" y="188" type="curve" smooth="yes"/>
      <point x="26" y="76"/>
      <point x="61" y="-10"/>
    </contour>
    <contour>
      <point x="314" y="-7" type="curve" smooth="yes"/>
      <point x="332" y="-7"/>
      <point x="350" y="2"/>
      <point x="358" y="11" type="curve"/>
      <point x="361" y="27" type="line"/>
      <point x="354" y="23"/>
      <point x="338" y="13"/>
      <point x="323" y="13" type="curve" smooth="yes"/>
      <point x="303" y="13"/>
      <point x="294" y="25"/>
      <point x="294" y="57" type="curve" smooth="yes"/>
      <point x="294" y="83"/>
      <point x="300" y="130"/>
      <point x="306" y="174" type="curve" smooth="yes"/>
      <point x="377" y="750" type="line"/>
      <point x="342" y="750" type="line"/>
      <point x="271" y="171" type="line"/>
      <point x="271" y="168" type="line"/>
      <point x="266" y="123"/>
      <point x="263" y="88"/>
      <point x="263" y="62" type="curve" smooth="yes"/>
      <point x="263" y="13"/>
      <point x="283" y="-7"/>
    </contour>
    <contour>
      <point x="44" y="-126" type="line"/>
      <point x="41" y="-144" type="line"/>
      <point x="319" y="-144" type="line"/>
      <point x="321" y="-126" type="line"/>
    </contour>
    <contour>
      <point x="202" y="643" type="line"/>
      <point x="200" y="627" type="line"/>
      <point x="423" y="627" type="line"/>
      <point x="425" y="643" type="line"/>
    </contour>
  </outline>
</glyph>
<glyph name="eight.oldtab" format="2">
  <advance width="384"/>
  <outline>
    <contour>
      <point x="189" y="8" type="curve" smooth="yes"/>
      <point x="114" y="8"/>
      <point x="67" y="78"/>
      <point x="67" y="183" type="curve" smooth="yes"/>
      <point x="67" y="197"/>
      <point x="68" y="210"/>
      <point x="70" y="223" type="curve" smooth="yes"/>
      <point x="81" y="311"/>
      <point x="129" y="367"/>
      <point x="195" y="367" type="curve" smooth="yes"/>
      <point x="271" y="367"/>
      <point x="314" y="301"/>
      <point x="314" y="201" type="curve" smooth="yes"/>
      <point x="314" y="186"/>
      <point x="313" y="171"/>
      <point x="311" y="157" type="curve" smooth="yes"/>
      <point x="299" y="67"/>
      <point x="256" y="8"/>
    </contour>
    <contour>
      <point x="224" y="385" type="curve" smooth="yes"/>
      <point x="173" y="385"/>
      <point x="130" y="440"/>
      <point x="130" y="534" type="curve" smooth="yes"/>
      <point x="130" y="549"/>
      <point x="131" y="565"/>
      <point x="133" y="575" type="curve" smooth="yes"/>
      <point x="143" y="652"/>
      <point x="181" y="702"/>
      <point x="236" y="702" type="curve" smooth="yes"/>
      <point x="294" y="702"/>
      <point x="331" y="642"/>
      <point x="331" y="551" type="curve" smooth="yes"/>
      <point x="331" y="538"/>
      <point x="331" y="526"/>
      <point x="329" y="514" type="curve" smooth="yes"/>
      <point x="320" y="434"/>
      <point x="278" y="385"/>
    </contour>
    <contour>
      <point x="188" y="-10" type="curve" smooth="yes"/>
      <point x="285" y="-10"/>
      <point x="352" y="82"/>
      <point x="352" y="199" type="curve" smooth="yes"/>
      <point x="352" y="277"/>
      <point x="311" y="353"/>
      <point x="242" y="377" type="curve"/>
      <point x="245" y="371" type="line"/>
      <point x="247" y="378" type="line"/>
      <point x="242" y="373" type="line"/>
      <point x="315" y="380"/>
      <point x="367" y="456"/>
      <point x="367" y="550" type="curve" smooth="yes"/>
      <point x="367" y="648"/>
      <point x="310" y="720"/>
      <point x="237" y="720" type="curve" smooth="yes"/>
      <point x="152" y="720"/>
      <point x="94" y="638"/>
      <point x="94" y="536" type="curve" smooth="yes"/>
      <point x="94" y="466"/>
      <point x="128" y="401"/>
      <point x="185" y="380" type="curve"/>
      <point x="182" y="386" type="line"/>
      <point x="181" y="379" type="line"/>
      <point x="186" y="384" type="line"/>
      <point x="91" y="380"/>
      <point x="30" y="285"/>
      <point x="30" y="184" type="curve" smooth="yes"/>
      <point x="30" y="69"/>
      <point x="99" y="-10"/>
    </contour>
  </outline>
</glyph>
<glyph name="f_b" format="2">
  <advance width="561"/>
  <outline>
    <contour>
      <point x="41" y="518" type="line"/>
      <point x="39" y="501" type="line"/>
      <point x="211" y="501" type="line"/>
      <point x="214" y="518" type="line"/>
    </contour>
    <contour>
      <point x="354" y="-10" type="curve" smooth="yes"/>
      <point x="471" y="-10"/>
      <point x="542" y="153"/>
      <point x="542" y="327" type="curve" smooth="yes"/>
      <point x="542" y="441"/>
      <point x="508" y="528"/>
      <point x="437" y="528" type="curve" smooth="yes"/>
      <point x="369" y="528"/>
      <point x="320" y="447"/>
      <point x="275" y="308" type="curve"/>
      <point x="280" y="290" type="line"/>
      <point x="325" y="422"/>
      <point x="371" y="510"/>
      <point x="432" y="510" type="curve" smooth="yes"/>
      <point x="483" y="510"/>
      <point x="505" y="433"/>
      <point x="505" y="329" type="curve" smooth="yes"/>
      <point x="505" y="163"/>
      <point x="451" y="7"/>
      <point x="354" y="7" type="curve" smooth="yes"/>
      <point x="306" y="7"/>
      <point x="262" y="43"/>
      <point x="243" y="87" type="curve"/>
      <point x="245" y="69"/>
      <point x="250" y="52"/>
      <point x="259" y="37" type="curve"/>
      <point x="345" y="750" type="line"/>
      <point x="256" y="750" type="line"/>
      <point x="308" y="730" type="line"/>
      <point x="227" y="61" type="line"/>
      <point x="250" y="26"/>
      <point x="298" y="-10"/>
    </contour>
    <contour>
      <point x="237" y="741" type="curve" smooth="yes"/>
      <point x="274" y="741"/>
      <point x="304" y="724"/>
      <point x="321" y="707" type="curve"/>
      <point x="332" y="728" type="line"/>
      <point x="317" y="744"/>
      <point x="280" y="758"/>
      <point x="238" y="758" type="curve" smooth="yes"/>
      <point x="161" y="758"/>
      <point x="114" y="703"/>
      <point x="105" y="606" type="curve" smooth="yes"/>
      <point x="25" y="-223" type="line"/>
      <point x="54" y="-223" type="line"/>
      <point x="139" y="603" type="line" smooth="yes"/>
      <point x="148" y="694"/>
      <point x="175" y="741"/>
    </contour>
  </outline>
</glyph>
<glyph name="f_f.alt" format="2">
  <advance width="388"/>
  <outline>
    <contour>
      <point x="197" y="501" type="line"/>
      <point x="398" y="501" type="line"/>
      <point x="401" y="518" type="line"/>
      <point x="198" y="518" type="line"/>
    </contour>
    <contour>
      <point x="39" y="501" type="line"/>
      <point x="212" y="501" type="line"/>
      <point x="215" y="518" type="line"/>
      <point x="41" y="518" type="line"/>
    </contour>
    <contour>
      <point x="25" y="-223" type="line"/>
      <point x="54" y="-223" type="line"/>
      <point x="138" y="595" type="line" smooth="yes"/>
      <point x="148" y="696"/>
      <point x="182" y="725"/>
      <point x="228" y="725" type="curve" smooth="yes"/>
      <point x="269" y="725"/>
      <point x="300" y="699"/>
      <point x="310" y="671" type="curve"/>
      <point x="311" y="685"/>
      <point x="308" y="697"/>
      <point x="299" y="704" type="curve"/>
      <point x="291" y="626" type="line"/>
      <point x="316" y="592" type="line"/>
      <point x="326" y="691" type="line"/>
      <point x="310" y="717"/>
      <point x="276" y="743"/>
      <point x="228" y="743" type="curve" smooth="yes"/>
      <point x="168" y="743"/>
      <point x="114" y="703"/>
      <point x="104" y="598" type="curve" smooth="yes"/>
    </contour>
    <contour>
      <point x="212" y="-193" type="line"/>
      <point x="241" y="-193" type="line"/>
      <point x="326" y="634" type="line" smooth="yes"/>
      <point x="333" y="695"/>
      <point x="358" y="741"/>
      <point x="401" y="741" type="curve" smooth="yes"/>
      <point x="426" y="741"/>
      <point x="445" y="728"/>
      <point x="455" y="712" type="curve"/>
      <point x="460" y="721"/>
      <point x="453" y="731"/>
      <point x="444" y="734" type="curve"/>
      <point x="435" y="656" type="line"/>
      <point x="469" y="656" type="line"/>
      <point x="478" y="724" type="line"/>
      <point x="465" y="738"/>
      <point x="437" y="758"/>
      <point x="402" y="758" type="curve" smooth="yes"/>
      <point x="341" y="758"/>
      <point x="299" y="697"/>
      <point x="291" y="626" type="curve" smooth="yes"/>
    </contour>
  </outline>
</glyph>
<glyph name="f_f_b.alt" format="2">
  <advance width="746"/>
  <outline>
    <contour>
      <point x="149" y="518" type="line"/>
      <point x="147" y="501" type="line"/>
      <point x="353" y="501" type="line"/>
      <point x="355" y="518" type="line"/>
    </contour>
    <contour>
      <point x="86" y="518" type="line"/>
      <point x="83" y="501" type="line"/>
      <point x="256" y="501" type="line"/>
      <point x="258" y="518" type="line"/>
    </contour>
    <contour>
      <point x="538" y="-10" type="curve" smooth="yes"/>
      <point x="655" y="-10"/>
      <point x="727" y="153"/>
      <point x="727" y="327" type="curve" smooth="yes"/>
      <point x="727" y="441"/>
      <point x="692" y="528"/>
      <point x="622" y="528" type="curve" smooth="yes"/>
      <point x="553" y="528"/>
      <point x="505" y="447"/>
      <point x="459" y="308" type="curve"/>
      <point x="465" y="290" type="line"/>
      <point x="510" y="422"/>
      <point x="555" y="510"/>
      <point x="616" y="510" type="curve" smooth="yes"/>
      <point x="668" y="510"/>
      <point x="689" y="433"/>
      <point x="689" y="329" type="curve" smooth="yes"/>
      <point x="689" y="163"/>
      <point x="636" y="7"/>
      <point x="539" y="7" type="curve" smooth="yes"/>
      <point x="490" y="7"/>
      <point x="446" y="43"/>
      <point x="428" y="87" type="curve"/>
      <point x="433" y="71"/>
      <point x="435" y="51"/>
      <point x="443" y="37" type="curve"/>
      <point x="530" y="750" type="line"/>
      <point x="440" y="750" type="line"/>
      <point x="492" y="725" type="line"/>
      <point x="412" y="61" type="line"/>
      <point x="434" y="26"/>
      <point x="483" y="-10"/>
    </contour>
    <contour>
      <point x="228" y="725" type="curve" smooth="yes"/>
      <point x="269" y="725"/>
      <point x="300" y="699"/>
      <point x="310" y="671" type="curve"/>
      <point x="307" y="684"/>
      <point x="304" y="697"/>
      <point x="299" y="705" type="curve"/>
      <point x="290" y="608" type="line"/>
      <point x="316" y="592" type="line"/>
      <point x="326" y="691" type="line"/>
      <point x="310" y="717"/>
      <point x="276" y="743"/>
      <point x="228" y="743" type="curve" smooth="yes"/>
      <point x="168" y="743"/>
      <point x="114" y="703"/>
      <point x="104" y="598" type="curve" smooth="yes"/>
      <point x="25" y="-223" type="line"/>
      <point x="54" y="-223" type="line"/>
      <point x="138" y="595" type="line" smooth="yes"/>
      <point x="148" y="696"/>
      <point x="182" y="725"/>
    </contour>
    <contour>
      <point x="422" y="741" type="curve" smooth="yes"/>
      <point x="459" y="741"/>
      <point x="488" y="724"/>
      <point x="505" y="707" type="curve"/>
      <point x="517" y="728" type="line"/>
      <point x="501" y="744"/>
      <point x="465" y="758"/>
      <point x="423" y="758" type="curve" smooth="yes"/>
      <point x="346" y="758"/>
      <point x="299" y="703"/>
      <point x="289" y="606" type="curve" smooth="yes"/>
      <point x="212" y="-193" type="line"/>
      <point x="241" y="-193" type="line"/>
      <point x="323" y="603" type="line" smooth="yes"/>
      <point x="333" y="694"/>
      <point x="360" y="741"/>
    </contour>
  </outline>
</glyph>
